SplineFontDB: 3.2
FontName: Plexolas-Bold
FullName: Plexolas Bold
FamilyName: Plexolas
Weight: Bold
Copyright: 
Version: 1.0
ItalicAngle: 0
UnderlinePosition: -314
UnderlineWidth: 194
Ascent: 1521
Descent: 527
InvalidEm: 0
sfntRevision: 0x00010000
LayerCount: 2
Layer: 0 1 "Back" 1
Layer: 1 1 "Fore" 0
XUID: [1021 524 -1093598656 7808512]
StyleMap: 0x0020
FSType: 8
OS2Version: 3
OS2_WeightWidthSlopeOnly: 0
OS2_UseTypoMetrics: 0
CreationTime: 1069378216
ModificationTime: 1644162887
PfmFamily: 17
TTFWeight: 700
TTFWidth: 5
LineGap: 350
VLineGap: 0
Panose: 2 11 7 9 2 2 4 3 2 4
OS2TypoAscent: 1521
OS2TypoAOffset: 0
OS2TypoDescent: -527
OS2TypoDOffset: 0
OS2TypoLinegap: 350
OS2WinAscent: 1884
OS2WinAOffset: 0
OS2WinDescent: 514
OS2WinDOffset: 0
HheadAscent: 1521
HheadAOffset: 0
HheadDescent: -527
HheadDOffset: 0
OS2SubXSize: 1433
OS2SubYSize: 1331
OS2SubXOff: 0
OS2SubYOff: 286
OS2SupXSize: 1433
OS2SupYSize: 1331
OS2SupXOff: 0
OS2SupYOff: 976
OS2StrikeYSize: 194
OS2StrikeYPos: 512
OS2CapHeight: 1307
OS2XHeight: 1016
OS2FamilyClass: 2057
OS2Vendor: 'MS  '
OS2CodePages: 6000019f.dfd70000
OS2UnicodeRanges: e10002ff.4000fcff.00000009.00000000
Lookup: 1 0 0 "'rtla' Right to Left Alternates in Greek lookup 0" { "'rtla' Right to Left Alternates in Greek lookup 0 subtable"  } ['rtla' ('DFLT' <'dflt' > 'grek' <'dflt' > ) ]
Lookup: 254 0 0 "<11,2> Diagonal Fractions lookup 1" { "<11,2> Diagonal Fractions lookup 1 subtable"  } [<11,2> ('DFLT' <'dflt' > ) ]
Lookup: 1 0 0 "<11,2> Diagonal Fractions lookup 1 nested-substitutions 0" { "<11,2> Diagonal Fractions lookup 1 nested-substitutions 0 subtable"  } []
Lookup: 254 0 0 "<11,2> Diagonal Fractions lookup 3" { "<11,2> Diagonal Fractions lookup 3 subtable"  } [<11,2> ('DFLT' <'dflt' > ) ]
Lookup: 1 0 0 "<11,2> Diagonal Fractions lookup 3 nested-substitutions 0" { "<11,2> Diagonal Fractions lookup 3 nested-substitutions 0 subtable"  } []

StartChar: .notdef
Encoding: 65536 -1 0
Width: 1126
Flags: W
LayerCount: 2
Fore
SplineSet
1039 10 m 1,0,-1
 1039 1297 l 1,1,-1
 88 1297 l 1,2,-1
 88 10 l 1,3,-1
 1039 10 l 1,0,-1
913 123 m 1,4,-1
 211 123 l 1,5,-1
 211 1184 l 1,6,-1
 913 1184 l 1,7,-1
 913 123 l 1,4,-1
794.5 737 m 128,-1,9
 813 781 813 781 813 834 c 128,-1,10
 813 887 813 887 789 937 c 128,-1,11
 765 987 765 987 714 1025.5 c 128,-1,12
 663 1064 663 1064 582.5 1088 c 128,-1,13
 502 1112 502 1112 389 1112 c 2,14,-1
 344 1112 l 1,15,-1
 344 981 l 1,16,-1
 391 981 l 2,17,18
 459 981 459 981 509 969 c 0,19,20
 610 944 610 944 641 883 c 0,21,22
 657 852 657 852 657 819 c 0,23,24
 657 769 657 769 621 733 c 128,-1,25
 585 697 585 697 508 697 c 2,26,-1
 395 697 l 1,27,-1
 407 459 l 1,28,-1
 525 459 l 1,29,-1
 531 592 l 1,30,-1
 541 592 l 2,31,32
 604 592 604 592 655 610.5 c 128,-1,33
 706 629 706 629 741 661 c 128,-1,8
 776 693 776 693 794.5 737 c 128,-1,9
565 285 m 128,-1,35
 565 305 565 305 557 323 c 0,36,37
 542 357 542 357 505 373 c 0,38,39
 487 381 487 381 467 381 c 128,-1,40
 447 381 447 381 429 373 c 128,-1,41
 411 365 411 365 397 352.5 c 128,-1,42
 383 340 383 340 375.5 322.5 c 128,-1,43
 368 305 368 305 368 285 c 128,-1,44
 368 265 368 265 375.5 248 c 128,-1,45
 383 231 383 231 397 218 c 128,-1,46
 411 205 411 205 429 197.5 c 128,-1,47
 447 190 447 190 467 190 c 128,-1,48
 487 190 487 190 504.5 197.5 c 128,-1,49
 522 205 522 205 536 218 c 128,-1,50
 550 231 550 231 557.5 248 c 128,-1,34
 565 265 565 265 565 285 c 128,-1,35
EndSplineSet
EndChar

StartChar: exclam
Encoding: 33 33 4
Width: 1126
Flags: W
LayerCount: 2
Fore
SplineSet
469 416 m 1,0,-1
 658 416 l 1,1,-1
 695 1403 l 1,2,-1
 432 1403 l 1,3,-1
 469 416 l 1,0,-1
563 279 m 128,-1,5
 533 279 533 279 506.5 268 c 128,-1,6
 480 257 480 257 460 237 c 128,-1,7
 440 217 440 217 429 190.5 c 128,-1,8
 418 164 418 164 418 133 c 128,-1,9
 418 102 418 102 429 75.5 c 128,-1,10
 440 49 440 49 460 29 c 128,-1,11
 480 9 480 9 506.5 -2 c 128,-1,12
 533 -13 533 -13 563 -13 c 128,-1,13
 593 -13 593 -13 619.5 -2 c 128,-1,14
 646 9 646 9 666 29 c 128,-1,15
 686 49 686 49 697.5 75.5 c 128,-1,16
 709 102 709 102 709 133 c 128,-1,17
 709 164 709 164 697.5 190.5 c 128,-1,18
 686 217 686 217 666 237 c 128,-1,19
 646 257 646 257 619.5 268 c 128,-1,4
 593 279 593 279 563 279 c 128,-1,5
EndSplineSet
EndChar

StartChar: quotedbl
Encoding: 34 34 5
Width: 1126
Flags: W
LayerCount: 2
Fore
SplineSet
269 925 m 1,0,-1
 448 925 l 1,1,-1
 478 1403 l 1,2,-1
 238 1403 l 1,3,-1
 269 925 l 1,0,-1
679 925 m 1,4,-1
 857 925 l 1,5,-1
 888 1403 l 1,6,-1
 648 1403 l 1,7,-1
 679 925 l 1,4,-1
EndSplineSet
EndChar

StartChar: numbersign
Encoding: 35 35 6
Width: 1126
Flags: W
LayerCount: 2
Fore
SplineSet
830 350 m 1,0,-1
 1020 350 l 1,1,-1
 1020 513 l 1,2,-1
 847 513 l 1,3,-1
 878 820 l 1,4,-1
 1073 820 l 1,5,-1
 1073 983 l 1,6,-1
 894 983 l 1,7,-1
 926 1297 l 1,8,-1
 750 1297 l 1,9,-1
 718 983 l 1,10,-1
 467 983 l 1,11,-1
 499 1297 l 1,12,-1
 323 1297 l 1,13,-1
 291 983 l 1,14,-1
 104 983 l 1,15,-1
 104 820 l 1,16,-1
 275 820 l 1,17,-1
 244 513 l 1,18,-1
 51 513 l 1,19,-1
 51 350 l 1,20,-1
 228 350 l 1,21,-1
 193 10 l 1,22,-1
 369 10 l 1,23,-1
 403 350 l 1,24,-1
 655 350 l 1,25,-1
 620 10 l 1,26,-1
 796 10 l 1,27,-1
 830 350 l 1,0,-1
420 513 m 1,28,-1
 451 820 l 1,29,-1
 702 820 l 1,30,-1
 671 513 l 1,31,-1
 420 513 l 1,28,-1
EndSplineSet
EndChar

StartChar: dollar
Encoding: 36 36 7
Width: 1126
Flags: W
LayerCount: 2
Fore
SplineSet
728 257 m 128,-1,1
 678 213 678 213 570 201 c 2,2,-1
 557 200 l 1,3,-1
 606 531 l 1,4,-1
 617 528 l 1,5,6
 700 501 700 501 739 463.5 c 128,-1,7
 778 426 778 426 778 363.5 c 128,-1,0
 778 301 778 301 728 257 c 128,-1,1
128 1069 m 128,-1,9
 102 1008 102 1008 102 940 c 0,10,11
 102 858 102 858 132 800.5 c 128,-1,12
 162 743 162 743 210.5 703 c 128,-1,13
 259 663 259 663 322 634.5 c 128,-1,14
 385 606 385 606 457 582 c 1,15,-1
 402 202 l 1,16,17
 316 211 316 211 240.5 230 c 128,-1,18
 165 249 165 249 100 269 c 1,19,-1
 100 57 l 1,20,21
 228 23 228 23 363 14 c 1,22,-1
 373 13 l 1,23,-1
 338 -238 l 1,24,-1
 493 -238 l 1,25,-1
 530 12 l 1,26,-1
 538 12 l 1,27,28
 643 18 643 18 731.5 44.5 c 128,-1,29
 820 71 820 71 884.5 119.5 c 128,-1,30
 949 168 949 168 985.5 238 c 128,-1,31
 1022 308 1022 308 1022 403 c 0,32,33
 1022 485 1022 485 989 542.5 c 128,-1,34
 956 600 956 600 903 641 c 128,-1,35
 850 682 850 682 783 710.5 c 128,-1,36
 716 739 716 739 642 765 c 1,37,-1
 691 1109 l 1,38,39
 810 1097 810 1097 924 1063 c 1,40,-1
 924 1256 l 1,41,42
 836 1276 836 1276 720 1287 c 1,43,-1
 750 1499 l 1,44,-1
 595 1499 l 1,45,-1
 564 1295 l 1,46,-1
 556 1295 l 1,47,48
 436 1289 436 1289 350 1257.5 c 128,-1,49
 264 1226 264 1226 209 1178 c 128,-1,8
 154 1130 154 1130 128 1069 c 128,-1,9
378.5 878.5 m 128,-1,51
 342 912 342 912 342 961 c 0,52,53
 342 1021 342 1021 383.5 1060.5 c 128,-1,54
 425 1100 425 1100 523 1110 c 2,55,-1
 536 1111 l 1,56,-1
 493 815 l 1,57,-1
 481 820 l 2,58,50
 415 845 415 845 378.5 878.5 c 128,-1,51
EndSplineSet
Substitution2: "<21,0> Lower Case Numbers lookup 7 subtable" dollar.oldstyle
EndChar

StartChar: percent
Encoding: 37 37 8
Width: 1126
Flags: W
LayerCount: 2
Fore
SplineSet
933 1403 m 1,0,-1
 19 10 l 1,1,-1
 194 10 l 1,2,-1
 1107 1403 l 1,3,-1
 933 1403 l 1,0,-1
549.5 1010 m 128,-1,5
 568 1065 568 1065 568 1130 c 0,6,7
 568 1276 568 1276 500 1349 c 128,-1,8
 432 1422 432 1422 309 1422 c 0,9,10
 246 1422 246 1422 196.5 1399.5 c 128,-1,11
 147 1377 147 1377 113 1337 c 128,-1,12
 79 1297 79 1297 61 1242 c 128,-1,13
 43 1187 43 1187 43 1122 c 0,14,15
 43 977 43 977 110.5 904 c 128,-1,16
 178 831 178 831 301 831 c 0,17,18
 364 831 364 831 413.5 853 c 128,-1,19
 463 875 463 875 497 915 c 128,-1,4
 531 955 531 955 549.5 1010 c 128,-1,5
305 1290 m 0,20,21
 410 1290 410 1290 410 1126 c 0,22,23
 410 1056 410 1056 390 1016 c 0,24,25
 364 963 364 963 305 963 c 0,26,27
 254 963 254 963 227.5 1004 c 128,-1,28
 201 1045 201 1045 201 1126 c 0,29,30
 201 1197 201 1197 221 1237 c 0,31,32
 247 1290 247 1290 305 1290 c 0,20,21
1065.5 171 m 128,-1,34
 1084 226 1084 226 1084 291 c 0,35,36
 1084 437 1084 437 1016 510 c 128,-1,37
 948 583 948 583 825 583 c 0,38,39
 762 583 762 583 712.5 560.5 c 128,-1,40
 663 538 663 538 629 498.5 c 128,-1,41
 595 459 595 459 577 404 c 128,-1,42
 559 349 559 349 559 283 c 0,43,44
 559 137 559 137 626.5 64.5 c 128,-1,45
 694 -8 694 -8 817 -8 c 0,46,47
 880 -8 880 -8 929.5 14 c 128,-1,48
 979 36 979 36 1013 76 c 128,-1,33
 1047 116 1047 116 1065.5 171 c 128,-1,34
821 451 m 0,49,50
 926 451 926 451 926 287 c 0,51,52
 926 217 926 217 906 177 c 0,53,54
 880 124 880 124 821 124 c 0,55,56
 770 124 770 124 743.5 164.5 c 128,-1,57
 717 205 717 205 717 287 c 0,58,59
 717 358 717 358 737 398 c 0,60,61
 763 451 763 451 821 451 c 0,49,50
EndSplineSet
EndChar

StartChar: ampersand
Encoding: 38 38 9
Width: 1126
Flags: W
LayerCount: 2
Fore
SplineSet
864 1098 m 0,0,1
 864 1159 864 1159 840.5 1213 c 128,-1,2
 817 1267 817 1267 771.5 1307 c 128,-1,3
 726 1347 726 1347 659.5 1371 c 128,-1,4
 593 1395 593 1395 505.5 1395 c 128,-1,5
 418 1395 418 1395 349 1366 c 128,-1,6
 280 1337 280 1337 233 1288.5 c 128,-1,7
 186 1240 186 1240 161.5 1177.5 c 128,-1,8
 137 1115 137 1115 137 1047.5 c 128,-1,9
 137 980 137 980 167 909 c 128,-1,10
 197 838 197 838 252 770 c 1,11,12
 252 770 252 770 278 734 c 1,13,14
 223 698 223 698 182 662 c 128,-1,15
 141 626 141 626 109.5 581 c 128,-1,16
 78 536 78 536 59.5 479 c 128,-1,17
 41 422 41 422 41 352 c 0,18,19
 41 269 41 269 69 201.5 c 128,-1,20
 97 134 97 134 151.5 86.5 c 128,-1,21
 206 39 206 39 285.5 13 c 128,-1,22
 365 -13 365 -13 462 -13 c 0,23,24
 654 -13 654 -13 789 94 c 1,25,-1
 796 100 l 1,26,-1
 871 10 l 1,27,-1
 1134 10 l 1,28,-1
 930 257 l 1,29,-1
 933 263 l 1,30,31
 1032 431 1032 431 1034 672 c 1,32,-1
 827 672 l 1,33,34
 827 662 827 662 827 652 c 0,35,36
 827 537 827 537 801 439 c 1,37,-1
 795 421 l 1,38,-1
 556 716 l 1,39,40
 623 754 623 754 677 788 c 128,-1,41
 731 822 731 822 772.5 865.5 c 128,-1,42
 814 909 814 909 839 965.5 c 128,-1,43
 864 1022 864 1022 864 1098 c 0,0,1
262 373 m 0,44,45
 262 450 262 450 293.5 503.5 c 128,-1,46
 325 557 325 557 377 600 c 2,47,-1
 384 606 l 1,48,-1
 684 239 l 1,49,-1
 677 232 l 1,50,51
 636 197 636 197 587 180.5 c 128,-1,52
 538 164 538 164 485.5 164 c 128,-1,53
 433 164 433 164 392.5 179 c 128,-1,54
 352 194 352 194 323 222 c 128,-1,55
 294 250 294 250 278 288.5 c 128,-1,56
 262 327 262 327 262 373 c 0,44,45
653 1077 m 0,57,58
 653 1037 653 1037 638 1004 c 0,59,60
 609 942 609 942 535 890 c 0,61,62
 500 867 500 867 453 838 c 1,63,-1
 447 851 l 1,64,65
 401 907 401 907 374.5 956.5 c 128,-1,66
 348 1006 348 1006 348 1063 c 0,67,68
 348 1096 348 1096 358 1125.5 c 128,-1,69
 368 1155 368 1155 388 1177.5 c 128,-1,70
 408 1200 408 1200 437 1213.5 c 128,-1,71
 466 1227 466 1227 502 1227 c 128,-1,72
 538 1227 538 1227 566 1214 c 128,-1,73
 594 1201 594 1201 613.5 1180 c 128,-1,74
 633 1159 633 1159 643 1132 c 128,-1,75
 653 1105 653 1105 653 1077 c 0,57,58
EndSplineSet
EndChar

StartChar: quotesingle
Encoding: 39 39 10
Width: 1126
Flags: W
LayerCount: 2
Fore
SplineSet
468 925 m 1,0,-1
 659 925 l 1,1,-1
 689 1403 l 1,2,-1
 437 1403 l 1,3,-1
 468 925 l 1,0,-1
EndSplineSet
EndChar

StartChar: parenleft
Encoding: 40 40 11
Width: 1126
Flags: W
LayerCount: 2
Fore
SplineSet
282 530 m 0,0,1
 282 260 282 260 401.5 28 c 128,-1,2
 521 -204 521 -204 757 -406 c 1,3,-1
 889 -272 l 1,4,5
 698 -101 698 -101 600 108.5 c 128,-1,6
 502 318 502 318 502 545.5 c 128,-1,7
 502 773 502 773 600 976 c 128,-1,8
 698 1179 698 1179 888 1352 c 1,9,-1
 763 1477 l 1,10,11
 660 1389 660 1389 571.5 1287 c 128,-1,12
 483 1185 483 1185 418 1067 c 128,-1,13
 353 949 353 949 317.5 815 c 128,-1,14
 282 681 282 681 282 530 c 0,0,1
EndSplineSet
Substitution2: "<10,2> Inferiors lookup 6 subtable" uni208D
Substitution2: "<10,1> Superiors in Latin lookup 5 subtable" uni207D
Substitution2: "'rtla' Right to Left Alternates in Greek lookup 0 subtable" parenright
EndChar

StartChar: parenright
Encoding: 41 41 12
Width: 1126
Flags: W
LayerCount: 2
Fore
SplineSet
848 541 m 0,0,1
 848 812 848 812 730 1044.5 c 128,-1,2
 612 1277 612 1277 374 1477 c 1,3,-1
 244 1346 l 1,4,5
 435 1174 435 1174 533 964 c 128,-1,6
 631 754 631 754 631 527 c 128,-1,7
 631 300 631 300 533 96 c 128,-1,8
 435 -108 435 -108 244 -281 c 1,9,-1
 370 -406 l 1,10,11
 473 -319 473 -319 561 -217 c 128,-1,12
 649 -115 649 -115 713 4 c 128,-1,13
 777 123 777 123 812.5 256.5 c 128,-1,14
 848 390 848 390 848 541 c 0,0,1
EndSplineSet
Substitution2: "<10,2> Inferiors lookup 6 subtable" uni208E
Substitution2: "<10,1> Superiors in Latin lookup 5 subtable" uni207E
Substitution2: "'rtla' Right to Left Alternates in Greek lookup 0 subtable" parenleft
EndChar

StartChar: asterisk
Encoding: 42 42 13
Width: 1126
Flags: W
LayerCount: 2
Fore
SplineSet
470 559 m 1,0,-1
 657 559 l 1,1,-1
 627 879 l 1,2,-1
 888 693 l 1,3,-1
 977 847 l 1,4,-1
 687 981 l 1,5,-1
 977 1115 l 1,6,-1
 888 1269 l 1,7,-1
 627 1083 l 1,8,-1
 657 1403 l 1,9,-1
 470 1403 l 1,10,-1
 499 1083 l 1,11,-1
 239 1269 l 1,12,-1
 149 1114 l 1,13,-1
 440 981 l 1,14,-1
 149 848 l 1,15,-1
 239 693 l 1,16,-1
 499 879 l 1,17,-1
 470 559 l 1,0,-1
EndSplineSet
EndChar

StartChar: plus
Encoding: 43 43 14
Width: 1126
Flags: W
LayerCount: 2
Fore
SplineSet
666 454 m 1,0,-1
 1039 454 l 1,1,-1
 1039 635 l 1,2,-1
 666 635 l 1,3,-1
 666 1022 l 1,4,-1
 461 1022 l 1,5,-1
 461 635 l 1,6,-1
 88 635 l 1,7,-1
 88 454 l 1,8,-1
 461 454 l 1,9,-1
 461 65 l 1,10,-1
 666 65 l 1,11,-1
 666 454 l 1,0,-1
EndSplineSet
Substitution2: "<10,2> Inferiors lookup 6 subtable" uni208A
Substitution2: "<10,1> Superiors in Latin lookup 5 subtable" uni207A
EndChar

StartChar: comma
Encoding: 44 44 15
Width: 1126
Flags: W
LayerCount: 2
Fore
SplineSet
744 98 m 0,0,1
 744 151 744 151 730.5 199 c 128,-1,2
 717 247 717 247 691 283.5 c 128,-1,3
 665 320 665 320 628 341.5 c 128,-1,4
 591 363 591 363 545 363 c 0,5,6
 508 363 508 363 479.5 350 c 128,-1,7
 451 337 451 337 431.5 315.5 c 128,-1,8
 412 294 412 294 401.5 266 c 128,-1,9
 391 238 391 238 391 208.5 c 128,-1,10
 391 179 391 179 399 158 c 128,-1,11
 407 137 407 137 419.5 120 c 128,-1,12
 432 103 432 103 446.5 88 c 128,-1,13
 461 73 461 73 474.5 55.5 c 128,-1,14
 488 38 488 38 497 16 c 128,-1,15
 506 -6 506 -6 506 -37 c 0,16,17
 506 -81 506 -81 482 -114 c 0,18,19
 436 -177 436 -177 325 -196 c 0,20,21
 281 -203 281 -203 233 -203 c 0,22,23
 227 -203 227 -203 221 -203 c 1,24,-1
 221 -342 l 1,25,26
 349 -341 349 -341 447 -306.5 c 128,-1,27
 545 -272 545 -272 611.5 -212.5 c 128,-1,28
 678 -153 678 -153 711 -73 c 128,-1,29
 744 7 744 7 744 98 c 0,0,1
EndSplineSet
EndChar

StartChar: hyphen
Encoding: 45 45 16
AltUni2: 002010.ffffffff.0 0000ad.ffffffff.0
Width: 1126
Flags: W
LayerCount: 2
Fore
SplineSet
864 643 m 1,0,-1
 262 643 l 1,1,-1
 262 446 l 1,2,-1
 864 446 l 1,3,-1
 864 643 l 1,0,-1
EndSplineSet
EndChar

StartChar: period
Encoding: 46 46 17
Width: 1126
Flags: W
LayerCount: 2
Fore
SplineSet
631 344.5 m 128,-1,1
 597 359 597 359 558 359 c 128,-1,2
 519 359 519 359 486 344.5 c 128,-1,3
 453 330 453 330 428 304.5 c 128,-1,4
 403 279 403 279 389 245 c 128,-1,5
 375 211 375 211 375 172.5 c 128,-1,6
 375 134 375 134 389 100.5 c 128,-1,7
 403 67 403 67 428 41.5 c 128,-1,8
 453 16 453 16 486 1.5 c 128,-1,9
 519 -13 519 -13 558 -13 c 128,-1,10
 597 -13 597 -13 631 1.5 c 128,-1,11
 665 16 665 16 690.5 41.5 c 128,-1,12
 716 67 716 67 730 100.5 c 128,-1,13
 744 134 744 134 744 172.5 c 128,-1,14
 744 211 744 211 730 245 c 128,-1,15
 716 279 716 279 690.5 304.5 c 128,-1,0
 665 330 665 330 631 344.5 c 128,-1,1
EndSplineSet
EndChar

StartChar: slash
Encoding: 47 47 18
Width: 1126
Flags: W
LayerCount: 2
Fore
SplineSet
87 -205 m 1,0,-1
 302 -205 l 1,1,-1
 993 1403 l 1,2,-1
 777 1403 l 1,3,-1
 87 -205 l 1,0,-1
EndSplineSet
Substitution2: "<11,2> Diagonal Fractions lookup 1 nested-substitutions 0 subtable" fraction
EndChar

StartChar: zero
Encoding: 48 48 19
Width: 1126
Flags: W
LayerCount: 2
Fore
SplineSet
1028.5 374 m 128,-1,1
 1063 499 1063 499 1063 659 c 0,2,3
 1063 836 1063 836 1026.5 961 c 128,-1,4
 990 1086 990 1086 926 1165.5 c 128,-1,5
 862 1245 862 1245 773 1282 c 128,-1,6
 684 1319 684 1319 578 1319 c 0,7,8
 456 1319 456 1319 360 1274 c 0,9,10
 168 1184 168 1184 98 932 c 0,11,12
 63 807 63 807 63 647 c 0,13,14
 63 471 63 471 99.5 346 c 128,-1,15
 136 221 136 221 200.5 141 c 128,-1,16
 265 61 265 61 354 24 c 128,-1,17
 443 -13 443 -13 549 -13 c 0,18,19
 672 -13 672 -13 767 32 c 128,-1,20
 862 77 862 77 928 163 c 128,-1,0
 994 249 994 249 1028.5 374 c 128,-1,1
289 618 m 2,21,-1
 289 655 l 2,22,23
 289 778 289 778 310 868.5 c 128,-1,24
 331 959 331 959 367.5 1019.5 c 128,-1,25
 404 1080 404 1080 454 1110 c 128,-1,26
 504 1140 504 1140 563 1140 c 0,27,28
 645 1140 645 1140 705 1090.5 c 128,-1,29
 765 1041 765 1041 800 939 c 1,30,-1
 803 932 l 1,31,-1
 293 564 l 1,32,33
 289 599 289 599 289 618 c 2,21,-1
836 685.5 m 128,-1,35
 837 668 837 668 837 651 c 0,36,37
 837 529 837 529 816.5 438 c 128,-1,38
 796 347 796 347 759.5 287 c 128,-1,39
 723 227 723 227 672.5 196.5 c 128,-1,40
 622 166 622 166 563 166 c 0,41,42
 482 166 482 166 421.5 215 c 128,-1,43
 361 264 361 264 329 364 c 1,44,-1
 326 371 l 1,45,-1
 835 739 l 1,46,-1
 835 719 l 2,47,34
 835 703 835 703 836 685.5 c 128,-1,35
EndSplineSet
Substitution2: "<21,0> Lower Case Numbers lookup 7 subtable" zero.oldstyle
Substitution2: "<10,2> Inferiors lookup 6 subtable" uni2080
EndChar

StartChar: one
Encoding: 49 49 20
Width: 1126
Flags: W
LayerCount: 2
Fore
SplineSet
495 207 m 1,0,-1
 162 207 l 1,1,-1
 162 10 l 1,2,-1
 1012 10 l 1,3,-1
 1012 207 l 1,4,-1
 725 207 l 1,5,-1
 725 1305 l 1,6,-1
 532 1305 l 1,7,-1
 128 1091 l 1,8,-1
 200 911 l 1,9,-1
 495 1074 l 1,10,-1
 495 207 l 1,0,-1
EndSplineSet
Substitution2: "<21,0> Lower Case Numbers lookup 7 subtable" one.oldstyle
Substitution2: "<10,2> Inferiors lookup 6 subtable" uni2081
EndChar

StartChar: two
Encoding: 50 50 21
Width: 1126
Flags: W
LayerCount: 2
Fore
SplineSet
139 10 m 1,0,-1
 1006 10 l 1,1,-1
 1006 215 l 1,2,-1
 440 215 l 1,3,-1
 648 413 l 2,4,5
 723 484 723 484 781 547.5 c 128,-1,6
 839 611 839 611 878.5 674 c 128,-1,7
 918 737 918 737 938.5 803.5 c 128,-1,8
 959 870 959 870 959 946 c 0,9,10
 959 1038 959 1038 929 1108 c 0,11,12
 871 1246 871 1246 716 1295 c 0,13,14
 639 1319 639 1319 545 1319 c 0,15,16
 423 1319 423 1319 320.5 1273 c 128,-1,17
 218 1227 218 1227 137 1154 c 1,18,-1
 253 1004 l 1,19,20
 310 1056 310 1056 375.5 1089 c 128,-1,21
 441 1122 441 1122 520 1122 c 0,22,23
 567 1122 567 1122 604 1107 c 0,24,25
 676 1077 676 1077 702 1004 c 0,26,27
 715 969 715 969 715 926.5 c 128,-1,28
 715 884 715 884 705.5 840.5 c 128,-1,29
 696 797 696 797 667 746.5 c 128,-1,30
 638 696 638 696 585 632.5 c 128,-1,31
 532 569 532 569 445 482 c 2,32,-1
 139 176 l 1,33,-1
 139 10 l 1,0,-1
EndSplineSet
Substitution2: "<21,0> Lower Case Numbers lookup 7 subtable" two.oldstyle
Substitution2: "<10,2> Inferiors lookup 6 subtable" uni2082
EndChar

StartChar: three
Encoding: 51 51 22
Width: 1126
Flags: W
LayerCount: 2
Fore
SplineSet
589 189 m 0,0,1
 528 175 528 175 444 175 c 0,2,3
 288 175 288 175 149 200 c 1,4,-1
 149 8 l 1,5,6
 221 -3 221 -3 349 -9 c 0,7,8
 386 -10 386 -10 420 -10 c 0,9,10
 572 -10 572 -10 683.5 18.5 c 128,-1,11
 795 47 795 47 867 100 c 0,12,13
 1010 205 1010 205 1010 399 c 0,14,15
 1010 515 1010 515 937 592 c 0,16,17
 866 666 866 666 741 686 c 2,18,-1
 705 692 l 1,19,-1
 739 705 l 2,20,21
 835 743 835 743 887.5 814 c 128,-1,22
 940 885 940 885 940 1001 c 0,23,24
 940 1074 940 1074 913 1133 c 0,25,26
 859 1251 859 1251 699 1296 c 0,27,28
 619 1319 619 1319 512 1319 c 0,29,30
 419 1319 419 1319 344 1306 c 0,31,32
 261 1292 261 1292 184 1267 c 1,33,-1
 184 1082 l 1,34,35
 259 1105 259 1105 332.5 1119.5 c 128,-1,36
 406 1134 406 1134 485 1134 c 0,37,38
 597 1134 597 1134 652.5 1090 c 128,-1,39
 708 1046 708 1046 708 961 c 0,40,41
 708 920 708 920 694 883 c 0,42,43
 666 805 666 805 562 774 c 0,44,45
 509 758 509 758 430 758 c 2,46,-1
 307 758 l 1,47,-1
 307 592 l 1,48,-1
 442 592 l 2,49,50
 606 592 606 592 690 539 c 0,51,52
 732 513 732 513 752 476 c 128,-1,53
 772 439 772 439 772 390.5 c 128,-1,54
 772 342 772 342 752 301 c 0,55,56
 713 218 713 218 589 189 c 0,0,1
EndSplineSet
Substitution2: "<21,0> Lower Case Numbers lookup 7 subtable" three.oldstyle
Substitution2: "<10,2> Inferiors lookup 6 subtable" uni2083
EndChar

StartChar: four
Encoding: 52 52 23
Width: 1126
Flags: W
LayerCount: 2
Fore
SplineSet
875 10 m 1,0,-1
 875 276 l 1,1,-1
 1073 276 l 1,2,-1
 1073 471 l 1,3,-1
 875 471 l 1,4,-1
 875 1297 l 1,5,-1
 555 1297 l 1,6,-1
 49 472 l 1,7,-1
 49 276 l 1,8,-1
 657 276 l 1,9,-1
 657 10 l 1,10,-1
 875 10 l 1,0,-1
260 471 m 1,11,-1
 660 1106 l 1,12,-1
 660 471 l 1,13,-1
 260 471 l 1,11,-1
EndSplineSet
Substitution2: "<21,0> Lower Case Numbers lookup 7 subtable" four.oldstyle
Substitution2: "<10,2> Inferiors lookup 6 subtable" uni2084
EndChar

StartChar: five
Encoding: 53 53 24
Width: 1126
Flags: W
LayerCount: 2
Fore
SplineSet
953 236.5 m 128,-1,1
 996 316 996 316 996 418 c 0,2,3
 996 531 996 531 955.5 605 c 128,-1,4
 915 679 915 679 847.5 722.5 c 128,-1,5
 780 766 780 766 690.5 783.5 c 128,-1,6
 601 801 601 801 502 801 c 2,7,-1
 398 801 l 1,8,-1
 398 1087 l 1,9,-1
 924 1087 l 1,10,-1
 924 1297 l 1,11,-1
 190 1297 l 1,12,-1
 190 622 l 1,13,-1
 436 622 l 2,14,15
 602 622 602 622 678.5 568 c 128,-1,16
 755 514 755 514 755 403 c 0,17,18
 755 296 755 296 673 236 c 128,-1,19
 591 176 591 176 438 176 c 0,20,21
 360 176 360 176 289.5 184 c 128,-1,22
 219 192 219 192 166 204 c 1,23,-1
 166 12 l 1,24,25
 229 2 229 2 277 -2 c 0,26,27
 373 -10 373 -10 426 -10 c 0,28,29
 549 -10 549 -10 653.5 18.5 c 128,-1,30
 758 47 758 47 834 102 c 128,-1,0
 910 157 910 157 953 236.5 c 128,-1,1
EndSplineSet
Substitution2: "<21,0> Lower Case Numbers lookup 7 subtable" five.oldstyle
Substitution2: "<10,2> Inferiors lookup 6 subtable" uni2085
EndChar

StartChar: six
Encoding: 54 54 25
Width: 1126
Flags: W
LayerCount: 2
Fore
SplineSet
907 104 m 128,-1,1
 969 160 969 160 1004 238.5 c 128,-1,2
 1039 317 1039 317 1039 411.5 c 128,-1,3
 1039 506 1039 506 1013 578 c 128,-1,4
 987 650 987 650 935.5 700.5 c 128,-1,5
 884 751 884 751 805.5 778 c 128,-1,6
 727 805 727 805 623 805 c 0,7,8
 551 805 551 805 485.5 789.5 c 128,-1,9
 420 774 420 774 369 749 c 2,10,-1
 354 741 l 1,11,-1
 357 783 l 2,12,13
 364 858 364 858 388 919 c 128,-1,14
 412 980 412 980 459.5 1022.5 c 128,-1,15
 507 1065 507 1065 582 1087.5 c 128,-1,16
 657 1110 657 1110 766 1110 c 2,17,-1
 930 1110 l 1,18,-1
 930 1297 l 1,19,-1
 791 1297 l 2,20,21
 653 1297 653 1297 550 1272 c 0,22,23
 346 1222 346 1222 244 1090 c 0,24,25
 194 1024 194 1024 164 943 c 128,-1,26
 134 862 134 862 121 765 c 128,-1,27
 108 668 108 668 108 561 c 0,28,29
 108 269 108 269 226.5 128 c 128,-1,30
 345 -13 345 -13 569 -13 c 0,31,32
 672 -13 672 -13 758.5 17.5 c 128,-1,0
 845 48 845 48 907 104 c 128,-1,1
584.5 622 m 128,-1,34
 643 622 643 622 684 606 c 0,35,36
 805 558 805 558 805 401 c 0,37,38
 805 352 805 352 789.5 310 c 128,-1,39
 774 268 774 268 745 237 c 128,-1,40
 716 206 716 206 675 189 c 128,-1,41
 634 172 634 172 580 172 c 128,-1,42
 526 172 526 172 481 193 c 0,43,44
 391 234 391 234 362 377 c 0,45,46
 348 447 348 447 348 549 c 2,47,-1
 348 555 l 1,48,49
 397 583 397 583 459 602 c 0,50,33
 526 622 526 622 584.5 622 c 128,-1,34
EndSplineSet
Substitution2: "<21,0> Lower Case Numbers lookup 7 subtable" six.oldstyle
Substitution2: "<10,2> Inferiors lookup 6 subtable" uni2086
EndChar

StartChar: seven
Encoding: 55 55 26
Width: 1126
Flags: W
LayerCount: 2
Fore
SplineSet
1004 1096 m 1,0,-1
 1004 1297 l 1,1,-1
 116 1297 l 1,2,-1
 116 1081 l 1,3,-1
 749 1081 l 1,4,-1
 229 10 l 1,5,-1
 483 10 l 1,6,-1
 1004 1096 l 1,0,-1
EndSplineSet
Substitution2: "<21,0> Lower Case Numbers lookup 7 subtable" seven.oldstyle
Substitution2: "<10,2> Inferiors lookup 6 subtable" uni2087
EndChar

StartChar: eight
Encoding: 56 56 27
Width: 1126
Flags: W
LayerCount: 2
Fore
SplineSet
926 831.5 m 128,-1,1
 954 871 954 871 970.5 919.5 c 128,-1,2
 987 968 987 968 987 1030.5 c 128,-1,3
 987 1093 987 1093 959.5 1146 c 128,-1,4
 932 1199 932 1199 879.5 1238 c 128,-1,5
 827 1277 827 1277 748.5 1298 c 128,-1,6
 670 1319 670 1319 565 1319 c 128,-1,7
 460 1319 460 1319 379 1292.5 c 128,-1,8
 298 1266 298 1266 245 1220.5 c 128,-1,9
 192 1175 192 1175 165.5 1114.5 c 128,-1,10
 139 1054 139 1054 139 985 c 0,11,12
 139 926 139 926 156 879 c 0,13,14
 188 791 188 791 270 727 c 0,15,16
 309 696 309 696 353 671 c 2,17,-1
 368 662 l 1,18,-1
 353 653 l 2,19,20
 304 625 304 625 260 591.5 c 128,-1,21
 216 558 216 558 183 516 c 128,-1,22
 150 474 150 474 131 423 c 128,-1,23
 112 372 112 372 112 303 c 128,-1,24
 112 234 112 234 140.5 175.5 c 128,-1,25
 169 117 169 117 224.5 75 c 128,-1,26
 280 33 280 33 363 10 c 128,-1,27
 446 -13 446 -13 550 -13 c 0,28,29
 758 -13 758 -13 883 77 c 0,30,31
 944 122 944 122 979 187.5 c 128,-1,32
 1014 253 1014 253 1014 340 c 0,33,34
 1014 406 1014 406 995 458 c 0,35,36
 959 558 959 558 868 624 c 0,37,38
 824 657 824 657 775 683 c 2,39,-1
 760 691 l 1,40,-1
 775 700 l 2,41,42
 819 728 819 728 858.5 760 c 128,-1,0
 898 792 898 792 926 831.5 c 128,-1,1
375 928 m 0,43,44
 357 960 357 960 357 1001 c 0,45,46
 357 1076 357 1076 411.5 1113.5 c 128,-1,47
 466 1151 466 1151 564 1151 c 128,-1,48
 662 1151 662 1151 716.5 1114.5 c 128,-1,49
 771 1078 771 1078 771 1008 c 0,50,51
 771 967 771 967 756 933 c 0,52,53
 728 868 728 868 661 820 c 0,54,55
 629 798 629 798 588 775 c 1,56,57
 537 799 537 799 496 821 c 0,58,59
 409 869 409 869 375 928 c 0,43,44
458 528 m 0,60,61
 493 553 493 553 537 576 c 1,62,63
 591 550 591 550 635.5 524.5 c 128,-1,64
 680 499 680 499 714 470 c 128,-1,65
 748 441 748 441 768 406 c 128,-1,66
 788 371 788 371 788 326.5 c 128,-1,67
 788 282 788 282 769.5 250.5 c 128,-1,68
 751 219 751 219 720 199 c 0,69,70
 660 160 660 160 561.5 160 c 128,-1,71
 463 160 463 160 400.5 202.5 c 128,-1,72
 338 245 338 245 338 326 c 0,73,74
 338 371 338 371 354 407 c 0,75,76
 384 477 384 477 458 528 c 0,60,61
EndSplineSet
Substitution2: "<21,0> Lower Case Numbers lookup 7 subtable" eight.oldstyle
Substitution2: "<10,2> Inferiors lookup 6 subtable" uni2088
EndChar

StartChar: nine
Encoding: 57 57 28
Width: 1126
Flags: W
LayerCount: 2
Fore
SplineSet
986 465 m 0,0,1
 1012 578 1012 578 1012 731 c 0,2,3
 1012 900 1012 900 977 1013.5 c 128,-1,4
 942 1127 942 1127 880 1194.5 c 128,-1,5
 818 1262 818 1262 733.5 1290.5 c 128,-1,6
 649 1319 649 1319 548 1319 c 128,-1,7
 447 1319 447 1319 361 1288 c 128,-1,8
 275 1257 275 1257 213 1201.5 c 128,-1,9
 151 1146 151 1146 116.5 1067.5 c 128,-1,10
 82 989 82 989 82 893 c 0,11,12
 82 787 82 787 112 712 c 0,13,14
 171 568 171 568 328 524 c 0,15,16
 404 502 404 502 498 502 c 0,17,18
 566 502 566 502 633 517.5 c 128,-1,19
 700 533 700 533 752 558 c 2,20,-1
 767 565 l 1,21,-1
 764 523 l 2,22,23
 756 445 756 445 731.5 384 c 128,-1,24
 707 323 707 323 657 282 c 128,-1,25
 607 241 607 241 526.5 220 c 128,-1,26
 446 199 446 199 328 199 c 2,27,-1
 160 199 l 1,28,-1
 160 10 l 1,29,-1
 301 10 l 2,30,31
 398 10 398 10 489 21 c 0,32,33
 678 44 678 44 803 142 c 0,34,35
 937 248 937 248 986 465 c 0,0,1
446 1117 m 128,-1,37
 487 1134 487 1134 537 1134 c 0,38,39
 603 1134 603 1134 648 1109 c 0,40,41
 736 1059 736 1059 760 917 c 0,42,43
 772 848 772 848 772 758 c 2,44,-1
 772 752 l 1,45,46
 724 723 724 723 658.5 703.5 c 128,-1,47
 593 684 593 684 537 684 c 0,48,49
 434 684 434 684 375 738.5 c 128,-1,50
 316 793 316 793 316 903 c 0,51,52
 316 955 316 955 331.5 997 c 128,-1,53
 347 1039 347 1039 376 1069.5 c 128,-1,36
 405 1100 405 1100 446 1117 c 128,-1,37
EndSplineSet
Substitution2: "<21,0> Lower Case Numbers lookup 7 subtable" nine.oldstyle
Substitution2: "<10,2> Inferiors lookup 6 subtable" uni2089
EndChar

StartChar: colon
Encoding: 58 58 29
Width: 1126
Flags: W
LayerCount: 2
Fore
SplineSet
563 1016 m 128,-1,1
 527 1016 527 1016 496.5 1003 c 128,-1,2
 466 990 466 990 442.5 966.5 c 128,-1,3
 419 943 419 943 406 912 c 128,-1,4
 393 881 393 881 393 845.5 c 128,-1,5
 393 810 393 810 406 779 c 128,-1,6
 419 748 419 748 442.5 725 c 128,-1,7
 466 702 466 702 496.5 689 c 128,-1,8
 527 676 527 676 563 676 c 128,-1,9
 599 676 599 676 630 689 c 128,-1,10
 661 702 661 702 684 725 c 128,-1,11
 707 748 707 748 720 779 c 128,-1,12
 733 810 733 810 733 845.5 c 128,-1,13
 733 881 733 881 720 912 c 128,-1,14
 707 943 707 943 684 966.5 c 128,-1,15
 661 990 661 990 630 1003 c 128,-1,0
 599 1016 599 1016 563 1016 c 128,-1,1
563 327 m 128,-1,17
 527 327 527 327 496.5 314 c 128,-1,18
 466 301 466 301 442.5 278 c 128,-1,19
 419 255 419 255 406 224 c 128,-1,20
 393 193 393 193 393 157.5 c 128,-1,21
 393 122 393 122 406 91 c 128,-1,22
 419 60 419 60 442.5 36.5 c 128,-1,23
 466 13 466 13 496.5 0 c 128,-1,24
 527 -13 527 -13 563 -13 c 128,-1,25
 599 -13 599 -13 630 0 c 128,-1,26
 661 13 661 13 684 36.5 c 128,-1,27
 707 60 707 60 720 91 c 128,-1,28
 733 122 733 122 733 157.5 c 128,-1,29
 733 193 733 193 720 224 c 128,-1,30
 707 255 707 255 684 278 c 128,-1,31
 661 301 661 301 630 314 c 128,-1,16
 599 327 599 327 563 327 c 128,-1,17
EndSplineSet
EndChar

StartChar: semicolon
Encoding: 59 59 30
Width: 1126
Flags: W
LayerCount: 2
Fore
SplineSet
756 98 m 0,0,1
 756 151 756 151 742.5 199 c 128,-1,2
 729 247 729 247 703 283.5 c 128,-1,3
 677 320 677 320 640 341.5 c 128,-1,4
 603 363 603 363 557 363 c 0,5,6
 520 363 520 363 491.5 350 c 128,-1,7
 463 337 463 337 443.5 315.5 c 128,-1,8
 424 294 424 294 413.5 266 c 128,-1,9
 403 238 403 238 403 208.5 c 128,-1,10
 403 179 403 179 411 158 c 128,-1,11
 419 137 419 137 431.5 120 c 128,-1,12
 444 103 444 103 458.5 88 c 128,-1,13
 473 73 473 73 486.5 55.5 c 128,-1,14
 500 38 500 38 509 16 c 128,-1,15
 518 -6 518 -6 518 -37 c 0,16,17
 518 -81 518 -81 494 -114 c 0,18,19
 448 -177 448 -177 337 -196 c 0,20,21
 293 -203 293 -203 245 -203 c 0,22,23
 239 -203 239 -203 233 -203 c 1,24,-1
 233 -342 l 1,25,26
 361 -341 361 -341 459.5 -306.5 c 128,-1,27
 558 -272 558 -272 624 -212.5 c 128,-1,28
 690 -153 690 -153 723 -73 c 128,-1,29
 756 7 756 7 756 98 c 0,0,1
563 1016 m 128,-1,31
 527 1016 527 1016 496.5 1003 c 128,-1,32
 466 990 466 990 442.5 966.5 c 128,-1,33
 419 943 419 943 406 912 c 128,-1,34
 393 881 393 881 393 845.5 c 128,-1,35
 393 810 393 810 406 779 c 128,-1,36
 419 748 419 748 442.5 725 c 128,-1,37
 466 702 466 702 496.5 689 c 128,-1,38
 527 676 527 676 563 676 c 128,-1,39
 599 676 599 676 630 689 c 128,-1,40
 661 702 661 702 684 725 c 128,-1,41
 707 748 707 748 720 779 c 128,-1,42
 733 810 733 810 733 845.5 c 128,-1,43
 733 881 733 881 720 912 c 128,-1,44
 707 943 707 943 684 966.5 c 128,-1,45
 661 990 661 990 630 1003 c 128,-1,30
 599 1016 599 1016 563 1016 c 128,-1,31
EndSplineSet
EndChar

StartChar: less
Encoding: 60 60 31
Width: 1126
Flags: W
LayerCount: 2
Fore
SplineSet
360 539 m 1,0,-1
 360 555 l 1,1,-1
 360 558 l 1,2,-1
 972 889 l 1,3,-1
 972 1116 l 1,4,-1
 144 661 l 1,5,-1
 144 433 l 1,6,-1
 972 -22 l 1,7,-1
 972 205 l 1,8,-1
 360 536 l 1,9,-1
 360 539 l 1,0,-1
EndSplineSet
Substitution2: "'rtla' Right to Left Alternates in Greek lookup 0 subtable" greater
EndChar

StartChar: equal
Encoding: 61 61 32
Width: 1126
Flags: W
LayerCount: 2
Fore
SplineSet
143 830 m 1,0,-1
 143 656 l 1,1,-1
 983 656 l 1,2,-1
 983 830 l 1,3,-1
 143 830 l 1,0,-1
143 436 m 1,4,-1
 143 262 l 1,5,-1
 983 262 l 1,6,-1
 983 436 l 1,7,-1
 143 436 l 1,4,-1
EndSplineSet
Substitution2: "<10,2> Inferiors lookup 6 subtable" uni208C
Substitution2: "<10,1> Superiors in Latin lookup 5 subtable" uni207C
EndChar

StartChar: greater
Encoding: 62 62 33
Width: 1126
Flags: W
LayerCount: 2
Fore
SplineSet
765 539 m 1,0,-1
 765 555 l 1,1,-1
 765 558 l 1,2,-1
 153 889 l 1,3,-1
 153 1116 l 1,4,-1
 981 661 l 1,5,-1
 981 433 l 1,6,-1
 153 -22 l 1,7,-1
 153 205 l 1,8,-1
 765 536 l 1,9,-1
 765 539 l 1,0,-1
EndSplineSet
Substitution2: "'rtla' Right to Left Alternates in Greek lookup 0 subtable" less
EndChar

StartChar: question
Encoding: 63 63 34
Width: 1126
Flags: W
LayerCount: 2
Fore
SplineSet
444 471 m 1,0,-1
 672 471 l 1,1,-1
 672 626 l 1,2,3
 745 638 745 638 809 669 c 128,-1,4
 873 700 873 700 922 749 c 128,-1,5
 971 798 971 798 1000 864.5 c 128,-1,6
 1029 931 1029 931 1029 1015 c 0,7,8
 1029 1102 1029 1102 997 1172 c 0,9,10
 932 1316 932 1316 769 1372 c 0,11,12
 688 1400 688 1400 589 1400 c 128,-1,13
 490 1400 490 1400 416 1374 c 128,-1,14
 342 1348 342 1348 289 1305 c 128,-1,15
 236 1262 236 1262 201 1206 c 0,16,17
 168 1152 168 1152 150 1094 c 1,18,-1
 352 1012 l 1,19,20
 374 1092 374 1092 430 1143 c 0,21,22
 488 1196 488 1196 581 1196 c 0,23,24
 665 1196 665 1196 719 1153 c 256,25,26
 773 1110 773 1110 773 1019 c 2,27,-1
 773 992 l 2,28,29
 773 872 773 872 682 819 c 0,30,31
 594 768 594 768 444 761 c 1,32,-1
 444 471 l 1,0,-1
563.5 5 m 128,-1,34
 659 5 659 5 697.5 44 c 128,-1,35
 736 83 736 83 736 140 c 2,36,-1
 736 195 l 2,37,38
 736 251 736 251 697.5 290.5 c 128,-1,39
 659 330 659 330 563.5 330 c 128,-1,40
 468 330 468 330 429.5 290.5 c 128,-1,41
 391 251 391 251 391 195 c 2,42,-1
 391 140 l 2,43,44
 391 83 391 83 429.5 44 c 128,-1,33
 468 5 468 5 563.5 5 c 128,-1,34
EndSplineSet
EndChar

StartChar: at
Encoding: 64 64 35
Width: 1126
Flags: W
LayerCount: 2
Fore
SplineSet
394.5 -214.5 m 128,-1,1
 331 -175 331 -175 286 -98 c 0,2,3
 195 59 195 59 195 354 c 0,4,5
 195 479 195 479 211 594 c 0,6,7
 243 826 243 826 324 996 c 0,8,9
 364 1080 364 1080 413.5 1141 c 128,-1,10
 463 1202 463 1202 520 1236 c 128,-1,11
 577 1270 577 1270 639 1270 c 0,12,13
 794 1270 794 1270 866 1118 c 0,14,15
 901 1045 901 1045 916.5 937.5 c 128,-1,16
 932 830 932 830 932 690 c 0,17,18
 932 460 932 460 904 344 c 0,19,20
 889 278 889 278 870 249.5 c 128,-1,21
 851 221 851 221 829 221 c 0,22,23
 809 221 809 221 799 238 c 0,24,25
 791 252 791 252 791 295 c 0,26,27
 791 355 791 355 797 411 c 2,28,-1
 849 943 l 1,29,-1
 710 914 l 1,30,31
 688 923 688 923 656.5 930.5 c 128,-1,32
 625 938 625 938 592 938 c 0,33,34
 529 938 529 938 483 915 c 0,35,36
 393 869 393 869 348 755 c 0,37,38
 306 647 306 647 296 507 c 0,39,40
 291 441 291 441 291 377 c 0,41,42
 291 209 291 209 342 129 c 0,43,44
 366 92 366 92 399 74.5 c 128,-1,45
 432 57 432 57 475 57 c 0,46,47
 528 57 528 57 571 85 c 128,-1,48
 614 113 614 113 642 167 c 2,49,-1
 654 189 l 1,50,-1
 661 165 l 2,51,52
 691 57 691 57 801 57 c 0,53,54
 878 57 878 57 935 93 c 0,55,56
 1049 167 1049 167 1086 410 c 0,57,58
 1105 534 1105 534 1106 707 c 0,59,60
 1106 1059 1106 1059 991 1242 c 0,61,62
 875 1426 875 1426 647 1426 c 0,63,64
 555 1426 555 1426 473 1388.5 c 128,-1,65
 391 1351 391 1351 321 1282 c 128,-1,66
 251 1213 251 1213 195 1115 c 0,67,68
 82 918 82 918 40 640 c 0,69,70
 20 509 20 509 20 366 c 0,71,72
 20 -29 20 -29 144 -221 c 0,73,74
 206 -315 206 -315 300 -362.5 c 128,-1,75
 394 -410 394 -410 524 -410 c 0,76,77
 616 -410 616 -410 701 -388.5 c 128,-1,78
 786 -367 786 -367 858 -330 c 1,79,-1
 858 -162 l 1,80,81
 769 -212 769 -212 695 -233 c 0,82,83
 617 -254 617 -254 537.5 -254 c 128,-1,0
 458 -254 458 -254 394.5 -214.5 c 128,-1,1
520 221 m 0,84,85
 509 221 509 221 500 229 c 0,86,87
 483 244 483 244 478 308 c 0,88,89
 475 341 475 341 475 397 c 128,-1,90
 475 453 475 453 481 519 c 0,91,92
 493 665 493 665 534 735 c 0,93,94
 558 776 558 776 596 776 c 0,95,96
 610 776 610 776 622.5 772 c 128,-1,97
 635 768 635 768 642 761 c 2,98,-1
 645 758 l 1,99,-1
 608 330 l 1,100,101
 584 274 584 274 561 247.5 c 128,-1,102
 538 221 538 221 520 221 c 0,84,85
EndSplineSet
EndChar

StartChar: A
Encoding: 65 65 36
Width: 1126
Flags: W
LayerCount: 2
Fore
SplineSet
240 10 m 1,0,-1
 314 268 l 1,1,-1
 786 268 l 1,2,-1
 858 10 l 1,3,-1
 1109 10 l 1,4,-1
 728 1297 l 1,5,-1
 398 1297 l 1,6,-1
 17 10 l 1,7,-1
 240 10 l 1,0,-1
736 449 m 1,8,-1
 368 449 l 1,9,-1
 553 1104 l 1,10,-1
 736 449 l 1,8,-1
EndSplineSet
Substitution2: "<10,1> Superiors in Latin lookup 5 subtable" A.superior
EndChar

StartChar: B
Encoding: 66 66 37
Width: 1126
Flags: W
LayerCount: 2
Fore
SplineSet
551 1297 m 2,0,-1
 139 1297 l 1,1,-1
 139 10 l 1,2,-1
 528 10 l 2,3,4
 778 10 778 10 908.5 108 c 128,-1,5
 1039 206 1039 206 1039 401 c 0,6,7
 1039 462 1039 462 1020 511.5 c 128,-1,8
 1001 561 1001 561 969 597 c 128,-1,9
 937 633 937 633 894 655.5 c 128,-1,10
 851 678 851 678 803 686 c 2,11,-1
 764 692 l 1,12,-1
 802 705 l 2,13,14
 849 722 849 722 884 751 c 0,15,16
 953 809 953 809 976 900 c 0,17,18
 987 945 987 945 987 993 c 0,19,20
 987 1146 987 1146 879 1221.5 c 128,-1,21
 771 1297 771 1297 551 1297 c 2,0,-1
522 1122 m 2,22,23
 638 1122 638 1122 697 1076 c 0,24,25
 751 1033 751 1033 751 950 c 0,26,27
 751 864 751 864 698 813 c 0,28,29
 639 756 639 756 522 756 c 2,30,-1
 363 756 l 1,31,-1
 363 1122 l 1,32,-1
 522 1122 l 2,22,23
652 206.5 m 128,-1,34
 606 191 606 191 545 191 c 2,35,-1
 363 191 l 1,36,-1
 363 588 l 1,37,-1
 526 588 l 2,38,39
 660 588 660 588 727 537.5 c 128,-1,40
 794 487 794 487 794 397 c 0,41,42
 794 354 794 354 777.5 316 c 128,-1,43
 761 278 761 278 729.5 250 c 128,-1,33
 698 222 698 222 652 206.5 c 128,-1,34
EndSplineSet
Substitution2: "<10,1> Superiors in Latin lookup 5 subtable" B.superior
EndChar

StartChar: C
Encoding: 67 67 38
Width: 1126
Flags: W
LayerCount: 2
Fore
SplineSet
768 1323 m 0,0,1
 729 1325 729 1325 684 1325 c 0,2,3
 547 1325 547 1325 437.5 1278.5 c 128,-1,4
 328 1232 328 1232 251.5 1144 c 128,-1,5
 175 1056 175 1056 133.5 927.5 c 128,-1,6
 92 799 92 799 92 635 c 128,-1,7
 92 471 92 471 130 349.5 c 128,-1,8
 168 228 168 228 241 146 c 0,9,10
 388 -18 388 -18 666 -18 c 0,11,12
 753 -18 753 -18 832 0 c 128,-1,13
 911 18 911 18 994 54 c 1,14,-1
 994 276 l 1,15,16
 921 244 921 244 857 227 c 0,17,18
 767 203 767 203 705 203 c 0,19,20
 611 203 611 203 542 234 c 0,21,22
 342 325 342 325 342 663 c 0,23,24
 342 764 342 764 362.5 849 c 128,-1,25
 383 934 383 934 426.5 996.5 c 128,-1,26
 470 1059 470 1059 538.5 1093.5 c 128,-1,27
 607 1128 607 1128 702 1128 c 0,28,29
 766 1128 766 1128 841 1111.5 c 128,-1,30
 916 1095 916 1095 994 1060 c 1,31,-1
 994 1281 l 1,32,33
 882 1317 882 1317 768 1323 c 0,0,1
EndSplineSet
Substitution2: "<10,1> Superiors in Latin lookup 5 subtable" C.superior
EndChar

StartChar: D
Encoding: 68 68 39
Width: 1126
Flags: W
LayerCount: 2
Fore
SplineSet
1026 397 m 128,-1,1
 1063 519 1063 519 1063 670 c 0,2,3
 1063 834 1063 834 1026 952.5 c 128,-1,4
 989 1071 989 1071 916 1147 c 128,-1,5
 843 1223 843 1223 732 1260 c 128,-1,6
 621 1297 621 1297 473 1297 c 2,7,-1
 96 1297 l 1,8,-1
 96 10 l 1,9,-1
 418 10 l 2,10,11
 589 10 589 10 711 56.5 c 128,-1,12
 833 103 833 103 911 189 c 128,-1,0
 989 275 989 275 1026 397 c 128,-1,1
801.5 845.5 m 128,-1,14
 819 761 819 761 819 654 c 0,15,16
 819 418 819 418 722.5 307 c 128,-1,17
 626 196 626 196 440 196 c 2,18,-1
 322 196 l 1,19,-1
 322 1111 l 1,20,-1
 457 1111 l 2,21,22
 560 1111 560 1111 630.5 1080 c 128,-1,23
 701 1049 701 1049 742.5 989.5 c 128,-1,13
 784 930 784 930 801.5 845.5 c 128,-1,14
EndSplineSet
Substitution2: "<10,1> Superiors in Latin lookup 5 subtable" D.superior
EndChar

StartChar: E
Encoding: 69 69 40
Width: 1126
Flags: W
LayerCount: 2
Fore
SplineSet
961 1297 m 1,0,-1
 194 1297 l 1,1,-1
 194 10 l 1,2,-1
 961 10 l 1,3,-1
 961 198 l 1,4,-1
 424 198 l 1,5,-1
 424 581 l 1,6,-1
 936 581 l 1,7,-1
 936 764 l 1,8,-1
 424 764 l 1,9,-1
 424 1109 l 1,10,-1
 961 1109 l 1,11,-1
 961 1297 l 1,0,-1
EndSplineSet
Substitution2: "<10,1> Superiors in Latin lookup 5 subtable" E.superior
EndChar

StartChar: F
Encoding: 70 70 41
Width: 1126
Flags: W
LayerCount: 2
Fore
SplineSet
424 727 m 1,0,-1
 424 1109 l 1,1,-1
 946 1109 l 1,2,-1
 946 1297 l 1,3,-1
 194 1297 l 1,4,-1
 194 10 l 1,5,-1
 424 10 l 1,6,-1
 424 545 l 1,7,-1
 918 545 l 1,8,-1
 918 727 l 1,9,-1
 424 727 l 1,0,-1
EndSplineSet
Substitution2: "<10,1> Superiors in Latin lookup 5 subtable" F.superior
EndChar

StartChar: G
Encoding: 71 71 42
Width: 1126
Flags: W
LayerCount: 2
Fore
SplineSet
1024 747 m 1,0,-1
 579 747 l 1,1,-1
 579 562 l 1,2,-1
 801 562 l 1,3,-1
 801 205 l 1,4,5
 759 191 759 191 740 187 c 0,6,7
 705 180 705 180 662 180 c 0,8,9
 564 180 564 180 494.5 212.5 c 128,-1,10
 425 245 425 245 381.5 306.5 c 128,-1,11
 338 368 338 368 318.5 454 c 128,-1,12
 299 540 299 540 299 649 c 128,-1,13
 299 758 299 758 324 847 c 0,14,15
 374 1026 374 1026 519 1093 c 0,16,17
 592 1126 592 1126 685 1126 c 128,-1,18
 778 1126 778 1126 864.5 1104 c 128,-1,19
 951 1082 951 1082 1020 1050 c 1,20,-1
 1020 1274 l 1,21,22
 939 1298 939 1298 856 1313.5 c 128,-1,23
 773 1329 773 1329 684 1329 c 0,24,25
 534 1329 534 1329 417.5 1282 c 128,-1,26
 301 1235 301 1235 221 1146 c 128,-1,27
 141 1057 141 1057 99 928 c 128,-1,28
 57 799 57 799 57 635.5 c 128,-1,29
 57 472 57 472 97 349 c 128,-1,30
 137 226 137 226 211.5 143.5 c 128,-1,31
 286 61 286 61 392.5 19 c 128,-1,32
 499 -23 499 -23 633 -23 c 0,33,34
 747 -23 747 -23 842.5 -3 c 128,-1,35
 938 17 938 17 1024 57 c 1,36,-1
 1024 747 l 1,0,-1
EndSplineSet
Substitution2: "<10,1> Superiors in Latin lookup 5 subtable" G.superior
EndChar

StartChar: H
Encoding: 72 72 43
Width: 1126
Flags: W
LayerCount: 2
Fore
SplineSet
105 10 m 1,0,-1
 331 10 l 1,1,-1
 331 579 l 1,2,-1
 795 579 l 1,3,-1
 795 10 l 1,4,-1
 1021 10 l 1,5,-1
 1021 1297 l 1,6,-1
 795 1297 l 1,7,-1
 795 772 l 1,8,-1
 331 772 l 1,9,-1
 331 1297 l 1,10,-1
 105 1297 l 1,11,-1
 105 10 l 1,0,-1
EndSplineSet
Substitution2: "<10,1> Superiors in Latin lookup 5 subtable" H.superior
EndChar

StartChar: I
Encoding: 73 73 44
Width: 1126
Flags: W
LayerCount: 2
Fore
SplineSet
966 1307 m 1,0,-1
 160 1307 l 1,1,-1
 160 1126 l 1,2,-1
 448 1126 l 1,3,-1
 448 203 l 1,4,-1
 160 203 l 1,5,-1
 160 20 l 1,6,-1
 966 20 l 1,7,-1
 966 203 l 1,8,-1
 678 203 l 1,9,-1
 678 1126 l 1,10,-1
 966 1126 l 1,11,-1
 966 1307 l 1,0,-1
EndSplineSet
Substitution2: "<10,1> Superiors in Latin lookup 5 subtable" I.superior
EndChar

StartChar: J
Encoding: 74 74 45
Width: 1126
Flags: W
LayerCount: 2
Fore
SplineSet
866.5 217 m 128,-1,1
 895 291 895 291 895 381 c 2,2,-1
 895 1287 l 1,3,-1
 192 1287 l 1,4,-1
 192 1104 l 1,5,-1
 665 1104 l 1,6,-1
 665 414 l 2,7,8
 665 345 665 345 646.5 297.5 c 128,-1,9
 628 250 628 250 598 220.5 c 128,-1,10
 568 191 568 191 531 178.5 c 128,-1,11
 494 166 494 166 456.5 166 c 128,-1,12
 419 166 419 166 378 174 c 0,13,14
 297 189 297 189 226 227 c 0,15,16
 202 240 202 240 182 254 c 1,17,-1
 182 43 l 1,18,19
 235 16 235 16 307 -2 c 128,-1,20
 379 -20 379 -20 459 -20 c 0,21,22
 567 -20 567 -20 648.5 9 c 128,-1,23
 730 38 730 38 784 90.5 c 128,-1,0
 838 143 838 143 866.5 217 c 128,-1,1
EndSplineSet
Substitution2: "<10,1> Superiors in Latin lookup 5 subtable" J.superior
EndChar

StartChar: K
Encoding: 75 75 46
Width: 1126
Flags: W
LayerCount: 2
Fore
SplineSet
139 10 m 1,0,-1
 369 10 l 1,1,-1
 369 667 l 1,2,-1
 778 10 l 1,3,-1
 1071 10 l 1,4,-1
 611 684 l 1,5,-1
 1048 1297 l 1,6,-1
 775 1297 l 1,7,-1
 369 679 l 1,8,-1
 369 1297 l 1,9,-1
 139 1297 l 1,10,-1
 139 10 l 1,0,-1
EndSplineSet
Substitution2: "<10,1> Superiors in Latin lookup 5 subtable" K.superior
EndChar

StartChar: L
Encoding: 76 76 47
Width: 1126
Flags: W
LayerCount: 2
Fore
SplineSet
437 1297 m 1,0,-1
 207 1297 l 1,1,-1
 207 10 l 1,2,-1
 989 10 l 1,3,-1
 989 201 l 1,4,-1
 437 201 l 1,5,-1
 437 1297 l 1,0,-1
EndSplineSet
Substitution2: "<10,1> Superiors in Latin lookup 5 subtable" L.superior
EndChar

StartChar: M
Encoding: 77 77 48
Width: 1126
Flags: W
LayerCount: 2
Fore
SplineSet
476 399 m 1,0,-1
 616 399 l 1,1,-1
 758 837 l 1,2,-1
 839 1093 l 1,3,-1
 850 739 l 1,4,-1
 874 10 l 1,5,-1
 1070 10 l 1,6,-1
 1006 1297 l 1,7,-1
 740 1297 l 1,8,-1
 622 921 l 1,9,-1
 557 689 l 1,10,-1
 492 933 l 1,11,-1
 380 1297 l 1,12,-1
 119 1297 l 1,13,-1
 56 10 l 1,14,-1
 244 10 l 1,15,-1
 266 745 l 1,16,-1
 275 1102 l 1,17,-1
 348 837 l 1,18,-1
 476 399 l 1,0,-1
EndSplineSet
Substitution2: "<10,1> Superiors in Latin lookup 5 subtable" M.superior
EndChar

StartChar: N
Encoding: 78 78 49
Width: 1126
Flags: W
LayerCount: 2
Fore
SplineSet
746 10 m 1,0,-1
 1030 10 l 1,1,-1
 1030 1297 l 1,2,-1
 826 1297 l 1,3,-1
 826 318 l 1,4,-1
 744 518 l 1,5,-1
 390 1297 l 1,6,-1
 104 1297 l 1,7,-1
 104 10 l 1,8,-1
 308 10 l 1,9,-1
 308 997 l 1,10,-1
 399 784 l 1,11,-1
 746 10 l 1,0,-1
EndSplineSet
Substitution2: "<10,1> Superiors in Latin lookup 5 subtable" N.superior
EndChar

StartChar: O
Encoding: 79 79 50
Width: 1126
Flags: W
LayerCount: 2
Fore
SplineSet
1038 351 m 128,-1,1
 1079 480 1079 480 1079 659 c 0,2,3
 1079 989 1079 989 951.5 1159 c 128,-1,4
 824 1329 824 1329 571 1329 c 0,5,6
 462 1329 462 1329 366.5 1289 c 128,-1,7
 271 1249 271 1249 200 1166.5 c 128,-1,8
 129 1084 129 1084 88 955 c 128,-1,9
 47 826 47 826 47 647 c 0,10,11
 47 318 47 318 174.5 147.5 c 128,-1,12
 302 -23 302 -23 555 -23 c 0,13,14
 664 -23 664 -23 759.5 17 c 128,-1,15
 855 57 855 57 926 139.5 c 128,-1,0
 997 222 997 222 1038 351 c 128,-1,1
776 998 m 0,16,17
 839 882 839 882 839 647 c 0,18,19
 839 423 839 423 776 310 c 0,20,21
 708 189 708 189 562 189 c 128,-1,22
 416 189 416 189 351 308 c 0,23,24
 287 424 287 424 287 659 c 0,25,26
 287 768 287 768 302 852.5 c 128,-1,27
 317 937 317 937 351 996 c 0,28,29
 420 1117 420 1117 563 1117 c 0,30,31
 711 1117 711 1117 776 998 c 0,16,17
EndSplineSet
Substitution2: "<10,1> Superiors in Latin lookup 5 subtable" O.superior
EndChar

StartChar: P
Encoding: 80 80 51
Width: 1126
Flags: W
LayerCount: 2
Fore
SplineSet
736.5 464.5 m 128,-1,1
 835 499 835 499 900.5 560.5 c 128,-1,2
 966 622 966 622 999 706.5 c 128,-1,3
 1032 791 1032 791 1032 890 c 128,-1,4
 1032 989 1032 989 998 1064 c 0,5,6
 931 1216 931 1216 740 1270 c 0,7,8
 644 1297 644 1297 518 1297 c 2,9,-1
 145 1297 l 1,10,-1
 145 10 l 1,11,-1
 373 10 l 1,12,-1
 373 430 l 1,13,-1
 508 430 l 2,14,0
 638 430 638 430 736.5 464.5 c 128,-1,1
512 1113 m 2,15,16
 652 1113 652 1113 724 1048 c 0,17,18
 759 1017 759 1017 776.5 972.5 c 128,-1,19
 794 928 794 928 794 871.5 c 128,-1,20
 794 815 794 815 776 767 c 128,-1,21
 758 719 758 719 723 685 c 0,22,23
 651 614 651 614 520 614 c 2,24,-1
 373 614 l 1,25,-1
 373 1113 l 1,26,-1
 512 1113 l 2,15,16
EndSplineSet
Substitution2: "<10,1> Superiors in Latin lookup 5 subtable" P.superior
EndChar

StartChar: Q
Encoding: 81 81 52
Width: 1126
Flags: W
LayerCount: 2
Fore
SplineSet
557 -292 m 0,0,1
 657 -379 657 -379 846 -379 c 0,2,3
 919 -379 919 -379 990 -352.5 c 128,-1,4
 1061 -326 1061 -326 1120 -278 c 1,5,-1
 1018 -127 l 1,6,7
 986 -155 986 -155 944.5 -172.5 c 128,-1,8
 903 -190 903 -190 858 -190 c 0,9,10
 825 -190 825 -190 793.5 -182.5 c 128,-1,11
 762 -175 762 -175 735 -156 c 0,12,13
 676 -114 676 -114 660 -22 c 1,14,-1
 659 -12 l 1,15,-1
 668 -10 l 2,16,17
 756 9 756 9 831.5 59.5 c 128,-1,18
 907 110 907 110 962.5 193.5 c 128,-1,19
 1018 277 1018 277 1048.5 395.5 c 128,-1,20
 1079 514 1079 514 1079 668 c 0,21,22
 1079 991 1079 991 951.5 1160 c 128,-1,23
 824 1329 824 1329 571 1329 c 0,24,25
 462 1329 462 1329 366.5 1287.5 c 128,-1,26
 271 1246 271 1246 200 1162 c 128,-1,27
 129 1078 129 1078 88 948.5 c 128,-1,28
 47 819 47 819 47 641 c 0,29,30
 47 353 47 353 144 190 c 128,-1,31
 241 27 241 27 438 -10 c 1,32,-1
 446 -12 l 1,33,-1
 446 -20 l 1,34,35
 454 -202 454 -202 557 -292 c 0,0,1
777 998 m 0,36,37
 839 882 839 882 839 647 c 0,38,39
 839 423 839 423 776 310 c 0,40,41
 708 189 708 189 562 189 c 128,-1,42
 416 189 416 189 351 309 c 0,43,44
 287 426 287 426 287 659 c 0,45,46
 287 882 287 882 352 995 c 0,47,48
 422 1117 422 1117 567.5 1117 c 128,-1,49
 713 1117 713 1117 777 998 c 0,36,37
EndSplineSet
Substitution2: "<10,1> Superiors in Latin lookup 5 subtable" Q.superior
EndChar

StartChar: R
Encoding: 82 82 53
Width: 1126
Flags: W
LayerCount: 2
Fore
SplineSet
139 10 m 1,0,-1
 365 10 l 1,1,-1
 365 551 l 1,2,-1
 422 551 l 2,3,4
 488 551 488 551 537 519 c 128,-1,5
 586 487 586 487 613 424 c 2,6,-1
 795 10 l 1,7,-1
 1061 10 l 1,8,-1
 859 434 l 2,9,10
 820 516 820 516 781.5 559 c 128,-1,11
 743 602 743 602 698 611 c 2,12,-1
 645 622 l 1,13,-1
 698 631 l 2,14,15
 759 641 759 641 810 665 c 128,-1,16
 861 689 861 689 897.5 728 c 128,-1,17
 934 767 934 767 954.5 821.5 c 128,-1,18
 975 876 975 876 975 946 c 0,19,20
 975 1044 975 1044 943 1110 c 0,21,22
 879 1242 879 1242 704 1279 c 0,23,24
 617 1297 617 1297 510 1297 c 2,25,-1
 139 1297 l 1,26,-1
 139 10 l 1,0,-1
672.5 1067.5 m 128,-1,28
 737 1023 737 1023 737 922 c 0,29,30
 737 874 737 874 718 836 c 0,31,32
 680 761 680 761 581 735 c 0,33,34
 533 723 533 723 475 723 c 2,35,-1
 365 723 l 1,36,-1
 365 1112 l 1,37,-1
 483 1112 l 2,38,27
 608 1112 608 1112 672.5 1067.5 c 128,-1,28
EndSplineSet
Substitution2: "<10,1> Superiors in Latin lookup 5 subtable" R.superior
EndChar

StartChar: S
Encoding: 83 83 54
Width: 1126
Flags: W
LayerCount: 2
Fore
SplineSet
971.5 207 m 128,-1,1
 1010 285 1010 285 1010 391 c 0,2,3
 1010 470 1010 470 983.5 527.5 c 128,-1,4
 957 585 957 585 912.5 627.5 c 128,-1,5
 868 670 868 670 811.5 700 c 128,-1,6
 755 730 755 730 695 753.5 c 128,-1,7
 635 777 635 777 577 798 c 128,-1,8
 519 819 519 819 472.5 843.5 c 128,-1,9
 426 868 426 868 396.5 900 c 128,-1,10
 367 932 367 932 367 978 c 0,11,12
 367 1014 367 1014 381 1043 c 0,13,14
 409 1102 409 1102 504 1124 c 0,15,16
 550 1135 550 1135 616 1135 c 0,17,18
 730 1135 730 1135 857 1101 c 0,19,20
 887 1093 887 1093 914 1084 c 1,21,-1
 914 1290 l 1,22,23
 809 1315 809 1315 689 1326 c 0,24,25
 647 1329 647 1329 608 1329 c 0,26,27
 477 1329 477 1329 384.5 1298.5 c 128,-1,28
 292 1268 292 1268 233.5 1217.5 c 128,-1,29
 175 1167 175 1167 148 1099 c 128,-1,30
 121 1031 121 1031 121 951 c 128,-1,31
 121 871 121 871 147.5 812.5 c 128,-1,32
 174 754 174 754 218 711.5 c 128,-1,33
 262 669 262 669 318.5 640 c 128,-1,34
 375 611 375 611 434 588 c 128,-1,35
 493 565 493 565 551 544.5 c 128,-1,36
 609 524 609 524 655 498 c 128,-1,37
 701 472 701 472 730.5 437 c 128,-1,38
 760 402 760 402 760 349 c 0,39,40
 760 227 760 227 613 190 c 0,41,42
 563 178 563 178 492 178 c 0,43,44
 360 178 360 178 191 226 c 0,45,46
 148 238 148 238 108 252 c 1,47,-1
 108 27 l 1,48,49
 198 1 198 1 291.5 -11 c 128,-1,50
 385 -23 385 -23 493.5 -23 c 128,-1,51
 602 -23 602 -23 698.5 2 c 128,-1,52
 795 27 795 27 864 78 c 128,-1,0
 933 129 933 129 971.5 207 c 128,-1,1
EndSplineSet
Substitution2: "<10,1> Superiors in Latin lookup 5 subtable" S.superior
EndChar

StartChar: T
Encoding: 84 84 55
Width: 1126
Flags: W
LayerCount: 2
Fore
SplineSet
679 10 m 1,0,-1
 679 1112 l 1,1,-1
 1037 1112 l 1,2,-1
 1037 1297 l 1,3,-1
 89 1297 l 1,4,-1
 89 1112 l 1,5,-1
 447 1112 l 1,6,-1
 447 10 l 1,7,-1
 679 10 l 1,0,-1
EndSplineSet
Substitution2: "<10,1> Superiors in Latin lookup 5 subtable" T.superior
EndChar

StartChar: U
Encoding: 85 85 56
Width: 1126
Flags: W
LayerCount: 2
Fore
SplineSet
323 1287 m 1,0,-1
 97 1287 l 1,1,-1
 97 430 l 2,2,3
 97 324 97 324 121.5 240 c 128,-1,4
 146 156 146 156 200.5 98 c 128,-1,5
 255 40 255 40 343 8.5 c 128,-1,6
 431 -23 431 -23 555 -23 c 0,7,8
 665 -23 665 -23 753 8 c 0,9,10
 931 72 931 72 996 255 c 0,11,12
 1029 348 1029 348 1029 471 c 2,13,-1
 1029 1287 l 1,14,-1
 803 1287 l 1,15,-1
 803 455 l 2,16,17
 803 301 803 301 745 229 c 0,18,19
 715 193 715 193 671 176.5 c 128,-1,20
 627 160 627 160 562 160 c 128,-1,21
 497 160 497 160 452 179 c 128,-1,22
 407 198 407 198 377 235.5 c 128,-1,23
 347 273 347 273 335 325.5 c 128,-1,24
 323 378 323 378 323 445 c 2,25,-1
 323 1287 l 1,0,-1
EndSplineSet
Substitution2: "<10,1> Superiors in Latin lookup 5 subtable" U.superior
EndChar

StartChar: V
Encoding: 86 86 57
Width: 1126
Flags: W
LayerCount: 2
Fore
SplineSet
14 1297 m 1,0,-1
 406 10 l 1,1,-1
 718 10 l 1,2,-1
 1112 1297 l 1,3,-1
 872 1297 l 1,4,-1
 655 532 l 1,5,-1
 571 224 l 1,6,-1
 490 517 l 1,7,-1
 271 1297 l 1,8,-1
 14 1297 l 1,0,-1
EndSplineSet
Substitution2: "<10,1> Superiors in Latin lookup 5 subtable" V.superior
EndChar

StartChar: W
Encoding: 87 87 58
Width: 1126
Flags: W
LayerCount: 2
Fore
SplineSet
612 406 m 1,0,-1
 738 10 l 1,1,-1
 1011 10 l 1,2,-1
 1083 1297 l 1,3,-1
 895 1297 l 1,4,-1
 862 446 l 1,5,-1
 857 174 l 1,6,-1
 789 413 l 1,7,-1
 640 899 l 1,8,-1
 499 899 l 1,9,-1
 358 441 l 1,10,-1
 281 177 l 1,11,-1
 271 469 l 1,12,-1
 240 1297 l 1,13,-1
 44 1297 l 1,14,-1
 115 10 l 1,15,-1
 376 10 l 1,16,-1
 500 402 l 1,17,-1
 555 604 l 1,18,-1
 612 406 l 1,0,-1
EndSplineSet
Substitution2: "<10,1> Superiors in Latin lookup 5 subtable" W.superior
EndChar

StartChar: X
Encoding: 88 88 59
Width: 1126
Flags: W
LayerCount: 2
Fore
SplineSet
25 10 m 1,0,-1
 299 10 l 1,1,-1
 553 503 l 1,2,-1
 811 10 l 1,3,-1
 1101 10 l 1,4,-1
 716 670 l 1,5,-1
 1060 1297 l 1,6,-1
 794 1297 l 1,7,-1
 559 830 l 1,8,-1
 316 1297 l 1,9,-1
 50 1297 l 1,10,-1
 396 670 l 1,11,-1
 25 10 l 1,0,-1
EndSplineSet
Substitution2: "<10,1> Superiors in Latin lookup 5 subtable" X.superior
EndChar

StartChar: Y
Encoding: 89 89 60
Width: 1126
Flags: W
LayerCount: 2
Fore
SplineSet
675 10 m 1,0,-1
 675 465 l 1,1,-1
 1098 1297 l 1,2,-1
 858 1297 l 1,3,-1
 660 905 l 1,4,-1
 563 680 l 1,5,-1
 466 899 l 1,6,-1
 277 1297 l 1,7,-1
 26 1297 l 1,8,-1
 445 463 l 1,9,-1
 445 10 l 1,10,-1
 675 10 l 1,0,-1
EndSplineSet
Substitution2: "<10,1> Superiors in Latin lookup 5 subtable" Y.superior
EndChar

StartChar: Z
Encoding: 90 90 61
Width: 1126
Flags: W
LayerCount: 2
Fore
SplineSet
114 183 m 1,0,-1
 114 10 l 1,1,-1
 1012 10 l 1,2,-1
 1012 213 l 1,3,-1
 393 213 l 1,4,-1
 1004 1110 l 1,5,-1
 1004 1297 l 1,6,-1
 133 1297 l 1,7,-1
 133 1094 l 1,8,-1
 721 1094 l 1,9,-1
 114 183 l 1,0,-1
EndSplineSet
Substitution2: "<10,1> Superiors in Latin lookup 5 subtable" Z.superior
EndChar

StartChar: bracketleft
Encoding: 91 91 62
Width: 1126
Flags: W
LayerCount: 2
Fore
SplineSet
315 1448 m 1,0,-1
 315 -387 l 1,1,-1
 821 -387 l 1,2,-1
 821 -217 l 1,3,-1
 520 -217 l 1,4,-1
 520 1278 l 1,5,-1
 821 1278 l 1,6,-1
 821 1448 l 1,7,-1
 315 1448 l 1,0,-1
EndSplineSet
Substitution2: "'rtla' Right to Left Alternates in Greek lookup 0 subtable" bracketright
EndChar

StartChar: backslash
Encoding: 92 92 63
Width: 1126
Flags: W
LayerCount: 2
Fore
SplineSet
1040 -205 m 1,0,-1
 349 1403 l 1,1,-1
 134 1403 l 1,2,-1
 824 -205 l 1,3,-1
 1040 -205 l 1,0,-1
EndSplineSet
EndChar

StartChar: bracketright
Encoding: 93 93 64
Width: 1126
Flags: W
LayerCount: 2
Fore
SplineSet
274 -217 m 1,0,-1
 274 -387 l 1,1,-1
 778 -387 l 1,2,-1
 778 1448 l 1,3,-1
 274 1448 l 1,4,-1
 274 1278 l 1,5,-1
 573 1278 l 1,6,-1
 573 -217 l 1,7,-1
 274 -217 l 1,0,-1
EndSplineSet
Substitution2: "'rtla' Right to Left Alternates in Greek lookup 0 subtable" bracketleft
EndChar

StartChar: asciicircum
Encoding: 94 94 65
Width: 1126
Flags: W
LayerCount: 2
Fore
SplineSet
288 678 m 1,0,-1
 552 1150 l 1,1,-1
 820 678 l 1,2,-1
 1023 678 l 1,3,-1
 644 1297 l 1,4,-1
 470 1297 l 1,5,-1
 103 678 l 1,6,-1
 288 678 l 1,0,-1
EndSplineSet
EndChar

StartChar: underscore
Encoding: 95 95 66
Width: 1126
Flags: W
LayerCount: 2
Fore
SplineSet
10 -227 m 1,0,-1
 10 -400 l 1,1,-1
 1116 -400 l 1,2,-1
 1116 -227 l 1,3,-1
 10 -227 l 1,0,-1
EndSplineSet
EndChar

StartChar: grave
Encoding: 96 96 67
Width: 1126
Flags: W
LayerCount: 2
Fore
SplineSet
660 1161 m 1,0,-1
 418 1403 l 1,1,-1
 122 1403 l 1,2,-1
 443 1161 l 1,3,-1
 660 1161 l 1,0,-1
0 1016 m 1024,4,-1
EndSplineSet
EndChar

StartChar: a
Encoding: 97 97 68
Width: 1126
Flags: W
LayerCount: 2
Fore
SplineSet
198 973 m 1,0,-1
 198 797 l 1,1,2
 366 871 366 871 535 871 c 0,3,4
 647 871 647 871 701 821 c 0,5,6
 751 776 751 776 751 687 c 2,7,-1
 751 615 l 1,8,-1
 608 615 l 2,9,10
 483 615 483 615 391 590 c 128,-1,11
 299 565 299 565 238.5 521.5 c 128,-1,12
 178 478 178 478 148.5 418 c 128,-1,13
 119 358 119 358 119 287.5 c 128,-1,14
 119 217 119 217 139 160 c 0,15,16
 179 45 179 45 293 0 c 0,17,18
 350 -23 350 -23 426 -23 c 0,19,20
 585 -23 585 -23 697 70 c 0,21,22
 731 99 731 99 763 133 c 2,23,-1
 779 150 l 1,24,-1
 786 0 l 1,25,-1
 975 0 l 1,26,-1
 975 698 l 2,27,28
 975 783 975 783 951 847 c 0,29,30
 902 974 902 974 746 1016 c 0,31,32
 667 1038 667 1038 560 1038 c 128,-1,33
 453 1038 453 1038 360.5 1019 c 128,-1,34
 268 1000 268 1000 198 973 c 1,0,-1
592 459 m 2,35,-1
 751 459 l 1,36,-1
 751 309 l 1,37,38
 681 236 681 236 624.5 198 c 128,-1,39
 568 160 568 160 514 160 c 0,40,41
 441 160 441 160 398 195 c 128,-1,42
 355 230 355 230 355 297 c 0,43,44
 355 330 355 330 368.5 359.5 c 128,-1,45
 382 389 382 389 411 412 c 0,46,47
 471 459 471 459 592 459 c 2,35,-1
EndSplineSet
Substitution2: "<10,1> Superiors in Latin lookup 5 subtable" uni1D43
EndChar

StartChar: b
Encoding: 98 98 69
Width: 1126
Flags: W
LayerCount: 2
Fore
SplineSet
1004 283.5 m 128,-1,1
 1043 386 1043 386 1043 526 c 0,2,3
 1043 645 1043 645 1018.5 740 c 128,-1,4
 994 835 994 835 947.5 901 c 128,-1,5
 901 967 901 967 833.5 1002.5 c 128,-1,6
 766 1038 766 1038 678 1038 c 0,7,8
 578 1038 578 1038 506.5 996 c 128,-1,9
 435 954 435 954 381 885 c 2,10,-1
 361 860 l 1,11,-1
 373 1091 l 1,12,-1
 373 1413 l 1,13,-1
 149 1413 l 1,14,-1
 149 41 l 1,15,16
 232 15 232 15 325 -1.5 c 128,-1,17
 418 -18 418 -18 528.5 -18 c 128,-1,18
 639 -18 639 -18 733.5 14.5 c 128,-1,19
 828 47 828 47 896.5 114 c 128,-1,0
 965 181 965 181 1004 283.5 c 128,-1,1
621 839 m 0,20,21
 807 839 807 839 807 518 c 0,22,23
 807 436 807 436 788.5 370.5 c 128,-1,24
 770 305 770 305 735.5 259.5 c 128,-1,25
 701 214 701 214 651 189 c 128,-1,26
 601 164 601 164 541 164 c 0,27,28
 496 164 496 164 452.5 171 c 128,-1,29
 409 178 409 178 373 192 c 1,30,-1
 373 646 l 1,31,32
 439 736 439 736 497 787.5 c 128,-1,33
 555 839 555 839 621 839 c 0,20,21
EndSplineSet
Substitution2: "<10,1> Superiors in Latin lookup 5 subtable" uni1D47
EndChar

StartChar: c
Encoding: 99 99 70
Width: 1126
Flags: W
LayerCount: 2
Fore
SplineSet
437.5 15 m 128,-1,1
 532 -18 532 -18 651 -18 c 0,2,3
 814 -18 814 -18 951 37 c 1,4,-1
 951 236 l 1,5,6
 897 213 897 213 829 197 c 0,7,8
 755 179 755 179 687.5 179 c 128,-1,9
 620 179 620 179 564 201.5 c 128,-1,10
 508 224 508 224 468 267 c 128,-1,11
 428 310 428 310 406.5 371 c 128,-1,12
 385 432 385 432 385 506.5 c 128,-1,13
 385 581 385 581 405 642.5 c 128,-1,14
 425 704 425 704 463.5 747.5 c 128,-1,15
 502 791 502 791 558 815 c 128,-1,16
 614 839 614 839 682 839 c 128,-1,17
 750 839 750 839 819.5 822.5 c 128,-1,18
 889 806 889 806 946 779 c 1,19,-1
 946 997 l 1,20,21
 895 1012 895 1012 830.5 1022 c 128,-1,22
 766 1032 766 1032 668 1032 c 0,23,24
 549 1032 549 1032 452.5 994 c 128,-1,25
 356 956 356 956 287.5 886 c 128,-1,26
 219 816 219 816 181 717 c 128,-1,27
 143 618 143 618 143 493.5 c 128,-1,28
 143 369 143 369 178 273 c 128,-1,29
 213 177 213 177 278 112.5 c 128,-1,0
 343 48 343 48 437.5 15 c 128,-1,1
EndSplineSet
Substitution2: "<10,1> Superiors in Latin lookup 5 subtable" uni1D9C
EndChar

StartChar: d
Encoding: 100 100 71
Width: 1126
Flags: W
LayerCount: 2
Fore
SplineSet
979 1413 m 1,0,-1
 755 1413 l 1,1,-1
 755 1013 l 1,2,-1
 742 1016 l 2,3,4
 713 1024 713 1024 675 1029 c 128,-1,5
 637 1034 637 1034 600 1034 c 0,6,7
 489 1034 489 1034 394.5 1001.5 c 128,-1,8
 300 969 300 969 232 902 c 128,-1,9
 164 835 164 835 125 732 c 128,-1,10
 86 629 86 629 86 489 c 0,11,12
 86 371 86 371 110.5 275.5 c 128,-1,13
 135 180 135 180 181.5 114 c 128,-1,14
 228 48 228 48 295.5 12.5 c 128,-1,15
 363 -23 363 -23 451 -23 c 0,16,17
 504 -23 504 -23 547 -11 c 0,18,19
 632 13 632 13 699 78 c 0,20,21
 733 110 733 110 764 149 c 2,22,-1
 781 169 l 1,23,-1
 788 0 l 1,24,-1
 979 0 l 1,25,-1
 979 1413 l 1,0,-1
508 176 m 0,26,27
 464 176 464 176 428 195 c 0,28,29
 322 251 322 251 322 498 c 0,30,31
 322 580 322 580 340.5 645.5 c 128,-1,32
 359 711 359 711 393.5 756.5 c 128,-1,33
 428 802 428 802 477.5 827 c 128,-1,34
 527 852 527 852 588 852 c 0,35,36
 632 852 632 852 675.5 845 c 128,-1,37
 719 838 719 838 755 824 c 1,38,-1
 755 370 l 1,39,40
 689 279 689 279 631.5 227.5 c 128,-1,41
 574 176 574 176 508 176 c 0,26,27
EndSplineSet
Substitution2: "<10,1> Superiors in Latin lookup 5 subtable" uni1D48
EndChar

StartChar: e
Encoding: 101 101 72
Width: 1126
Flags: W
LayerCount: 2
Fore
SplineSet
340 455 m 1,0,-1
 1009 455 l 1,1,2
 1014 523 1014 523 1014 588 c 0,3,4
 1014 687 1014 687 985.5 769.5 c 128,-1,5
 957 852 957 852 902.5 911.5 c 128,-1,6
 848 971 848 971 767 1004.5 c 128,-1,7
 686 1038 686 1038 579.5 1038 c 128,-1,8
 473 1038 473 1038 386.5 998.5 c 128,-1,9
 300 959 300 959 239.5 887 c 128,-1,10
 179 815 179 815 145.5 713 c 128,-1,11
 112 611 112 611 112 486 c 128,-1,12
 112 361 112 361 145.5 266 c 128,-1,13
 179 171 179 171 241 107 c 128,-1,14
 303 43 303 43 393.5 10 c 128,-1,15
 484 -23 484 -23 598 -23 c 0,16,17
 693 -23 693 -23 789 -9 c 0,18,19
 889 6 889 6 959 26 c 1,20,-1
 959 202 l 1,21,22
 793 155 793 155 635 155 c 0,23,24
 569 155 569 155 515 174 c 128,-1,25
 461 193 461 193 422 230 c 128,-1,26
 383 267 383 267 361.5 321 c 128,-1,27
 340 375 340 375 340 445 c 2,28,-1
 340 455 l 1,0,-1
786 611 m 1,29,-1
 343 611 l 1,30,-1
 344 622 l 2,31,32
 355 737 355 737 417 801.5 c 128,-1,33
 479 866 479 866 575 866 c 0,34,35
 619 866 619 866 657.5 851.5 c 128,-1,36
 696 837 696 837 725 806 c 128,-1,37
 754 775 754 775 770 730 c 128,-1,38
 786 685 786 685 786 628 c 0,39,40
 786 624 786 624 786 611 c 1,29,-1
EndSplineSet
Substitution2: "<10,1> Superiors in Latin lookup 5 subtable" uni1D49
EndChar

StartChar: f
Encoding: 102 102 73
Width: 1126
Flags: W
LayerCount: 2
Fore
SplineSet
1041 1229 m 1,0,-1
 1041 1405 l 1,1,2
 922 1432 922 1432 819 1432 c 128,-1,3
 716 1432 716 1432 637 1409 c 0,4,5
 476 1364 476 1364 416 1216 c 0,6,7
 385 1140 385 1140 385 1034 c 2,8,-1
 385 870 l 1,9,-1
 90 870 l 1,10,-1
 90 700 l 1,11,-1
 385 700 l 1,12,-1
 385 20 l 1,13,-1
 611 20 l 1,14,-1
 611 700 l 1,15,-1
 1010 700 l 1,16,-1
 1010 870 l 1,17,-1
 611 870 l 1,18,-1
 611 1044 l 2,19,20
 611 1152 611 1152 672 1208 c 0,21,22
 701 1235 701 1235 739.5 1247 c 128,-1,23
 778 1259 778 1259 823 1259 c 0,24,25
 887 1259 887 1259 944 1250 c 128,-1,26
 1001 1241 1001 1241 1041 1229 c 1,0,-1
0 1016 m 1024,27,-1
EndSplineSet
Substitution2: "<10,1> Superiors in Latin lookup 5 subtable" uni1DA0
EndChar

StartChar: g
Encoding: 103 103 74
Width: 1126
Flags: W
LayerCount: 2
Fore
SplineSet
893 838 m 2,0,-1
 880 855 l 1,1,-1
 1051 855 l 1,2,-1
 1051 1016 l 1,3,-1
 707 1016 l 1,4,5
 646 1036 646 1036 553.5 1036 c 128,-1,6
 461 1036 461 1036 388 1012.5 c 128,-1,7
 315 989 315 989 262.5 944 c 128,-1,8
 210 899 210 899 180.5 833.5 c 128,-1,9
 151 768 151 768 151 686.5 c 128,-1,10
 151 605 151 605 174.5 553.5 c 128,-1,11
 198 502 198 502 234 466 c 2,12,-1
 241 459 l 1,13,14
 214 427 214 427 195 402 c 0,15,16
 156 350 156 350 140 295 c 0,17,18
 131 266 131 266 131 233 c 0,19,20
 131 185 131 185 155 142.5 c 128,-1,21
 179 100 179 100 226 73 c 2,22,-1
 240 65 l 1,23,-1
 227 56 l 2,24,25
 154 4 154 4 120 -49 c 0,26,27
 86 -101 86 -101 86 -166 c 0,28,29
 86 -221 86 -221 111.5 -267.5 c 128,-1,30
 137 -314 137 -314 192 -348 c 128,-1,31
 247 -382 247 -382 334 -401 c 128,-1,32
 421 -420 421 -420 545 -420 c 128,-1,33
 669 -420 669 -420 763.5 -393.5 c 128,-1,34
 858 -367 858 -367 920.5 -321.5 c 128,-1,35
 983 -276 983 -276 1014 -215.5 c 128,-1,36
 1045 -155 1045 -155 1045 -86 c 0,37,38
 1045 -25 1045 -25 1020.5 22 c 128,-1,39
 996 69 996 69 951 102.5 c 128,-1,40
 906 136 906 136 841.5 154.5 c 128,-1,41
 777 173 777 173 698 175 c 2,42,-1
 457 184 l 2,43,44
 402 186 402 186 365 216 c 0,45,46
 348 230 348 230 339 248.5 c 128,-1,47
 330 267 330 267 330 286 c 0,48,49
 330 315 330 315 343 337.5 c 128,-1,50
 356 360 356 360 374 378 c 2,51,-1
 379 384 l 1,52,-1
 386 380 l 2,53,54
 408 366 408 366 451.5 356 c 128,-1,55
 495 346 495 346 547 346 c 0,56,57
 636 346 636 346 708.5 368 c 128,-1,58
 781 390 781 390 833 433.5 c 128,-1,59
 885 477 885 477 913.5 541 c 128,-1,60
 942 605 942 605 942 690 c 0,61,62
 942 729 942 729 931 766.5 c 128,-1,63
 920 804 920 804 893 838 c 2,0,-1
381 -241 m 0,64,65
 316 -210 316 -210 316 -145 c 0,66,67
 316 -124 316 -124 320 -105 c 0,68,69
 327 -66 327 -66 366 -29 c 0,70,71
 385 -10 385 -10 417 12 c 1,72,-1
 636 8 l 1,73,74
 761 1 761 1 799 -55 c 0,75,76
 813 -76 813 -76 813 -107 c 128,-1,77
 813 -138 813 -138 799 -168 c 0,78,79
 771 -230 771 -230 672 -257 c 0,80,81
 623 -270 623 -270 553 -270 c 0,82,83
 443 -270 443 -270 381 -241 c 0,64,65
407.5 544.5 m 128,-1,85
 357 595 357 595 357 680 c 0,86,87
 357 719 357 719 368.5 754.5 c 128,-1,88
 380 790 380 790 403.5 817 c 128,-1,89
 427 844 427 844 462.5 860 c 128,-1,90
 498 876 498 876 545 876 c 0,91,92
 634 876 634 876 684.5 825.5 c 128,-1,93
 735 775 735 775 735 686 c 0,94,95
 735 648 735 648 723.5 613.5 c 128,-1,96
 712 579 712 579 688.5 552.5 c 128,-1,97
 665 526 665 526 629.5 510 c 128,-1,98
 594 494 594 494 547 494 c 0,99,84
 458 494 458 494 407.5 544.5 c 128,-1,85
EndSplineSet
Substitution2: "<10,1> Superiors in Latin lookup 5 subtable" uni1D4D
EndChar

StartChar: h
Encoding: 104 104 75
Width: 1126
Flags: W
LayerCount: 2
Fore
SplineSet
149 20 m 1,0,-1
 373 20 l 1,1,-1
 373 656 l 1,2,3
 439 746 439 746 497 797.5 c 128,-1,4
 555 849 555 849 621 849 c 0,5,6
 696 849 696 849 729 793 c 0,7,8
 755 749 755 749 755 672 c 2,9,-1
 755 20 l 1,10,-1
 979 20 l 1,11,-1
 979 692 l 2,12,13
 979 772 979 772 960 835 c 0,14,15
 922 964 922 964 810 1013 c 0,16,17
 754 1038 754 1038 678 1038 c 0,18,19
 536 1038 536 1038 441 950 c 0,20,21
 409 921 409 921 379 885 c 2,22,-1
 359 861 l 1,23,-1
 373 1075 l 1,24,-1
 373 1413 l 1,25,-1
 149 1413 l 1,26,-1
 149 20 l 1,0,-1
EndSplineSet
Substitution2: "<10,1> Superiors in Latin lookup 5 subtable" uni02B0
EndChar

StartChar: i
Encoding: 105 105 76
Width: 1126
Flags: W
LayerCount: 2
Fore
SplineSet
716 1246 m 128,-1,1
 727 1273 727 1273 727 1304 c 128,-1,2
 727 1335 727 1335 715.5 1362 c 128,-1,3
 704 1389 704 1389 684 1410 c 128,-1,4
 664 1431 664 1431 637 1442.5 c 128,-1,5
 610 1454 610 1454 578 1454 c 128,-1,6
 546 1454 546 1454 518.5 1442.5 c 128,-1,7
 491 1431 491 1431 471 1410 c 128,-1,8
 451 1389 451 1389 439.5 1362 c 128,-1,9
 428 1335 428 1335 428 1304 c 128,-1,10
 428 1273 428 1273 439 1246 c 128,-1,11
 450 1219 450 1219 470.5 1198.5 c 128,-1,12
 491 1178 491 1178 518.5 1166.5 c 128,-1,13
 546 1155 546 1155 578 1155 c 128,-1,14
 610 1155 610 1155 637 1166.5 c 128,-1,15
 664 1178 664 1178 684.5 1198.5 c 128,-1,0
 705 1219 705 1219 716 1246 c 128,-1,1
190 836 m 1,16,-1
 477 836 l 1,17,-1
 477 180 l 1,18,-1
 155 180 l 1,19,-1
 155 10 l 1,20,-1
 1000 10 l 1,21,-1
 1000 180 l 1,22,-1
 707 180 l 1,23,-1
 707 1006 l 1,24,-1
 190 1006 l 1,25,-1
 190 836 l 1,16,-1
EndSplineSet
EndChar

StartChar: j
Encoding: 106 106 77
Width: 1126
Flags: W
LayerCount: 2
Fore
SplineSet
248.5 -405.5 m 128,-1,1
 321 -420 321 -420 408 -420 c 0,2,3
 514 -420 514 -420 600 -393 c 128,-1,4
 686 -366 686 -366 747 -312 c 128,-1,5
 808 -258 808 -258 840.5 -175.5 c 128,-1,6
 873 -93 873 -93 873 19 c 2,7,-1
 873 996 l 1,8,-1
 162 996 l 1,9,-1
 162 826 l 1,10,-1
 645 826 l 1,11,-1
 645 17 l 2,12,13
 645 -111 645 -111 587.5 -178 c 128,-1,14
 530 -245 530 -245 414 -245 c 0,15,16
 304 -245 304 -245 179 -194 c 0,17,18
 152 -183 152 -183 129 -171 c 1,19,-1
 129 -372 l 1,20,0
 176 -391 176 -391 248.5 -405.5 c 128,-1,1
882 1246 m 128,-1,22
 893 1273 893 1273 893 1304 c 128,-1,23
 893 1335 893 1335 881.5 1362 c 128,-1,24
 870 1389 870 1389 850 1410 c 128,-1,25
 830 1431 830 1431 802.5 1442.5 c 128,-1,26
 775 1454 775 1454 743 1454 c 128,-1,27
 711 1454 711 1454 684 1442.5 c 128,-1,28
 657 1431 657 1431 637 1410 c 128,-1,29
 617 1389 617 1389 605.5 1362 c 128,-1,30
 594 1335 594 1335 594 1304 c 128,-1,31
 594 1273 594 1273 605 1246 c 128,-1,32
 616 1219 616 1219 636.5 1198.5 c 128,-1,33
 657 1178 657 1178 684 1166.5 c 128,-1,34
 711 1155 711 1155 743 1155 c 128,-1,35
 775 1155 775 1155 802.5 1166.5 c 128,-1,36
 830 1178 830 1178 850.5 1198.5 c 128,-1,21
 871 1219 871 1219 882 1246 c 128,-1,22
EndSplineSet
Substitution2: "<10,1> Superiors in Latin lookup 5 subtable" uni02B2
EndChar

StartChar: k
Encoding: 107 107 78
Width: 1126
Flags: W
LayerCount: 2
Fore
SplineSet
159 20 m 1,0,-1
 383 20 l 1,1,-1
 383 548 l 1,2,-1
 773 20 l 1,3,-1
 1066 20 l 1,4,-1
 628 563 l 1,5,-1
 1031 1016 l 1,6,-1
 753 1016 l 1,7,-1
 383 568 l 1,8,-1
 383 1413 l 1,9,-1
 159 1413 l 1,10,-1
 159 20 l 1,0,-1
EndSplineSet
Substitution2: "<10,1> Superiors in Latin lookup 5 subtable" uni1D4F
EndChar

StartChar: l
Encoding: 108 108 79
Width: 1126
Flags: W
LayerCount: 2
Fore
SplineSet
190 1243 m 1,0,-1
 477 1243 l 1,1,-1
 477 190 l 1,2,-1
 155 190 l 1,3,-1
 155 20 l 1,4,-1
 1000 20 l 1,5,-1
 1000 190 l 1,6,-1
 707 190 l 1,7,-1
 707 1413 l 1,8,-1
 190 1413 l 1,9,-1
 190 1243 l 1,0,-1
EndSplineSet
EndChar

StartChar: m
Encoding: 109 109 80
Width: 1126
Flags: W
LayerCount: 2
Fore
SplineSet
469 20 m 1,0,-1
 658 20 l 1,1,-1
 658 671 l 1,2,3
 697 775 697 775 729 819.5 c 128,-1,4
 761 864 761 864 797 864 c 0,5,6
 821 864 821 864 835 852.5 c 128,-1,7
 849 841 849 841 855.5 820 c 128,-1,8
 862 799 862 799 864 769.5 c 128,-1,9
 866 740 866 740 866 702 c 2,10,-1
 866 20 l 1,11,-1
 1057 20 l 1,12,-1
 1057 739 l 2,13,14
 1057 888 1057 888 1006.5 962 c 128,-1,15
 956 1036 956 1036 850 1036 c 0,16,17
 815 1036 815 1036 787.5 1027.5 c 128,-1,18
 760 1019 760 1019 736 1000 c 0,19,20
 689 962 689 962 642 873 c 2,21,-1
 626 843 l 1,22,-1
 623 877 l 2,23,24
 617 953 617 953 575.5 994.5 c 128,-1,25
 534 1036 534 1036 453 1036 c 0,26,27
 419 1036 419 1036 392 1028 c 0,28,29
 338 1011 338 1011 296 949 c 0,30,31
 275 918 275 918 253 874 c 2,32,-1
 235 837 l 1,33,-1
 230 1016 l 1,34,-1
 69 1016 l 1,35,-1
 69 20 l 1,36,-1
 260 20 l 1,37,-1
 260 671 l 1,38,39
 300 775 300 775 334 819.5 c 128,-1,40
 368 864 368 864 399 864 c 0,41,42
 444 864 444 864 459 819 c 0,43,44
 465 799 465 799 467 769.5 c 128,-1,45
 469 740 469 740 469 702 c 2,46,-1
 469 20 l 1,0,-1
EndSplineSet
Substitution2: "<10,1> Superiors in Latin lookup 5 subtable" uni1D50
EndChar

StartChar: n
Encoding: 110 110 81
Width: 1126
Flags: W
LayerCount: 2
Fore
SplineSet
149 20 m 1,0,-1
 373 20 l 1,1,-1
 373 656 l 1,2,3
 439 746 439 746 497 797.5 c 128,-1,4
 555 849 555 849 621 849 c 0,5,6
 696 849 696 849 729 793 c 0,7,8
 755 749 755 749 755 672 c 2,9,-1
 755 20 l 1,10,-1
 979 20 l 1,11,-1
 979 692 l 2,12,13
 979 772 979 772 960 835 c 0,14,15
 922 964 922 964 810 1013 c 0,16,17
 754 1038 754 1038 678 1038 c 0,18,19
 623 1038 623 1038 580 1026 c 0,20,21
 494 1004 494 1004 427 940 c 0,22,23
 394 908 394 908 364 870 c 2,24,-1
 347 849 l 1,25,-1
 340 1016 l 1,26,-1
 149 1016 l 1,27,-1
 149 20 l 1,0,-1
EndSplineSet
Substitution2: "<10,1> Superiors in Latin lookup 5 subtable" uni207F
EndChar

StartChar: o
Encoding: 111 111 82
Width: 1126
Flags: W
LayerCount: 2
Fore
SplineSet
761 16 m 128,-1,1
 852 55 852 55 914.5 125.5 c 128,-1,2
 977 196 977 196 1010.5 296 c 128,-1,3
 1044 396 1044 396 1044 520.5 c 128,-1,4
 1044 645 1044 645 1012 742.5 c 128,-1,5
 980 840 980 840 919.5 905.5 c 128,-1,6
 859 971 859 971 772 1004.5 c 128,-1,7
 685 1038 685 1038 571.5 1038 c 128,-1,8
 458 1038 458 1038 367 999.5 c 128,-1,9
 276 961 276 961 213 891.5 c 128,-1,10
 150 822 150 822 116 722.5 c 128,-1,11
 82 623 82 623 82 496.5 c 128,-1,12
 82 370 82 370 114 272 c 0,13,14
 178 77 178 77 354 10 c 0,15,16
 442 -23 442 -23 556 -23 c 128,-1,0
 670 -23 670 -23 761 16 c 128,-1,1
748 754 m 128,-1,18
 810 671 810 671 810 510 c 0,19,20
 810 441 810 441 795.5 380.5 c 128,-1,21
 781 320 781 320 752 274.5 c 128,-1,22
 723 229 723 229 676 203.5 c 128,-1,23
 629 178 629 178 565 178 c 0,24,25
 449 178 449 178 382.5 262 c 128,-1,26
 316 346 316 346 316 508 c 0,27,28
 316 575 316 575 330 634.5 c 128,-1,29
 344 694 344 694 374 739.5 c 128,-1,30
 404 785 404 785 451 811 c 128,-1,31
 498 837 498 837 565 837 c 0,32,17
 686 837 686 837 748 754 c 128,-1,18
EndSplineSet
Substitution2: "<10,1> Superiors in Latin lookup 5 subtable" uni1D52
EndChar

StartChar: p
Encoding: 112 112 83
Width: 1126
Flags: W
LayerCount: 2
Fore
SplineSet
1004 283.5 m 128,-1,1
 1043 386 1043 386 1043 526 c 0,2,3
 1043 645 1043 645 1018.5 740 c 128,-1,4
 994 835 994 835 947.5 901 c 128,-1,5
 901 967 901 967 833.5 1002.5 c 128,-1,6
 766 1038 766 1038 678 1038 c 0,7,8
 623 1038 623 1038 580 1026 c 0,9,10
 494 1003 494 1003 427 939 c 0,11,12
 394 907 394 907 364 868 c 2,13,-1
 347 846 l 1,14,-1
 340 1016 l 1,15,-1
 149 1016 l 1,16,-1
 149 -397 l 1,17,-1
 373 -397 l 1,18,-1
 373 3 l 1,19,20
 454 -18 454 -18 528 -18 c 0,21,22
 639 -18 639 -18 733.5 14.5 c 128,-1,23
 828 47 828 47 896.5 114 c 128,-1,0
 965 181 965 181 1004 283.5 c 128,-1,1
621 839 m 0,24,25
 807 839 807 839 807 518 c 0,26,27
 807 436 807 436 788.5 370.5 c 128,-1,28
 770 305 770 305 735.5 259.5 c 128,-1,29
 701 214 701 214 651 189 c 128,-1,30
 601 164 601 164 541 164 c 0,31,32
 496 164 496 164 452.5 171 c 128,-1,33
 409 178 409 178 373 192 c 1,34,-1
 373 646 l 1,35,36
 439 736 439 736 497 787.5 c 128,-1,37
 555 839 555 839 621 839 c 0,24,25
EndSplineSet
Substitution2: "<10,1> Superiors in Latin lookup 5 subtable" uni1D56
EndChar

StartChar: q
Encoding: 113 113 84
Width: 1126
Flags: W
LayerCount: 2
Fore
SplineSet
755 -73 m 1,0,-1
 755 -397 l 1,1,-1
 979 -397 l 1,2,-1
 979 1034 l 1,3,-1
 820 999 l 1,4,5
 753 1021 753 1021 654 1031 c 0,6,7
 624 1034 624 1034 600 1034 c 0,8,9
 471 1034 471 1034 375 994.5 c 128,-1,10
 279 955 279 955 215 883.5 c 128,-1,11
 151 812 151 812 118.5 711 c 128,-1,12
 86 610 86 610 86 490.5 c 128,-1,13
 86 371 86 371 110.5 275.5 c 128,-1,14
 135 180 135 180 181.5 114 c 128,-1,15
 228 48 228 48 295.5 12.5 c 128,-1,16
 363 -23 363 -23 451 -23 c 0,17,18
 590 -23 590 -23 690 68 c 0,19,20
 721 97 721 97 748 131 c 2,21,-1
 768 156 l 1,22,-1
 755 -73 l 1,0,-1
508 176 m 0,23,24
 464 176 464 176 428 195 c 0,25,26
 322 251 322 251 322 498 c 0,27,28
 322 580 322 580 340.5 645.5 c 128,-1,29
 359 711 359 711 393.5 756.5 c 128,-1,30
 428 802 428 802 477.5 827 c 128,-1,31
 527 852 527 852 588 852 c 0,32,33
 632 852 632 852 675.5 845 c 128,-1,34
 719 838 719 838 755 824 c 1,35,-1
 755 370 l 1,36,37
 689 279 689 279 631.5 227.5 c 128,-1,38
 574 176 574 176 508 176 c 0,23,24
EndSplineSet
EndChar

StartChar: r
Encoding: 114 114 85
Width: 1126
Flags: W
LayerCount: 2
Fore
SplineSet
190 20 m 1,0,-1
 420 20 l 1,1,-1
 420 656 l 1,2,3
 492 762 492 762 551.5 808 c 128,-1,4
 611 854 611 854 668 854 c 0,5,6
 737 854 737 854 772 799 c 0,7,8
 789 772 789 772 796 734.5 c 128,-1,9
 803 697 803 697 803 654 c 0,10,11
 803 648 803 648 803 641 c 1,12,-1
 1028 641 l 1,13,14
 1028 650 1028 650 1028 658 c 0,15,16
 1028 743 1028 743 1012 810 c 0,17,18
 974 960 974 960 857 1012 c 0,19,20
 800 1038 800 1038 725 1038 c 0,21,22
 619 1038 619 1038 542 993 c 0,23,24
 468 950 468 950 418 873 c 2,25,-1
 402 847 l 1,26,-1
 392 1016 l 1,27,-1
 190 1016 l 1,28,-1
 190 20 l 1,0,-1
EndSplineSet
Substitution2: "<10,1> Superiors in Latin lookup 5 subtable" uni02B3
EndChar

StartChar: s
Encoding: 115 115 86
Width: 1126
Flags: W
LayerCount: 2
Fore
SplineSet
930 148.5 m 128,-1,1
 967 209 967 209 967 295 c 0,2,3
 967 353 967 353 951.5 398 c 128,-1,4
 936 443 936 443 901 478.5 c 128,-1,5
 866 514 866 514 807 542.5 c 128,-1,6
 748 571 748 571 665.5 595 c 128,-1,7
 583 619 583 619 534.5 638 c 128,-1,8
 486 657 486 657 458 675.5 c 128,-1,9
 430 694 430 694 420 714.5 c 128,-1,10
 410 735 410 735 410 761 c 0,11,12
 410 816 410 816 460 846 c 0,13,14
 508 875 508 875 585 875 c 128,-1,15
 662 875 662 875 736.5 863.5 c 128,-1,16
 811 852 811 852 891 827 c 1,17,-1
 891 1007 l 1,18,19
 837 1019 837 1019 766 1028.5 c 128,-1,20
 695 1038 695 1038 600 1038 c 0,21,22
 490 1038 490 1038 409 1014 c 128,-1,23
 328 990 328 990 274 949 c 128,-1,24
 220 908 220 908 193 854 c 128,-1,25
 166 800 166 800 166 738 c 128,-1,26
 166 676 166 676 184 629.5 c 128,-1,27
 202 583 202 583 237.5 547.5 c 128,-1,28
 273 512 273 512 328 485.5 c 128,-1,29
 383 459 383 459 461 437 c 128,-1,30
 539 415 539 415 589.5 395.5 c 128,-1,31
 640 376 640 376 669.5 357.5 c 128,-1,32
 699 339 699 339 710 317 c 128,-1,33
 721 295 721 295 721 269 c 0,34,35
 721 214 721 214 670 180.5 c 128,-1,36
 619 147 619 147 520 147 c 0,37,38
 436 147 436 147 345 164.5 c 128,-1,39
 254 182 254 182 166 218 c 1,40,-1
 166 16 l 1,41,42
 242 -2 242 -2 329.5 -12.5 c 128,-1,43
 417 -23 417 -23 528 -23 c 0,44,45
 611 -23 611 -23 690 -5.5 c 128,-1,46
 769 12 769 12 831 50 c 128,-1,0
 893 88 893 88 930 148.5 c 128,-1,1
EndSplineSet
EndChar

StartChar: t
Encoding: 116 116 87
Width: 1126
Flags: W
LayerCount: 2
Fore
SplineSet
342 839 m 1,0,-1
 342 325 l 2,1,2
 342 234 342 234 364 168.5 c 128,-1,3
 386 103 386 103 431.5 61 c 128,-1,4
 477 19 477 19 547.5 -2 c 128,-1,5
 618 -23 618 -23 722.5 -23 c 128,-1,6
 827 -23 827 -23 967 8 c 1,7,-1
 967 185 l 1,8,9
 925 174 925 174 871 164.5 c 128,-1,10
 817 155 817 155 756 155 c 0,11,12
 658 155 658 155 615 203 c 128,-1,13
 572 251 572 251 572 343 c 2,14,-1
 572 839 l 1,15,-1
 967 839 l 1,16,-1
 967 1011 l 1,17,-1
 572 1011 l 1,18,-1
 572 1338 l 1,19,-1
 342 1278 l 1,20,-1
 342 1012 l 1,21,-1
 69 1012 l 1,22,-1
 69 839 l 1,23,-1
 342 839 l 1,0,-1
EndSplineSet
Substitution2: "<10,1> Superiors in Latin lookup 5 subtable" uni1D57
EndChar

StartChar: u
Encoding: 117 117 88
Width: 1126
Flags: W
LayerCount: 2
Fore
SplineSet
977 996 m 1,0,-1
 753 996 l 1,1,-1
 753 360 l 1,2,3
 687 270 687 270 629 218 c 128,-1,4
 571 166 571 166 504.5 166 c 128,-1,5
 438 166 438 166 404.5 212 c 128,-1,6
 371 258 371 258 371 344 c 2,7,-1
 371 996 l 1,8,-1
 147 996 l 1,9,-1
 147 324 l 2,10,11
 147 163 147 163 223 71 c 0,12,13
 260 26 260 26 316.5 1.5 c 128,-1,14
 373 -23 373 -23 449 -23 c 0,15,16
 596 -23 596 -23 698 76 c 0,17,18
 731 108 731 108 762 146 c 2,19,-1
 779 167 l 1,20,-1
 786 0 l 1,21,-1
 977 0 l 1,22,-1
 977 996 l 1,0,-1
EndSplineSet
Substitution2: "<10,1> Superiors in Latin lookup 5 subtable" uni1D58
EndChar

StartChar: v
Encoding: 118 118 89
Width: 1126
Flags: W
LayerCount: 2
Fore
SplineSet
38 1006 m 1,0,-1
 433 10 l 1,1,-1
 700 10 l 1,2,-1
 1091 1006 l 1,3,-1
 851 1006 l 1,4,-1
 640 429 l 1,5,-1
 569 223 l 1,6,-1
 497 437 l 1,7,-1
 288 1006 l 1,8,-1
 38 1006 l 1,0,-1
EndSplineSet
Substitution2: "<10,1> Superiors in Latin lookup 5 subtable" uni1D5B
EndChar

StartChar: w
Encoding: 119 119 90
Width: 1126
Flags: W
LayerCount: 2
Fore
SplineSet
604 325 m 1,0,-1
 709 10 l 1,1,-1
 964 10 l 1,2,-1
 1104 1006 l 1,3,-1
 904 1006 l 1,4,-1
 844 443 l 1,5,-1
 820 236 l 1,6,-1
 759 425 l 1,7,-1
 652 725 l 1,8,-1
 480 725 l 1,9,-1
 381 423 l 1,10,-1
 325 234 l 1,11,-1
 303 441 l 1,12,-1
 231 1006 l 1,13,-1
 20 1006 l 1,14,-1
 161 10 l 1,15,-1
 417 10 l 1,16,-1
 518 322 l 1,17,-1
 561 470 l 1,18,-1
 604 325 l 1,0,-1
EndSplineSet
Substitution2: "<10,1> Superiors in Latin lookup 5 subtable" uni02B7
EndChar

StartChar: x
Encoding: 120 120 91
Width: 1126
Flags: W
LayerCount: 2
Fore
SplineSet
53 10 m 1,0,-1
 323 10 l 1,1,-1
 561 360 l 1,2,-1
 798 10 l 1,3,-1
 1077 10 l 1,4,-1
 715 514 l 1,5,-1
 1058 1006 l 1,6,-1
 808 1006 l 1,7,-1
 578 664 l 1,8,-1
 345 1006 l 1,9,-1
 72 1006 l 1,10,-1
 426 512 l 1,11,-1
 53 10 l 1,0,-1
EndSplineSet
EndChar

StartChar: y
Encoding: 121 121 92
Width: 1126
Flags: W
LayerCount: 2
Fore
SplineSet
65 -225 m 1,0,-1
 65 -411 l 1,1,2
 122 -420 122 -420 170 -420 c 0,3,4
 273 -420 273 -420 355.5 -387 c 128,-1,5
 438 -354 438 -354 506 -289 c 128,-1,6
 574 -224 574 -224 631 -125.5 c 128,-1,7
 688 -27 688 -27 741 105 c 2,8,-1
 1091 996 l 1,9,-1
 851 996 l 1,10,-1
 640 419 l 1,11,-1
 569 213 l 1,12,-1
 497 427 l 1,13,-1
 288 996 l 1,14,-1
 38 996 l 1,15,-1
 437 -10 l 1,16,17
 372 -170 372 -170 264 -218 c 0,18,19
 226 -235 226 -235 182 -235 c 0,20,21
 154 -235 154 -235 125 -232 c 0,22,23
 96 -230 96 -230 65 -225 c 1,0,-1
EndSplineSet
Substitution2: "<10,1> Superiors in Latin lookup 5 subtable" uni02B8
EndChar

StartChar: z
Encoding: 122 122 93
Width: 1126
Flags: W
LayerCount: 2
Fore
SplineSet
160 167 m 1,0,-1
 160 10 l 1,1,-1
 967 10 l 1,2,-1
 967 205 l 1,3,-1
 463 205 l 1,4,-1
 959 847 l 1,5,-1
 959 1006 l 1,6,-1
 172 1006 l 1,7,-1
 172 817 l 1,8,-1
 667 817 l 1,9,-1
 160 167 l 1,0,-1
EndSplineSet
Substitution2: "<10,1> Superiors in Latin lookup 5 subtable" uni1DBB
EndChar

StartChar: braceleft
Encoding: 123 123 94
Width: 1126
Flags: W
LayerCount: 2
Fore
SplineSet
553 -388 m 2,0,1
 436 -388 436 -388 383 -333 c 128,-1,2
 330 -278 330 -278 330 -193 c 2,3,-1
 330 -9 l 2,4,5
 330 42 330 42 341 80 c 128,-1,6
 352 118 352 118 367.5 147 c 128,-1,7
 383 176 383 176 402.5 199.5 c 128,-1,8
 422 223 422 223 440 244 c 0,9,10
 473 283 473 283 485.5 311.5 c 128,-1,11
 498 340 498 340 498 371 c 0,12,13
 498 488 498 488 272 488 c 2,14,-1
 102 488 l 1,15,-1
 102 660 l 1,16,-1
 272 660 l 2,17,18
 498 660 498 660 498 777 c 0,19,20
 498 808 498 808 485.5 836.5 c 128,-1,21
 473 865 473 865 440 904 c 0,22,23
 422 925 422 925 402.5 948.5 c 128,-1,24
 383 972 383 972 367.5 1001 c 128,-1,25
 352 1030 352 1030 341 1068 c 128,-1,26
 330 1106 330 1106 330 1157 c 2,27,-1
 330 1255 l 2,28,29
 330 1340 330 1340 383 1395 c 128,-1,30
 436 1450 436 1450 553 1450 c 2,31,-1
 898 1450 l 1,32,-1
 898 1278 l 1,33,-1
 533 1278 l 1,34,-1
 533 1169 l 2,35,36
 533 1093 533 1093 556.5 1052 c 128,-1,37
 580 1011 580 1011 611 972 c 0,38,39
 644 931 644 931 673.5 884 c 128,-1,40
 703 837 703 837 703 775 c 0,41,42
 703 693 703 693 646.5 643.5 c 128,-1,43
 590 594 590 594 479 580 c 1,44,-1
 479 568 l 1,45,46
 590 554 590 554 646.5 504.5 c 128,-1,47
 703 455 703 455 703 373 c 0,48,49
 703 311 703 311 673.5 264 c 128,-1,50
 644 217 644 217 611 176 c 0,51,52
 580 137 580 137 556.5 96 c 128,-1,53
 533 55 533 55 533 -21 c 2,54,-1
 533 -216 l 1,55,-1
 898 -216 l 1,56,-1
 898 -388 l 1,57,-1
 553 -388 l 2,0,1
EndSplineSet
Substitution2: "'rtla' Right to Left Alternates in Greek lookup 0 subtable" braceright
EndChar

StartChar: bar
Encoding: 124 124 95
Width: 1126
Flags: W
LayerCount: 2
Fore
SplineSet
461 1628 m 1,0,-1
 461 -400 l 1,1,-1
 666 -400 l 1,2,-1
 666 1628 l 1,3,-1
 461 1628 l 1,0,-1
EndSplineSet
EndChar

StartChar: braceright
Encoding: 125 125 96
Width: 1126
Flags: W
LayerCount: 2
Fore
SplineSet
572 -388 m 2,0,1
 689 -388 689 -388 742 -333 c 128,-1,2
 795 -278 795 -278 795 -193 c 2,3,-1
 795 -9 l 2,4,5
 795 42 795 42 784 80 c 128,-1,6
 773 118 773 118 757.5 147 c 128,-1,7
 742 176 742 176 722.5 199.5 c 128,-1,8
 703 223 703 223 685 244 c 0,9,10
 652 283 652 283 639.5 311.5 c 128,-1,11
 627 340 627 340 627 371 c 0,12,13
 627 488 627 488 853 488 c 2,14,-1
 1023 488 l 1,15,-1
 1023 660 l 1,16,-1
 853 660 l 2,17,18
 627 660 627 660 627 777 c 0,19,20
 627 808 627 808 639.5 836.5 c 128,-1,21
 652 865 652 865 685 904 c 0,22,23
 703 925 703 925 722.5 948.5 c 128,-1,24
 742 972 742 972 757.5 1001 c 128,-1,25
 773 1030 773 1030 784 1068 c 128,-1,26
 795 1106 795 1106 795 1157 c 2,27,-1
 795 1255 l 2,28,29
 795 1340 795 1340 742 1395 c 128,-1,30
 689 1450 689 1450 572 1450 c 2,31,-1
 227 1450 l 1,32,-1
 227 1278 l 1,33,-1
 592 1278 l 1,34,-1
 592 1169 l 2,35,36
 592 1093 592 1093 568.5 1052 c 128,-1,37
 545 1011 545 1011 514 972 c 0,38,39
 481 931 481 931 451.5 884 c 128,-1,40
 422 837 422 837 422 775 c 0,41,42
 422 693 422 693 478.5 643.5 c 128,-1,43
 535 594 535 594 646 580 c 1,44,-1
 646 568 l 1,45,46
 535 554 535 554 478.5 504.5 c 128,-1,47
 422 455 422 455 422 373 c 0,48,49
 422 311 422 311 451.5 264 c 128,-1,50
 481 217 481 217 514 176 c 0,51,52
 545 137 545 137 568.5 96 c 128,-1,53
 592 55 592 55 592 -21 c 2,54,-1
 592 -216 l 1,55,-1
 227 -216 l 1,56,-1
 227 -388 l 1,57,-1
 572 -388 l 2,0,1
EndSplineSet
Substitution2: "'rtla' Right to Left Alternates in Greek lookup 0 subtable" braceleft
EndChar

StartChar: asciitilde
Encoding: 126 126 97
Width: 1126
Flags: W
LayerCount: 2
Fore
SplineSet
344 579 m 0,0,1
 378 579 378 579 407.5 559.5 c 128,-1,2
 437 540 437 540 466.5 512.5 c 128,-1,3
 496 485 496 485 527.5 453 c 128,-1,4
 559 421 559 421 595.5 394 c 128,-1,5
 632 367 632 367 676 349 c 128,-1,6
 720 331 720 331 774 331 c 0,7,8
 856 331 856 331 912 361 c 128,-1,9
 968 391 968 391 1003 442.5 c 128,-1,10
 1038 494 1038 494 1053 561 c 128,-1,11
 1068 628 1068 628 1069 699 c 1,12,-1
 884 699 l 1,13,14
 883 606 883 606 859 566 c 0,15,16
 833 522 833 522 782 522 c 0,17,18
 748 522 748 522 718.5 541.5 c 128,-1,19
 689 561 689 561 659.5 589 c 128,-1,20
 630 617 630 617 598.5 648.5 c 128,-1,21
 567 680 567 680 530.5 707 c 128,-1,22
 494 734 494 734 450 752 c 128,-1,23
 406 770 406 770 352 770 c 0,24,25
 270 770 270 770 214 740 c 0,26,27
 105 682 105 682 73 539 c 0,28,29
 58 474 58 474 57 403 c 1,30,-1
 242 403 l 1,31,32
 243 496 243 496 267 535 c 0,33,34
 294 579 294 579 344 579 c 0,0,1
EndSplineSet
EndChar

StartChar: exclamdown
Encoding: 161 161 98
Width: 1126
Flags: W
LayerCount: 2
Fore
SplineSet
658 600 m 1,0,-1
 469 600 l 1,1,-1
 432 -387 l 1,2,-1
 695 -387 l 1,3,-1
 658 600 l 1,0,-1
563 737 m 128,-1,5
 593 737 593 737 619.5 748 c 128,-1,6
 646 759 646 759 666 779 c 128,-1,7
 686 799 686 799 697.5 825.5 c 128,-1,8
 709 852 709 852 709 883 c 128,-1,9
 709 914 709 914 697.5 940.5 c 128,-1,10
 686 967 686 967 666 986.5 c 128,-1,11
 646 1006 646 1006 619.5 1017 c 128,-1,12
 593 1028 593 1028 563 1028 c 128,-1,13
 533 1028 533 1028 506.5 1017 c 128,-1,14
 480 1006 480 1006 460 986.5 c 128,-1,15
 440 967 440 967 429 940.5 c 128,-1,16
 418 914 418 914 418 883 c 128,-1,17
 418 852 418 852 429 825.5 c 128,-1,18
 440 799 440 799 460 779 c 128,-1,19
 480 759 480 759 506.5 748 c 128,-1,4
 533 737 533 737 563 737 c 128,-1,5
EndSplineSet
EndChar

StartChar: cent
Encoding: 162 162 99
Width: 1126
Flags: W
LayerCount: 2
Fore
SplineSet
123 653 m 0,0,1
 123 445 123 445 220 327.5 c 128,-1,2
 317 210 317 210 496 180 c 1,3,-1
 505 178 l 1,4,-1
 447 -240 l 1,5,-1
 601 -240 l 1,6,-1
 657 174 l 1,7,8
 733 176 733 176 794.5 188 c 128,-1,9
 856 200 856 200 912 224 c 1,10,-1
 912 415 l 1,11,12
 866 396 866 396 809.5 380 c 128,-1,13
 753 364 753 364 693 361 c 2,14,-1
 680 360 l 1,15,-1
 764 966 l 1,16,-1
 774 964 l 2,17,18
 845 950 845 950 908 919 c 1,19,-1
 908 1128 l 1,20,21
 868 1141 868 1141 788 1153 c 1,22,-1
 831 1485 l 1,23,-1
 677 1485 l 1,24,-1
 634 1159 l 1,25,-1
 625 1159 l 2,26,27
 510 1157 510 1157 417.5 1121.5 c 128,-1,28
 325 1086 325 1086 259.5 1020.5 c 128,-1,29
 194 955 194 955 158.5 862 c 128,-1,30
 123 769 123 769 123 653 c 0,0,1
359 668 m 0,31,32
 359 796 359 796 420.5 877 c 128,-1,33
 482 958 482 958 597 973 c 2,34,-1
 610 975 l 1,35,-1
 530 380 l 1,36,-1
 519 384 l 2,37,38
 441 410 441 410 400 484.5 c 128,-1,39
 359 559 359 559 359 668 c 0,31,32
EndSplineSet
EndChar

StartChar: sterling
Encoding: 163 163 100
Width: 1126
Flags: W
LayerCount: 2
Fore
SplineSet
869 565 m 1,0,-1
 869 727 l 1,1,-1
 463 727 l 1,2,-1
 463 903 l 2,3,4
 463 1022 463 1022 520.5 1082.5 c 128,-1,5
 578 1143 578 1143 682 1143 c 0,6,7
 708 1143 708 1143 738 1136 c 0,8,9
 800 1123 800 1123 855 1085 c 0,10,11
 878 1069 878 1069 899 1049 c 1,12,-1
 1017 1184 l 1,13,14
 960 1246 960 1246 869 1282.5 c 128,-1,15
 778 1319 778 1319 666 1319 c 0,16,17
 566 1319 566 1319 487.5 1291 c 128,-1,18
 409 1263 409 1263 355 1209.5 c 128,-1,19
 301 1156 301 1156 272 1077 c 128,-1,20
 243 998 243 998 243 895 c 2,21,-1
 243 727 l 1,22,-1
 86 727 l 1,23,-1
 86 565 l 1,24,-1
 243 565 l 1,25,-1
 243 199 l 1,26,-1
 86 199 l 1,27,-1
 86 10 l 1,28,-1
 1002 10 l 1,29,-1
 1002 199 l 1,30,-1
 463 199 l 1,31,-1
 463 565 l 1,32,-1
 869 565 l 1,0,-1
EndSplineSet
EndChar

StartChar: currency
Encoding: 164 164 101
Width: 1126
Flags: W
LayerCount: 2
Fore
SplineSet
889 931 m 2,0,-1
 885 937 l 1,1,-1
 1070 1181 l 1,2,-1
 886 1283 l 1,3,-1
 731 1057 l 1,4,5
 690 1071 690 1071 652 1077.5 c 128,-1,6
 614 1084 614 1084 570 1084 c 0,7,8
 486 1084 486 1084 412 1056 c 2,9,-1
 404 1053 l 1,10,-1
 245 1283 l 1,11,-1
 56 1179 l 1,12,-1
 245 927 l 1,13,-1
 241 921 l 1,14,15
 174 813 174 813 174 657 c 0,16,17
 174 487 174 487 239 389 c 2,18,-1
 243 383 l 1,19,-1
 56 140 l 1,20,-1
 241 38 l 1,21,-1
 395 264 l 1,22,23
 436 251 436 251 474.5 245 c 128,-1,24
 513 239 513 239 556 239 c 0,25,26
 645 239 645 239 715 267 c 2,27,-1
 723 270 l 1,28,-1
 882 38 l 1,29,-1
 1070 142 l 1,30,-1
 879 395 l 1,31,-1
 883 400 l 1,32,33
 953 511 953 511 953 669.5 c 128,-1,34
 953 828 953 828 889 931 c 2,0,-1
706 486 m 0,35,36
 683 452 683 452 648 433 c 128,-1,37
 613 414 613 414 565 414 c 0,38,39
 477 414 477 414 427 477 c 128,-1,40
 377 540 377 540 377 662 c 0,41,42
 377 770 377 770 420 835 c 0,43,44
 443 870 443 870 478.5 889.5 c 128,-1,45
 514 909 514 909 565 909 c 0,46,47
 667 909 667 909 713 832 c 0,48,49
 749 771 749 771 749 661 c 128,-1,50
 749 551 749 551 706 486 c 0,35,36
EndSplineSet
EndChar

StartChar: yen
Encoding: 165 165 102
Width: 1126
Flags: W
LayerCount: 2
Fore
SplineSet
674 570 m 1,0,-1
 674 611 l 1,1,-1
 1075 1297 l 1,2,-1
 831 1297 l 1,3,-1
 668 990 l 1,4,-1
 571 801 l 1,5,-1
 470 999 l 1,6,-1
 307 1297 l 1,7,-1
 56 1297 l 1,8,-1
 452 611 l 1,9,-1
 452 608 l 1,10,-1
 452 570 l 1,11,-1
 160 570 l 1,12,-1
 160 436 l 1,13,-1
 452 436 l 1,14,-1
 452 279 l 1,15,-1
 160 279 l 1,16,-1
 160 145 l 1,17,-1
 452 145 l 1,18,-1
 452 10 l 1,19,-1
 674 10 l 1,20,-1
 674 145 l 1,21,-1
 965 145 l 1,22,-1
 965 279 l 1,23,-1
 674 279 l 1,24,-1
 674 436 l 1,25,-1
 965 436 l 1,26,-1
 965 570 l 1,27,-1
 674 570 l 1,0,-1
EndSplineSet
EndChar

StartChar: brokenbar
Encoding: 166 166 103
Width: 1126
Flags: W
LayerCount: 2
Fore
SplineSet
461 1628 m 1,0,-1
 461 817 l 1,1,-1
 666 817 l 1,2,-1
 666 1628 l 1,3,-1
 461 1628 l 1,0,-1
461 436 m 1,4,-1
 461 -400 l 1,5,-1
 666 -400 l 1,6,-1
 666 436 l 1,7,-1
 461 436 l 1,4,-1
EndSplineSet
EndChar

StartChar: section
Encoding: 167 167 104
Width: 1126
Flags: W
LayerCount: 2
Fore
SplineSet
1039 537 m 0,0,1
 1039 604 1039 604 1015 658.5 c 128,-1,2
 991 713 991 713 952 758 c 128,-1,3
 913 803 913 803 863 839 c 0,4,5
 780 899 780 899 656 967 c 0,6,7
 605 995 605 995 564 1022.5 c 128,-1,8
 523 1050 523 1050 497 1080.5 c 128,-1,9
 471 1111 471 1111 471 1147 c 0,10,11
 471 1202 471 1202 522 1230 c 0,12,13
 570 1257 570 1257 645 1257 c 128,-1,14
 720 1257 720 1257 793 1246 c 128,-1,15
 866 1235 866 1235 944 1211 c 1,16,-1
 944 1391 l 1,17,18
 890 1402 890 1402 820.5 1412 c 128,-1,19
 751 1422 751 1422 659 1422 c 0,20,21
 552 1422 552 1422 472.5 1398.5 c 128,-1,22
 393 1375 393 1375 339.5 1334.5 c 128,-1,23
 286 1294 286 1294 259.5 1241 c 128,-1,24
 233 1188 233 1188 233 1126 c 0,25,26
 233 1082 233 1082 245.5 1045.5 c 128,-1,27
 258 1009 258 1009 279 976 c 2,28,-1
 284 968 l 1,29,-1
 275 962 l 2,30,31
 232 936 232 936 199 902 c 128,-1,32
 166 868 166 868 144 830 c 0,33,34
 100 752 100 752 100 672 c 0,35,36
 100 604 100 604 124 549 c 128,-1,37
 148 494 148 494 186.5 449.5 c 128,-1,38
 225 405 225 405 275 368.5 c 128,-1,39
 325 332 325 332 377.5 301.5 c 128,-1,40
 430 271 430 271 481 243.5 c 128,-1,41
 532 216 532 216 572.5 187.5 c 128,-1,42
 613 159 613 159 639 129 c 128,-1,43
 665 99 665 99 665 61 c 0,44,45
 665 8 665 8 614.5 -25.5 c 128,-1,46
 564 -59 564 -59 467 -59 c 0,47,48
 385 -59 385 -59 296 -44.5 c 128,-1,49
 207 -30 207 -30 121 3 c 1,50,-1
 121 -187 l 1,51,52
 195 -206 195 -206 281 -216 c 128,-1,53
 367 -226 367 -226 475 -226 c 0,54,55
 556 -226 556 -226 633.5 -209 c 128,-1,56
 711 -192 711 -192 771.5 -154 c 128,-1,57
 832 -116 832 -116 868.5 -56.5 c 128,-1,58
 905 3 905 3 905 88 c 0,59,60
 905 131 905 131 894 164.5 c 128,-1,61
 883 198 883 198 864 221 c 2,62,-1
 857 229 l 1,63,-1
 866 235 l 2,64,65
 946 288 946 288 991 363 c 0,66,67
 1039 443 1039 443 1039 537 c 0,0,1
386 809 m 0,68,69
 400 826 400 826 418 839 c 2,70,-1
 424 843 l 1,71,72
 490 799 490 799 555 762.5 c 128,-1,73
 620 726 620 726 673.5 688.5 c 128,-1,74
 727 651 727 651 762.5 608.5 c 128,-1,75
 798 566 798 566 798 512 c 0,76,77
 798 475 798 475 780.5 436 c 128,-1,78
 763 397 763 397 730 367 c 2,79,-1
 724 362 l 1,80,81
 656 408 656 408 590 444 c 128,-1,82
 524 480 524 480 468.5 517.5 c 128,-1,83
 413 555 413 555 376.5 597 c 128,-1,84
 340 639 340 639 340 696 c 128,-1,85
 340 753 340 753 386 809 c 0,68,69
EndSplineSet
EndChar

StartChar: dieresis
Encoding: 168 168 105
Width: 1126
Flags: W
LayerCount: 2
Fore
SplineSet
481 1292 m 128,-1,1
 481 1318 481 1318 471 1341.5 c 128,-1,2
 461 1365 461 1365 444 1382.5 c 128,-1,3
 427 1400 427 1400 403.5 1410 c 128,-1,4
 380 1420 380 1420 354 1420 c 128,-1,5
 328 1420 328 1420 305 1410 c 128,-1,6
 282 1400 282 1400 264.5 1382.5 c 128,-1,7
 247 1365 247 1365 237 1341.5 c 128,-1,8
 227 1318 227 1318 227 1292 c 128,-1,9
 227 1266 227 1266 237 1243 c 128,-1,10
 247 1220 247 1220 264.5 1202.5 c 128,-1,11
 282 1185 282 1185 305 1175 c 128,-1,12
 328 1165 328 1165 354 1165 c 128,-1,13
 380 1165 380 1165 404 1175 c 0,14,15
 450 1195 450 1195 471 1243 c 0,16,0
 481 1266 481 1266 481 1292 c 128,-1,1
899 1292 m 128,-1,18
 899 1318 899 1318 889.5 1341.5 c 128,-1,19
 880 1365 880 1365 862 1382.5 c 128,-1,20
 844 1400 844 1400 821 1410 c 128,-1,21
 798 1420 798 1420 771.5 1420 c 128,-1,22
 745 1420 745 1420 722.5 1410 c 128,-1,23
 700 1400 700 1400 682 1382.5 c 128,-1,24
 664 1365 664 1365 654.5 1341.5 c 128,-1,25
 645 1318 645 1318 645 1292 c 128,-1,26
 645 1266 645 1266 654.5 1243 c 128,-1,27
 664 1220 664 1220 682 1202.5 c 128,-1,28
 700 1185 700 1185 722.5 1175 c 128,-1,29
 745 1165 745 1165 771.5 1165 c 128,-1,30
 798 1165 798 1165 821 1175 c 128,-1,31
 844 1185 844 1185 862 1202.5 c 128,-1,32
 880 1220 880 1220 889.5 1243 c 128,-1,17
 899 1266 899 1266 899 1292 c 128,-1,18
0 1016 m 1024,33,-1
EndSplineSet
EndChar

StartChar: copyright
Encoding: 169 169 106
Width: 1126
Flags: W
LayerCount: 2
Fore
SplineSet
563 1319 m 128,-1,1
 439 1319 439 1319 340 1266.5 c 128,-1,2
 241 1214 241 1214 171 1123.5 c 128,-1,3
 101 1033 101 1033 63.5 911 c 128,-1,4
 26 789 26 789 26 647 c 128,-1,5
 26 505 26 505 61.5 383 c 128,-1,6
 97 261 97 261 165.5 173 c 128,-1,7
 234 85 234 85 333.5 36 c 128,-1,8
 433 -13 433 -13 560 -13 c 128,-1,9
 687 -13 687 -13 786 39.5 c 128,-1,10
 885 92 885 92 955 182 c 128,-1,11
 1025 272 1025 272 1062.5 393.5 c 128,-1,12
 1100 515 1100 515 1100 653 c 128,-1,13
 1100 791 1100 791 1062.5 912.5 c 128,-1,14
 1025 1034 1025 1034 955 1124.5 c 128,-1,15
 885 1215 885 1215 786 1267 c 128,-1,0
 687 1319 687 1319 563 1319 c 128,-1,1
950 651 m 128,-1,17
 950 544 950 544 925.5 448.5 c 128,-1,18
 901 353 901 353 852.5 280.5 c 128,-1,19
 804 208 804 208 731.5 165.5 c 128,-1,20
 659 123 659 123 562.5 123 c 128,-1,21
 466 123 466 123 394 166 c 128,-1,22
 322 209 322 209 273.5 281.5 c 128,-1,23
 225 354 225 354 200.5 450 c 128,-1,24
 176 546 176 546 176 653.5 c 128,-1,25
 176 761 176 761 200.5 857 c 128,-1,26
 225 953 225 953 273.5 1025 c 128,-1,27
 322 1097 322 1097 394 1140 c 128,-1,28
 466 1183 466 1183 562.5 1183 c 128,-1,29
 659 1183 659 1183 731.5 1139.5 c 128,-1,30
 804 1096 804 1096 852.5 1023.5 c 128,-1,31
 901 951 901 951 925.5 854.5 c 128,-1,16
 950 758 950 758 950 651 c 128,-1,17
749 484 m 1,32,33
 691 466 691 466 652 466 c 0,34,35
 580 466 580 466 547 512.5 c 128,-1,36
 514 559 514 559 514 647 c 0,37,38
 514 692 514 692 521.5 728.5 c 128,-1,39
 529 765 529 765 547 790.5 c 128,-1,40
 565 816 565 816 592.5 830 c 128,-1,41
 620 844 620 844 663.5 844 c 128,-1,42
 707 844 707 844 749 830 c 1,43,-1
 749 982 l 1,44,45
 704 992 704 992 646 992 c 0,46,47
 561 992 561 992 500 963.5 c 128,-1,48
 439 935 439 935 401.5 887.5 c 128,-1,49
 364 840 364 840 346 776.5 c 128,-1,50
 328 713 328 713 328 639.5 c 128,-1,51
 328 566 328 566 346 505 c 0,52,53
 383 383 383 383 492 338 c 0,54,55
 547 315 547 315 618 315 c 128,-1,56
 689 315 689 315 749 332 c 1,57,-1
 749 484 l 1,32,33
EndSplineSet
EndChar

StartChar: ordfeminine
Encoding: 170 170 107
Width: 1126
Flags: W
LayerCount: 2
Fore
SplineSet
227 496 m 1,0,-1
 227 348 l 1,1,-1
 899 348 l 1,2,-1
 899 496 l 1,3,-1
 227 496 l 1,0,-1
684 1301 m 128,-1,5
 625 1319 625 1319 535 1319 c 0,6,7
 400 1319 400 1319 282 1279 c 1,8,-1
 282 1145 l 1,9,10
 334 1166 334 1166 396 1180 c 0,11,12
 460 1194 460 1194 506.5 1194 c 128,-1,13
 553 1194 553 1194 583 1187 c 0,14,15
 640 1174 640 1174 656 1130 c 0,16,17
 663 1111 663 1111 663 1087 c 2,18,-1
 663 1034 l 1,19,-1
 582 1034 l 2,20,21
 491 1034 491 1034 424.5 1018 c 128,-1,22
 358 1002 358 1002 315 974 c 128,-1,23
 272 946 272 946 250.5 908 c 128,-1,24
 229 870 229 870 229 825 c 0,25,26
 229 770 229 770 246 733 c 0,27,28
 279 660 279 660 359 637 c 0,29,30
 397 626 397 626 440 626 c 0,31,32
 522 626 522 626 575 649 c 128,-1,33
 628 672 628 672 667 712 c 2,34,-1
 680 726 l 1,35,-1
 696 641 l 1,36,-1
 838 641 l 1,37,-1
 838 1094 l 2,38,39
 838 1141 838 1141 824 1182 c 128,-1,40
 810 1223 810 1223 776.5 1253 c 128,-1,4
 743 1283 743 1283 684 1301 c 128,-1,5
569 932 m 2,41,-1
 663 932 l 1,42,-1
 663 819 l 1,43,-1
 660 816 l 2,44,45
 589 748 589 748 522 748 c 0,46,47
 476 748 476 748 448 764 c 0,48,49
 416 782 416 782 416 829 c 0,50,51
 416 848 416 848 424 866.5 c 128,-1,52
 432 885 432 885 450 900 c 0,53,54
 489 932 489 932 569 932 c 2,41,-1
EndSplineSet
EndChar

StartChar: guillemotleft
Encoding: 171 171 108
Width: 1126
Flags: W
LayerCount: 2
Fore
SplineSet
338 543 m 1,0,-1
 552 860 l 1,1,-1
 388 943 l 1,2,-1
 127 543 l 1,3,-1
 383 142 l 1,4,-1
 552 225 l 1,5,-1
 338 543 l 1,0,-1
766 543 m 1,6,-1
 982 850 l 1,7,-1
 824 933 l 1,8,-1
 555 543 l 1,9,-1
 818 152 l 1,10,-1
 982 235 l 1,11,-1
 766 543 l 1,6,-1
EndSplineSet
EndChar

StartChar: logicalnot
Encoding: 172 172 109
Width: 1126
Flags: W
LayerCount: 2
Fore
SplineSet
112 456 m 1,0,-1
 786 456 l 1,1,-1
 786 178 l 1,2,-1
 979 178 l 1,3,-1
 979 633 l 1,4,-1
 112 633 l 1,5,-1
 112 456 l 1,0,-1
EndSplineSet
EndChar

StartChar: registered
Encoding: 174 174 110
Width: 1126
Flags: W
LayerCount: 2
Fore
SplineSet
758 1073 m 0,0,1
 758 1119 758 1119 742 1148 c 0,2,3
 712 1201 712 1201 634 1213 c 0,4,5
 596 1219 596 1219 553 1219 c 2,6,-1
 389 1219 l 1,7,-1
 389 692 l 1,8,-1
 496 692 l 1,9,-1
 496 907 l 1,10,-1
 518 907 l 2,11,12
 541 907 541 907 561 894 c 128,-1,13
 581 881 581 881 589 862 c 2,14,-1
 660 692 l 1,15,-1
 785 692 l 1,16,-1
 706 862 l 2,17,18
 672 930 672 930 644 932 c 1,19,-1
 645 952 l 1,20,21
 693 954 693 954 724 982 c 0,22,23
 758 1014 758 1014 758 1073 c 0,0,1
645 1061.5 m 128,-1,25
 645 1021 645 1021 614 1001 c 128,-1,26
 583 981 583 981 537 981 c 2,27,-1
 496 981 l 1,28,-1
 496 1134 l 1,29,-1
 537 1134 l 2,30,31
 591 1134 591 1134 617 1119 c 0,32,24
 645 1102 645 1102 645 1061.5 c 128,-1,25
420 1286 m 128,-1,34
 487 1315 487 1315 563.5 1315 c 128,-1,35
 640 1315 640 1315 707 1286 c 128,-1,36
 774 1257 774 1257 823 1206.5 c 128,-1,37
 872 1156 872 1156 901 1087.5 c 128,-1,38
 930 1019 930 1019 930 940 c 128,-1,39
 930 861 930 861 901 792.5 c 128,-1,40
 872 724 872 724 823 673.5 c 128,-1,41
 774 623 774 623 707 594 c 128,-1,42
 640 565 640 565 563.5 565 c 128,-1,43
 487 565 487 565 420 594 c 128,-1,44
 353 623 353 623 304 673.5 c 128,-1,45
 255 724 255 724 226 792.5 c 128,-1,46
 197 861 197 861 197 940 c 128,-1,47
 197 1019 197 1019 226 1087.5 c 128,-1,48
 255 1156 255 1156 304 1206.5 c 128,-1,33
 353 1257 353 1257 420 1286 c 128,-1,34
563 1426 m 128,-1,50
 462 1426 462 1426 374 1388 c 128,-1,51
 286 1350 286 1350 220 1283.5 c 128,-1,52
 154 1217 154 1217 116 1129 c 128,-1,53
 78 1041 78 1041 78 940 c 128,-1,54
 78 839 78 839 116 751 c 128,-1,55
 154 663 154 663 220 596.5 c 128,-1,56
 286 530 286 530 374 492 c 128,-1,57
 462 454 462 454 563 454 c 128,-1,58
 664 454 664 454 752.5 492 c 128,-1,59
 841 530 841 530 907 596.5 c 128,-1,60
 973 663 973 663 1011 751 c 128,-1,61
 1049 839 1049 839 1049 940 c 128,-1,62
 1049 1041 1049 1041 1011 1129 c 128,-1,63
 973 1217 973 1217 907 1283.5 c 128,-1,64
 841 1350 841 1350 752.5 1388 c 128,-1,49
 664 1426 664 1426 563 1426 c 128,-1,50
EndSplineSet
EndChar

StartChar: macron
Encoding: 175 175 111
AltUni2: 0002c9.ffffffff.0
Width: 1126
Flags: W
LayerCount: 2
Fore
SplineSet
284 1378 m 1,0,-1
 842 1378 l 1,1,-1
 842 1204 l 1,2,-1
 284 1204 l 1,3,-1
 284 1378 l 1,0,-1
0 1016 m 1024,4,-1
EndSplineSet
EndChar

StartChar: degree
Encoding: 176 176 112
Width: 1126
Flags: W
LayerCount: 2
Fore
SplineSet
829 838 m 128,-1,1
 876 884 876 884 901 948 c 128,-1,2
 926 1012 926 1012 926 1089.5 c 128,-1,3
 926 1167 926 1167 902 1229 c 0,4,5
 853 1355 853 1355 720 1402 c 0,6,7
 653 1426 653 1426 567 1426 c 128,-1,8
 481 1426 481 1426 412.5 1400.5 c 128,-1,9
 344 1375 344 1375 297.5 1329 c 128,-1,10
 251 1283 251 1283 225.5 1219 c 128,-1,11
 200 1155 200 1155 200 1077.5 c 128,-1,12
 200 1000 200 1000 224 938 c 0,13,14
 273 812 273 812 406 765 c 0,15,16
 474 741 474 741 559.5 741 c 128,-1,17
 645 741 645 741 713.5 766.5 c 128,-1,0
 782 792 782 792 829 838 c 128,-1,1
563 1272 m 0,18,19
 652 1272 652 1272 694.5 1220.5 c 128,-1,20
 737 1169 737 1169 737 1085 c 128,-1,21
 737 1001 737 1001 694 948 c 128,-1,22
 651 895 651 895 563 895 c 128,-1,23
 475 895 475 895 432 946.5 c 128,-1,24
 389 998 389 998 389 1083 c 256,25,26
 389 1168 389 1168 432 1218 c 0,27,28
 454 1244 454 1244 487 1258 c 128,-1,29
 520 1272 520 1272 563 1272 c 0,18,19
EndSplineSet
EndChar

StartChar: plusminus
Encoding: 177 177 113
Width: 1126
Flags: W
LayerCount: 2
Fore
SplineSet
664 694 m 1,0,-1
 1012 694 l 1,1,-1
 1012 862 l 1,2,-1
 664 862 l 1,3,-1
 664 1219 l 1,4,-1
 463 1219 l 1,5,-1
 463 862 l 1,6,-1
 114 862 l 1,7,-1
 114 694 l 1,8,-1
 463 694 l 1,9,-1
 463 342 l 1,10,-1
 664 342 l 1,11,-1
 664 694 l 1,0,-1
143 183 m 1,12,-1
 143 10 l 1,13,-1
 983 10 l 1,14,-1
 983 183 l 1,15,-1
 143 183 l 1,12,-1
EndSplineSet
EndChar

StartChar: acute
Encoding: 180 180 116
Width: 1126
Flags: W
LayerCount: 2
Fore
SplineSet
464 1161 m 1,0,-1
 681 1161 l 1,1,-1
 1002 1403 l 1,2,-1
 706 1403 l 1,3,-1
 464 1161 l 1,0,-1
0 1016 m 1024,4,-1
EndSplineSet
EndChar

StartChar: paragraph
Encoding: 182 182 118
Width: 1126
Flags: W
LayerCount: 2
Fore
SplineSet
573 -226 m 0,0,1
 679 -226 679 -226 765 -199 c 0,2,3
 938 -145 938 -145 1002 18 c 0,4,5
 1034 101 1034 101 1034 213 c 2,6,-1
 1034 1403 l 1,7,-1
 651 1403 l 2,8,9
 509 1403 509 1403 403 1371 c 128,-1,10
 297 1339 297 1339 226 1280.5 c 128,-1,11
 155 1222 155 1222 119.5 1139.5 c 128,-1,12
 84 1057 84 1057 84 956 c 0,13,14
 84 749 84 749 226 636 c 0,15,16
 372 520 372 520 664 518 c 1,17,-1
 664 1233 l 1,18,-1
 815 1233 l 1,19,-1
 815 211 l 2,20,21
 815 83 815 83 755 16 c 128,-1,22
 695 -51 695 -51 580 -51 c 0,23,24
 501 -51 501 -51 439 -21 c 0,25,26
 384 6 384 6 340 42 c 1,27,-1
 236 -109 l 1,28,29
 308 -166 308 -166 394.5 -196 c 128,-1,30
 481 -226 481 -226 573 -226 c 0,0,1
EndSplineSet
EndChar

StartChar: periodcentered
Encoding: 183 183 119
AltUni2: 002219.ffffffff.0
Width: 1126
Flags: W
LayerCount: 2
Fore
SplineSet
760 561.5 m 128,-1,1
 760 521 760 521 745 486 c 128,-1,2
 730 451 730 451 703.5 424.5 c 128,-1,3
 677 398 677 398 641 382.5 c 128,-1,4
 605 367 605 367 564 367 c 128,-1,5
 523 367 523 367 488 382.5 c 128,-1,6
 453 398 453 398 427 424.5 c 128,-1,7
 401 451 401 451 386 486 c 128,-1,8
 371 521 371 521 371 561.5 c 128,-1,9
 371 602 371 602 386 638 c 128,-1,10
 401 674 401 674 427 700.5 c 128,-1,11
 453 727 453 727 488 742.5 c 128,-1,12
 523 758 523 758 564 758 c 128,-1,13
 605 758 605 758 641 742.5 c 128,-1,14
 677 727 677 727 703.5 700.5 c 128,-1,15
 730 674 730 674 745 638 c 128,-1,0
 760 602 760 602 760 561.5 c 128,-1,1
EndSplineSet
EndChar

StartChar: cedilla
Encoding: 184 184 120
Width: 1126
Flags: W
LayerCount: 2
Fore
SplineSet
432 -285 m 1,0,-1
 591 -285 l 1,1,-1
 695 -10 l 1,2,-1
 489 -10 l 1,3,-1
 432 -285 l 1,0,-1
EndSplineSet
EndChar

StartChar: ordmasculine
Encoding: 186 186 122
Width: 1126
Flags: W
LayerCount: 2
Fore
SplineSet
227 496 m 1,0,-1
 227 348 l 1,1,-1
 899 348 l 1,2,-1
 899 496 l 1,3,-1
 227 496 l 1,0,-1
707 649.5 m 128,-1,5
 774 677 774 677 820.5 725 c 128,-1,6
 867 773 867 773 891 838.5 c 128,-1,7
 915 904 915 904 915 983.5 c 128,-1,8
 915 1063 915 1063 892 1127 c 0,9,10
 847 1253 847 1253 717 1297 c 0,11,12
 652 1319 652 1319 568.5 1319 c 128,-1,13
 485 1319 485 1319 419 1292.5 c 128,-1,14
 353 1266 353 1266 307 1219.5 c 128,-1,15
 261 1173 261 1173 236 1109 c 128,-1,16
 211 1045 211 1045 211 969 c 0,17,18
 211 795 211 795 302 707 c 0,19,20
 389 622 389 622 555 622 c 0,21,4
 640 622 640 622 707 649.5 c 128,-1,5
491 1153.5 m 128,-1,23
 523 1168 523 1168 563 1168 c 0,24,25
 647 1168 647 1168 690 1118 c 128,-1,26
 733 1068 733 1068 733 973.5 c 128,-1,27
 733 879 733 879 688.5 826 c 128,-1,28
 644 773 644 773 563.5 773 c 128,-1,29
 483 773 483 773 438 825 c 128,-1,30
 393 877 393 877 393 972 c 0,31,32
 393 1014 393 1014 404 1050.5 c 128,-1,33
 415 1087 415 1087 437 1113 c 128,-1,22
 459 1139 459 1139 491 1153.5 c 128,-1,23
EndSplineSet
EndChar

StartChar: guillemotright
Encoding: 187 187 123
Width: 1126
Flags: W
LayerCount: 2
Fore
SplineSet
788 547 m 1,0,-1
 574 229 l 1,1,-1
 738 146 l 1,2,-1
 1000 547 l 1,3,-1
 744 948 l 1,4,-1
 574 864 l 1,5,-1
 788 547 l 1,0,-1
360 547 m 1,6,-1
 144 240 l 1,7,-1
 302 156 l 1,8,-1
 572 547 l 1,9,-1
 308 937 l 1,10,-1
 144 854 l 1,11,-1
 360 547 l 1,6,-1
EndSplineSet
EndChar

StartChar: onequarter
Encoding: 188 188 124
Width: 1126
Flags: W
LayerCount: 2
Fore
SplineSet
233 1263 m 1,0,-1
 233 850 l 1,1,-1
 404 850 l 1,2,-1
 404 1409 l 1,3,-1
 252 1409 l 1,4,-1
 55 1310 l 1,5,-1
 98 1196 l 1,6,-1
 233 1263 l 1,0,-1
19 10 m 1,7,-1
 194 10 l 1,8,-1
 1107 1403 l 1,9,-1
 933 1403 l 1,10,-1
 19 10 l 1,7,-1
987 10 m 1,11,-1
 987 112 l 1,12,-1
 1071 112 l 1,13,-1
 1071 228 l 1,14,-1
 987 228 l 1,15,-1
 987 563 l 1,16,-1
 753 563 l 1,17,-1
 538 230 l 1,18,-1
 538 112 l 1,19,-1
 839 112 l 1,20,-1
 839 10 l 1,21,-1
 987 10 l 1,11,-1
839 478 m 1,22,-1
 839 228 l 1,23,-1
 680 228 l 1,24,-1
 839 478 l 1,22,-1
EndSplineSet
EndChar

StartChar: onehalf
Encoding: 189 189 125
Width: 1126
Flags: W
LayerCount: 2
Fore
SplineSet
233 1263 m 1,0,-1
 233 850 l 1,1,-1
 404 850 l 1,2,-1
 404 1409 l 1,3,-1
 252 1409 l 1,4,-1
 55 1310 l 1,5,-1
 98 1196 l 1,6,-1
 233 1263 l 1,0,-1
626 10 m 1,7,-1
 1080 10 l 1,8,-1
 1080 135 l 1,9,-1
 826 135 l 1,10,-1
 910 188 l 2,11,12
 991 239 991 239 1027 292 c 128,-1,13
 1063 345 1063 345 1063 416 c 0,14,15
 1063 491 1063 491 1005.5 536.5 c 128,-1,16
 948 582 948 582 842 582 c 0,17,18
 776 582 776 582 720 561.5 c 128,-1,19
 664 541 664 541 623 512 c 1,20,-1
 687 412 l 1,21,22
 712 430 712 430 740 444 c 0,23,24
 775 461 775 461 814.5 461 c 128,-1,25
 854 461 854 461 872.5 443.5 c 128,-1,26
 891 426 891 426 891 399 c 0,27,28
 891 382 891 382 886 366 c 128,-1,29
 881 350 881 350 866 332 c 0,30,31
 838 296 838 296 754 230 c 2,32,-1
 626 128 l 1,33,-1
 626 10 l 1,7,-1
19 10 m 1,34,-1
 194 10 l 1,35,-1
 1107 1403 l 1,36,-1
 933 1403 l 1,37,-1
 19 10 l 1,34,-1
EndSplineSet
EndChar

StartChar: threequarters
Encoding: 190 190 126
Width: 1126
Flags: W
LayerCount: 2
Fore
SplineSet
53 840 m 1,0,1
 126 831 126 831 203 831 c 0,2,3
 366 831 366 831 442 879.5 c 128,-1,4
 518 928 518 928 518 1014 c 0,5,6
 518 1062 518 1062 486.5 1096.5 c 128,-1,7
 455 1131 455 1131 390 1139 c 2,8,-1
 332 1146 l 1,9,-1
 389 1159 l 2,10,11
 433 1169 433 1169 457.5 1199.5 c 128,-1,12
 482 1230 482 1230 482 1278 c 0,13,14
 482 1348 482 1348 423.5 1385 c 128,-1,15
 365 1422 365 1422 252 1422 c 0,16,17
 171 1422 171 1422 113 1408 c 0,18,19
 94 1403 94 1403 71 1397 c 1,20,-1
 71 1283 l 1,21,22
 106 1292 106 1292 143.5 1299.5 c 128,-1,23
 181 1307 181 1307 227 1307 c 128,-1,24
 273 1307 273 1307 291 1292.5 c 128,-1,25
 309 1278 309 1278 309 1253 c 0,26,27
 309 1240 309 1240 303.5 1228 c 128,-1,28
 298 1216 298 1216 283 1207 c 0,29,30
 252 1188 252 1188 176 1188 c 2,31,-1
 131 1188 l 1,32,-1
 131 1073 l 1,33,-1
 190 1073 l 2,34,35
 272 1073 272 1073 305 1060 c 0,36,37
 324 1052 324 1052 332 1039.5 c 128,-1,38
 340 1027 340 1027 340 1011 c 128,-1,39
 340 995 340 995 333 984 c 0,40,41
 311 946 311 946 209 946 c 0,42,43
 131 946 131 946 53 959 c 1,44,-1
 53 840 l 1,0,1
19 10 m 1,45,-1
 194 10 l 1,46,-1
 1107 1403 l 1,47,-1
 933 1403 l 1,48,-1
 19 10 l 1,45,-1
987 10 m 1,49,-1
 987 112 l 1,50,-1
 1071 112 l 1,51,-1
 1071 228 l 1,52,-1
 987 228 l 1,53,-1
 987 563 l 1,54,-1
 753 563 l 1,55,-1
 538 230 l 1,56,-1
 538 112 l 1,57,-1
 839 112 l 1,58,-1
 839 10 l 1,59,-1
 987 10 l 1,49,-1
839 478 m 1,60,-1
 839 228 l 1,61,-1
 680 228 l 1,62,-1
 839 478 l 1,60,-1
EndSplineSet
EndChar

StartChar: questiondown
Encoding: 191 191 127
Width: 1126
Flags: W
LayerCount: 2
Fore
SplineSet
197 184 m 128,-1,1
 172 119 172 119 172 37 c 128,-1,2
 172 -45 172 -45 209.5 -121 c 128,-1,3
 247 -197 247 -197 322 -256 c 128,-1,4
 397 -315 397 -315 511 -351 c 128,-1,5
 625 -387 625 -387 776 -387 c 2,6,-1
 836 -387 l 1,7,-1
 836 -180 l 1,8,-1
 786 -180 l 2,9,10
 692 -180 692 -180 623 -161.5 c 128,-1,11
 554 -143 554 -143 508.5 -111 c 128,-1,12
 463 -79 463 -79 441.5 -35 c 128,-1,13
 420 9 420 9 420 59 c 0,14,15
 420 97 420 97 431 130 c 0,16,17
 454 199 454 199 528 228 c 0,18,19
 565 243 565 243 616 243 c 2,20,-1
 751 243 l 1,21,-1
 733 600 l 1,22,-1
 544 600 l 1,23,-1
 534 413 l 1,24,-1
 525 412 l 2,25,26
 444 401 444 401 378.5 372 c 128,-1,27
 313 343 313 343 267.5 296 c 128,-1,0
 222 249 222 249 197 184 c 128,-1,1
483 879 m 128,-1,29
 483 848 483 848 495 821 c 128,-1,30
 507 794 507 794 528.5 773 c 128,-1,31
 550 752 550 752 577.5 740.5 c 128,-1,32
 605 729 605 729 637 729 c 128,-1,33
 669 729 669 729 696.5 740.5 c 128,-1,34
 724 752 724 752 745.5 773 c 128,-1,35
 767 794 767 794 779 821 c 128,-1,36
 791 848 791 848 791 879 c 128,-1,37
 791 910 791 910 779 937 c 128,-1,38
 767 964 767 964 745.5 984.5 c 128,-1,39
 724 1005 724 1005 696.5 1016.5 c 128,-1,40
 669 1028 669 1028 637 1028 c 128,-1,41
 605 1028 605 1028 577.5 1016.5 c 128,-1,42
 550 1005 550 1005 528.5 984.5 c 128,-1,43
 507 964 507 964 495 937 c 128,-1,28
 483 910 483 910 483 879 c 128,-1,29
EndSplineSet
EndChar

StartChar: AE
Encoding: 198 198 134
Width: 1126
Flags: W
LayerCount: 2
Fore
SplineSet
179 10 m 1,0,-1
 274 272 l 1,1,-1
 598 272 l 1,2,-1
 598 10 l 1,3,-1
 1075 10 l 1,4,-1
 1075 189 l 1,5,-1
 797 189 l 1,6,-1
 797 585 l 1,7,-1
 1049 585 l 1,8,-1
 1049 760 l 1,9,-1
 797 760 l 1,10,-1
 797 1118 l 1,11,-1
 1065 1118 l 1,12,-1
 1065 1297 l 1,13,-1
 466 1297 l 1,14,-1
 -26 10 l 1,15,-1
 179 10 l 1,0,-1
334 439 m 1,16,-1
 598 1165 l 1,17,-1
 598 439 l 1,18,-1
 334 439 l 1,16,-1
EndSplineSet
EndChar

StartChar: Ccedilla
Encoding: 199 199 135
Width: 1126
Flags: W
LayerCount: 2
Fore
SplineSet
857 227 m 0,0,1
 767 203 767 203 705 203 c 0,2,3
 611 203 611 203 542 234 c 0,4,5
 342 325 342 325 342 663 c 0,6,7
 342 764 342 764 362.5 849 c 128,-1,8
 383 934 383 934 426.5 996.5 c 128,-1,9
 470 1059 470 1059 538.5 1093.5 c 128,-1,10
 607 1128 607 1128 702 1128 c 0,11,12
 766 1128 766 1128 841 1111.5 c 128,-1,13
 916 1095 916 1095 994 1060 c 1,14,-1
 994 1281 l 1,15,16
 882 1317 882 1317 768 1323 c 0,17,18
 729 1325 729 1325 684 1325 c 0,19,20
 547 1325 547 1325 437.5 1279 c 128,-1,21
 328 1233 328 1233 251.5 1145 c 128,-1,22
 175 1057 175 1057 133.5 928.5 c 128,-1,23
 92 800 92 800 92 640 c 128,-1,24
 92 480 92 480 127.5 361 c 128,-1,25
 163 242 163 242 225.5 167 c 128,-1,26
 288 92 288 92 363.5 53 c 128,-1,27
 439 14 439 14 501 4 c 2,28,-1
 511 2 l 1,29,-1
 450 -295 l 1,30,-1
 609 -295 l 1,31,-1
 714 -16 l 1,32,33
 777 -14 777 -14 844.5 2 c 128,-1,34
 912 18 912 18 994 54 c 1,35,-1
 994 276 l 1,36,37
 921 244 921 244 857 227 c 0,0,1
EndSplineSet
EndChar

StartChar: Eth
Encoding: 208 208 144
Width: 1126
Flags: W
LayerCount: 2
Fore
SplineSet
473 1297 m 2,0,-1
 116 1297 l 1,1,-1
 116 764 l 1,2,-1
 10 764 l 1,3,-1
 10 581 l 1,4,-1
 116 581 l 1,5,-1
 116 10 l 1,6,-1
 418 10 l 2,7,8
 589 10 589 10 711 56.5 c 128,-1,9
 833 103 833 103 911 189 c 128,-1,10
 989 275 989 275 1026 397 c 128,-1,11
 1063 519 1063 519 1063 670 c 0,12,13
 1063 834 1063 834 1026 952.5 c 128,-1,14
 989 1071 989 1071 916 1147 c 128,-1,15
 843 1223 843 1223 732 1260 c 128,-1,16
 621 1297 621 1297 473 1297 c 2,0,-1
801.5 845.5 m 128,-1,18
 819 761 819 761 819 654 c 0,19,20
 819 418 819 418 722.5 307 c 128,-1,21
 626 196 626 196 440 196 c 2,22,-1
 342 196 l 1,23,-1
 342 581 l 1,24,-1
 574 581 l 1,25,-1
 574 764 l 1,26,-1
 342 764 l 1,27,-1
 342 1111 l 1,28,-1
 457 1111 l 2,29,30
 560 1111 560 1111 630.5 1080 c 128,-1,31
 701 1049 701 1049 742.5 989.5 c 128,-1,17
 784 930 784 930 801.5 845.5 c 128,-1,18
EndSplineSet
EndChar

StartChar: multiply
Encoding: 215 215 151
Width: 1126
Flags: W
LayerCount: 2
Fore
SplineSet
699 551 m 1,0,-1
 995 847 l 1,1,-1
 864 978 l 1,2,-1
 568 682 l 1,3,-1
 272 978 l 1,4,-1
 131 837 l 1,5,-1
 427 541 l 1,6,-1
 131 245 l 1,7,-1
 262 114 l 1,8,-1
 558 410 l 1,9,-1
 854 114 l 1,10,-1
 995 255 l 1,11,-1
 699 551 l 1,0,-1
EndSplineSet
EndChar

StartChar: Oslash
Encoding: 216 216 152
Width: 1126
Flags: W
LayerCount: 2
Fore
SplineSet
1038.5 358.5 m 128,-1,1
 1079 489 1079 489 1079 667 c 0,2,3
 1079 882 1079 882 1020 1029.5 c 128,-1,4
 961 1177 961 1177 845 1251 c 1,5,-1
 838 1255 l 1,6,-1
 922 1522 l 1,7,-1
 746 1522 l 1,8,-1
 683 1317 l 1,9,10
 623 1329 623 1329 565 1329 c 0,11,12
 456 1329 456 1329 361.5 1288 c 128,-1,13
 267 1247 267 1247 197 1162.5 c 128,-1,14
 127 1078 127 1078 87 948.5 c 128,-1,15
 47 819 47 819 47 642 c 0,16,17
 47 423 47 423 106 275.5 c 128,-1,18
 165 128 165 128 279 53 c 1,19,-1
 286 49 l 1,20,-1
 204 -215 l 1,21,-1
 380 -215 l 1,22,-1
 444 -10 l 1,23,24
 509 -23 509 -23 561 -23 c 0,25,26
 670 -23 670 -23 764.5 18 c 128,-1,27
 859 59 859 59 928.5 143.5 c 128,-1,0
 998 228 998 228 1038.5 358.5 c 128,-1,1
769 1029 m 1,28,-1
 781 1010 l 2,29,30
 817 949 817 949 832 858.5 c 128,-1,31
 847 768 847 768 847 653.5 c 128,-1,32
 847 539 847 539 832 453.5 c 128,-1,33
 817 368 817 368 783 307 c 128,-1,34
 749 246 749 246 696 213.5 c 128,-1,35
 643 181 643 181 569 181 c 0,36,37
 555 181 555 181 540.5 181.5 c 128,-1,38
 526 182 526 182 513 187 c 2,39,-1
 503 190 l 1,40,-1
 769 1029 l 1,28,-1
357 280 m 1,41,-1
 345 299 l 2,42,43
 309 359 309 359 294 449 c 128,-1,44
 279 539 279 539 279 653.5 c 128,-1,45
 279 768 279 768 295 854 c 128,-1,46
 311 940 311 940 346 1000 c 128,-1,47
 381 1060 381 1060 434 1092.5 c 128,-1,48
 487 1125 487 1125 561 1125 c 0,49,50
 587 1125 587 1125 610 1121 c 2,51,-1
 621 1119 l 1,52,-1
 357 280 l 1,41,-1
EndSplineSet
EndChar

StartChar: Thorn
Encoding: 222 222 158
Width: 1126
Flags: W
LayerCount: 2
Fore
SplineSet
724.5 868.5 m 128,-1,1
 794 804 794 804 794 698 c 0,2,3
 794 638 794 638 776 589 c 128,-1,4
 758 540 758 540 722.5 505.5 c 128,-1,5
 687 471 687 471 636.5 452.5 c 128,-1,6
 586 434 586 434 520 434 c 2,7,-1
 373 434 l 1,8,-1
 373 933 l 1,9,-1
 512 933 l 2,10,0
 655 933 655 933 724.5 868.5 c 128,-1,1
518 1117 m 2,11,-1
 373 1117 l 1,12,-1
 373 1297 l 1,13,-1
 145 1297 l 1,14,-1
 145 10 l 1,15,-1
 373 10 l 1,16,-1
 373 250 l 1,17,-1
 508 250 l 2,18,19
 638 250 638 250 736.5 284.5 c 128,-1,20
 835 319 835 319 900.5 380.5 c 128,-1,21
 966 442 966 442 999 526.5 c 128,-1,22
 1032 611 1032 611 1032 710 c 0,23,24
 1032 905 1032 905 900 1010 c 0,25,26
 835 1062 835 1062 739.5 1089.5 c 128,-1,27
 644 1117 644 1117 518 1117 c 2,11,-1
EndSplineSet
EndChar

StartChar: germandbls
Encoding: 223 223 159
Width: 1126
Flags: W
LayerCount: 2
Fore
SplineSet
514 176 m 1,0,-1
 514 -2 l 1,1,2
 582 -16 582 -16 690 -16 c 0,3,4
 774 -16 774 -16 843 5.5 c 128,-1,5
 912 27 912 27 960.5 67 c 128,-1,6
 1009 107 1009 107 1036 163.5 c 128,-1,7
 1063 220 1063 220 1063 290.5 c 128,-1,8
 1063 361 1063 361 1040.5 411.5 c 128,-1,9
 1018 462 1018 462 983 500 c 128,-1,10
 948 538 948 538 907 567.5 c 128,-1,11
 866 597 866 597 830 625 c 128,-1,12
 794 653 794 653 769 684.5 c 128,-1,13
 744 716 744 716 744 756.5 c 128,-1,14
 744 797 744 797 761 825 c 128,-1,15
 778 853 778 853 802.5 876.5 c 128,-1,16
 827 900 827 900 855.5 924 c 128,-1,17
 884 948 884 948 907 978.5 c 128,-1,18
 930 1009 930 1009 946 1051 c 0,19,20
 961 1093 961 1093 961 1151 c 0,21,22
 961 1216 961 1216 932.5 1268 c 128,-1,23
 904 1320 904 1320 853 1356.5 c 128,-1,24
 802 1393 802 1393 730.5 1412.5 c 128,-1,25
 659 1432 659 1432 570.5 1432 c 128,-1,26
 482 1432 482 1432 404.5 1408 c 128,-1,27
 327 1384 327 1384 270 1334.5 c 128,-1,28
 213 1285 213 1285 181 1209.5 c 128,-1,29
 149 1134 149 1134 149 1030 c 2,30,-1
 149 20 l 1,31,-1
 373 20 l 1,32,-1
 373 1038 l 2,33,34
 373 1152 373 1152 421 1208.5 c 128,-1,35
 469 1265 469 1265 561 1265 c 0,36,37
 638 1265 638 1265 684 1233 c 0,38,39
 708 1216 708 1216 721.5 1191.5 c 128,-1,40
 735 1167 735 1167 735 1134 c 0,41,42
 735 1093 735 1093 718 1062 c 0,43,44
 700 1028 700 1028 675 999.5 c 128,-1,45
 650 971 650 971 621.5 944 c 128,-1,46
 593 917 593 917 569.5 885 c 128,-1,47
 546 853 546 853 530 813 c 0,48,49
 514 777 514 777 514 728 c 0,50,51
 514 661 514 661 536 613 c 128,-1,52
 558 565 558 565 592.5 527.5 c 128,-1,53
 627 490 627 490 667 460 c 128,-1,54
 707 430 707 430 742.5 400.5 c 128,-1,55
 778 371 778 371 802.5 338 c 128,-1,56
 827 305 827 305 827 260 c 0,57,58
 827 211 827 211 794 184 c 0,59,60
 757 154 757 154 676 154 c 0,61,62
 631 154 631 154 589 160.5 c 128,-1,63
 547 167 547 167 514 176 c 1,0,-1
EndSplineSet
EndChar

StartChar: ae
Encoding: 230 230 166
Width: 1126
Flags: W
LayerCount: 2
Fore
SplineSet
1053 23 m 1,0,-1
 1053 190 l 1,1,2
 934 139 934 139 844 139 c 0,3,4
 797 139 797 139 760 161 c 0,5,6
 685 205 685 205 657 324 c 0,7,8
 643 381 643 381 643 454 c 2,9,-1
 643 464 l 1,10,-1
 1089 464 l 1,11,12
 1089 473 1089 473 1090.5 522 c 128,-1,13
 1092 571 1092 571 1092 583 c 0,14,15
 1092 803 1092 803 1026 916 c 0,16,17
 992 974 992 974 937 1006 c 128,-1,18
 882 1038 882 1038 803 1038 c 0,19,20
 736 1038 736 1038 683.5 1012.5 c 128,-1,21
 631 987 631 987 596 944 c 2,22,-1
 588 934 l 1,23,-1
 580 944 l 2,24,25
 545 988 545 988 485.5 1013 c 128,-1,26
 426 1038 426 1038 338 1038 c 0,27,28
 271 1038 271 1038 206 1021.5 c 128,-1,29
 141 1005 141 1005 90 976 c 1,30,-1
 90 801 l 1,31,32
 144 834 144 834 203 855 c 0,33,34
 271 879 271 879 318 879 c 128,-1,35
 365 879 365 879 396 864 c 0,36,37
 454 834 454 834 468 759 c 0,38,39
 475 724 475 724 475 685 c 2,40,-1
 475 600 l 1,41,-1
 385 600 l 2,42,43
 289 600 289 600 221 576.5 c 128,-1,44
 153 553 153 553 111 511.5 c 128,-1,45
 69 470 69 470 48.5 409.5 c 128,-1,46
 28 349 28 349 28 275 c 0,47,48
 28 122 28 122 94 49.5 c 128,-1,49
 160 -23 160 -23 279 -23 c 0,50,51
 352 -23 352 -23 410 13.5 c 128,-1,52
 468 50 468 50 527 133 c 2,53,-1
 537 146 l 1,54,-1
 544 131 l 2,55,56
 580 57 580 57 640 18 c 0,57,58
 704 -23 704 -23 803 -23 c 0,59,60
 876 -23 876 -23 941 -9.5 c 128,-1,61
 1006 4 1006 4 1053 23 c 1,0,-1
301.5 451 m 128,-1,63
 331 465 331 465 373 465 c 2,64,-1
 475 465 l 1,65,-1
 475 288 l 1,66,67
 435 222 435 222 396.5 184 c 128,-1,68
 358 146 358 146 319 146 c 0,69,70
 267 146 267 146 243 186 c 0,71,72
 219 223 219 223 219 291 c 0,73,74
 219 367 219 367 253 413 c 0,75,62
 272 437 272 437 301.5 451 c 128,-1,63
685 800 m 0,76,77
 719 872 719 872 788 872 c 0,78,79
 849 872 849 872 884 805 c 0,80,81
 917 742 917 742 917 616 c 0,82,83
 917 612 917 612 917 598 c 1,84,-1
 644 598 l 1,85,-1
 645 609 l 2,86,87
 653 733 653 733 685 800 c 0,76,77
EndSplineSet
EndChar

StartChar: ccedilla
Encoding: 231 231 167
Width: 1126
Flags: W
LayerCount: 2
Fore
SplineSet
687.5 179 m 128,-1,1
 620 179 620 179 564 201.5 c 128,-1,2
 508 224 508 224 468 267 c 128,-1,3
 428 310 428 310 406.5 371 c 128,-1,4
 385 432 385 432 385 506.5 c 128,-1,5
 385 581 385 581 405 642.5 c 128,-1,6
 425 704 425 704 463.5 747.5 c 128,-1,7
 502 791 502 791 558 815 c 128,-1,8
 614 839 614 839 682 839 c 128,-1,9
 750 839 750 839 819.5 822.5 c 128,-1,10
 889 806 889 806 946 779 c 1,11,-1
 946 997 l 1,12,13
 895 1012 895 1012 830.5 1022 c 128,-1,14
 766 1032 766 1032 668 1032 c 0,15,16
 549 1032 549 1032 452.5 994 c 128,-1,17
 356 956 356 956 287.5 886.5 c 128,-1,18
 219 817 219 817 181 718.5 c 128,-1,19
 143 620 143 620 143 498 c 0,20,21
 143 292 143 292 234 167.5 c 128,-1,22
 325 43 325 43 489 4 c 1,23,-1
 499 2 l 1,24,-1
 438 -295 l 1,25,-1
 597 -295 l 1,26,-1
 702 -16 l 1,27,28
 775 -12 775 -12 835.5 1 c 128,-1,29
 896 14 896 14 951 37 c 1,30,-1
 951 236 l 1,31,32
 897 213 897 213 829 197 c 0,33,0
 755 179 755 179 687.5 179 c 128,-1,1
EndSplineSet
EndChar

StartChar: eth
Encoding: 240 240 176
Width: 1126
Flags: W
LayerCount: 2
Fore
SplineSet
549 1098.5 m 128,-1,1
 566 1075 566 1075 591 1034 c 1,2,-1
 569 1034 l 2,3,4
 470 1034 470 1034 382 1001 c 128,-1,5
 294 968 294 968 228.5 901 c 128,-1,6
 163 834 163 834 124.5 730 c 128,-1,7
 86 626 86 626 86 485 c 0,8,9
 86 235 86 235 196 108 c 0,10,11
 308 -23 308 -23 539 -23 c 0,12,13
 636 -23 636 -23 708.5 -1 c 128,-1,14
 781 21 781 21 834 59 c 128,-1,15
 887 97 887 97 922 149 c 0,16,17
 991 250 991 250 1009 383 c 0,18,19
 1018 447 1018 447 1018 520.5 c 128,-1,20
 1018 594 1018 594 1005 672.5 c 128,-1,21
 992 751 992 751 961.5 832.5 c 128,-1,22
 931 914 931 914 881.5 1001.5 c 128,-1,23
 832 1089 832 1089 758 1190 c 2,24,-1
 749 1203 l 1,25,-1
 932 1241 l 1,26,-1
 932 1405 l 1,27,-1
 639 1342 l 1,28,-1
 579 1413 l 1,29,-1
 288 1413 l 1,30,-1
 398 1290 l 1,31,-1
 219 1253 l 1,32,-1
 219 1089 l 1,33,-1
 510 1151 l 1,34,0
 532 1122 532 1122 549 1098.5 c 128,-1,1
378.5 254 m 128,-1,36
 322 332 322 332 322 498 c 0,37,38
 322 579 322 579 340.5 644 c 128,-1,39
 359 709 359 709 393 755.5 c 128,-1,40
 427 802 427 802 475.5 827 c 128,-1,41
 524 852 524 852 582 852 c 0,42,43
 610 852 610 852 641 848 c 128,-1,44
 672 844 672 844 701 835 c 1,45,46
 741 747 741 747 761.5 668 c 128,-1,47
 782 589 782 589 782 504 c 0,48,49
 782 345 782 345 716 258 c 0,50,51
 686 217 686 217 643.5 196.5 c 128,-1,52
 601 176 601 176 553 176 c 0,53,35
 435 176 435 176 378.5 254 c 128,-1,36
EndSplineSet
EndChar

StartChar: divide
Encoding: 247 247 183
Width: 1126
Flags: W
LayerCount: 2
Fore
SplineSet
88 635 m 1,0,-1
 88 454 l 1,1,-1
 1039 454 l 1,2,-1
 1039 635 l 1,3,-1
 88 635 l 1,0,-1
559 295 m 128,-1,5
 528 295 528 295 502 284 c 128,-1,6
 476 273 476 273 456.5 254.5 c 128,-1,7
 437 236 437 236 426.5 211.5 c 128,-1,8
 416 187 416 187 416 157.5 c 128,-1,9
 416 128 416 128 426.5 102 c 128,-1,10
 437 76 437 76 456.5 56.5 c 128,-1,11
 476 37 476 37 502 26.5 c 128,-1,12
 528 16 528 16 559 16 c 128,-1,13
 590 16 590 16 616.5 27 c 128,-1,14
 643 38 643 38 663 57 c 128,-1,15
 683 76 683 76 694 102 c 128,-1,16
 705 128 705 128 705 157.5 c 128,-1,17
 705 187 705 187 694 211.5 c 128,-1,18
 683 236 683 236 663 254.5 c 128,-1,19
 643 273 643 273 616.5 284 c 128,-1,4
 590 295 590 295 559 295 c 128,-1,5
559 794 m 128,-1,21
 590 794 590 794 616.5 805 c 128,-1,22
 643 816 643 816 663 834.5 c 128,-1,23
 683 853 683 853 694 878 c 128,-1,24
 705 903 705 903 705 932.5 c 128,-1,25
 705 962 705 962 694 987.5 c 128,-1,26
 683 1013 683 1013 663 1032 c 128,-1,27
 643 1051 643 1051 616.5 1062 c 128,-1,28
 590 1073 590 1073 559 1073 c 128,-1,29
 528 1073 528 1073 502 1062.5 c 128,-1,30
 476 1052 476 1052 456.5 1032.5 c 128,-1,31
 437 1013 437 1013 426.5 987.5 c 128,-1,32
 416 962 416 962 416 932.5 c 128,-1,33
 416 903 416 903 426.5 878 c 128,-1,34
 437 853 437 853 456.5 834.5 c 128,-1,35
 476 816 476 816 502 805 c 128,-1,20
 528 794 528 794 559 794 c 128,-1,21
EndSplineSet
EndChar

StartChar: oslash
Encoding: 248 248 184
Width: 1126
Flags: W
LayerCount: 2
Fore
SplineSet
472 -17 m 1,0,1
 527 -23 527 -23 557 -23 c 0,2,3
 680 -23 680 -23 771.5 19 c 128,-1,4
 863 61 863 61 923.5 133 c 128,-1,5
 984 205 984 205 1014.5 303 c 128,-1,6
 1045 401 1045 401 1045 515 c 0,7,8
 1045 688 1045 688 986.5 804 c 128,-1,9
 928 920 928 920 820 978 c 2,10,-1
 813 982 l 1,11,-1
 897 1231 l 1,12,-1
 722 1231 l 1,13,-1
 652 1033 l 1,14,15
 608 1038 608 1038 569 1038 c 0,16,17
 448 1038 448 1038 357 997 c 128,-1,18
 266 956 266 956 205 884.5 c 128,-1,19
 144 813 144 813 113 715.5 c 128,-1,20
 82 618 82 618 82 503 c 0,21,22
 82 325 82 325 139.5 209.5 c 128,-1,23
 197 94 197 94 306 36 c 2,24,-1
 313 32 l 1,25,-1
 229 -215 l 1,26,-1
 405 -215 l 1,27,-1
 472 -17 l 1,0,1
369 248 m 2,28,29
 303 335 303 335 303 508 c 0,30,31
 303 577 303 577 317.5 638.5 c 128,-1,32
 332 700 332 700 364 747.5 c 128,-1,33
 396 795 396 795 444.5 822 c 128,-1,34
 493 849 493 849 559 849 c 2,35,-1
 578 849 l 1,36,-1
 592 849 l 1,37,-1
 380 233 l 1,38,-1
 369 248 l 2,28,29
744 791 m 1,39,-1
 756 778 l 2,40,41
 792 735 792 735 808 671 c 128,-1,42
 824 607 824 607 824 527 c 0,43,44
 824 369 824 369 760 277 c 0,45,46
 728 230 728 230 679.5 203 c 128,-1,47
 631 176 631 176 567 176 c 2,48,-1
 547 176 l 1,49,-1
 533 176 l 1,50,-1
 744 791 l 1,39,-1
EndSplineSet
EndChar

StartChar: thorn
Encoding: 254 254 190
Width: 1126
Flags: W
LayerCount: 2
Fore
SplineSet
1004 283.5 m 128,-1,1
 1043 386 1043 386 1043 526 c 0,2,3
 1043 645 1043 645 1018.5 740 c 128,-1,4
 994 835 994 835 947.5 901 c 128,-1,5
 901 967 901 967 833.5 1002.5 c 128,-1,6
 766 1038 766 1038 678 1038 c 0,7,8
 578 1038 578 1038 506.5 996 c 128,-1,9
 435 954 435 954 381 885 c 2,10,-1
 361 860 l 1,11,-1
 373 1091 l 1,12,-1
 373 1413 l 1,13,-1
 149 1413 l 1,14,-1
 149 -397 l 1,15,-1
 373 -397 l 1,16,-1
 373 3 l 1,17,18
 454 -18 454 -18 528 -18 c 0,19,20
 639 -18 639 -18 733.5 14.5 c 128,-1,21
 828 47 828 47 896.5 114 c 128,-1,0
 965 181 965 181 1004 283.5 c 128,-1,1
621 839 m 0,22,23
 807 839 807 839 807 518 c 0,24,25
 807 436 807 436 788.5 370.5 c 128,-1,26
 770 305 770 305 735.5 259.5 c 128,-1,27
 701 214 701 214 651 189 c 128,-1,28
 601 164 601 164 541 164 c 0,29,30
 496 164 496 164 452.5 171 c 128,-1,31
 409 178 409 178 373 192 c 1,32,-1
 373 646 l 1,33,34
 439 736 439 736 497 787.5 c 128,-1,35
 555 839 555 839 621 839 c 0,22,23
EndSplineSet
EndChar

StartChar: Aogonek
Encoding: 260 260 196
Width: 1126
Flags: W
LayerCount: 2
Fore
SplineSet
1090 -387 m 1,0,-1
 1090 -260 l 1,1,2
 1052 -266 1052 -266 1026 -266 c 0,3,4
 977 -266 977 -266 957.5 -247.5 c 128,-1,5
 938 -229 938 -229 938 -194 c 0,6,7
 938 -178 938 -178 942 -159.5 c 128,-1,8
 946 -141 946 -141 958 -119 c 0,9,10
 986 -71 986 -71 1057 0 c 1,11,-1
 1109 0 l 1,12,-1
 728 1287 l 1,13,-1
 398 1287 l 1,14,-1
 17 0 l 1,15,-1
 240 0 l 1,16,-1
 314 258 l 1,17,-1
 786 258 l 1,18,-1
 861 -13 l 1,19,20
 820 -50 820 -50 797 -79 c 0,21,22
 753 -135 753 -135 742 -186 c 0,23,24
 737 -211 737 -211 737 -237 c 0,25,26
 737 -314 737 -314 785 -357 c 0,27,28
 810 -379 810 -379 852 -392.5 c 128,-1,29
 894 -406 894 -406 956 -406 c 0,30,31
 986 -406 986 -406 1023.5 -400.5 c 128,-1,32
 1061 -395 1061 -395 1090 -387 c 1,0,-1
736 449 m 1,33,-1
 368 449 l 1,34,-1
 553 1104 l 1,35,-1
 736 449 l 1,33,-1
EndSplineSet
EndChar

StartChar: aogonek
Encoding: 261 261 197
Width: 1126
Flags: W
LayerCount: 2
Fore
SplineSet
198 973 m 1,0,-1
 198 797 l 1,1,2
 366 871 366 871 535 871 c 0,3,4
 647 871 647 871 701 821 c 0,5,6
 751 776 751 776 751 687 c 2,7,-1
 751 615 l 1,8,-1
 608 615 l 2,9,10
 483 615 483 615 391 590 c 128,-1,11
 299 565 299 565 238.5 521.5 c 128,-1,12
 178 478 178 478 148.5 418 c 128,-1,13
 119 358 119 358 119 287.5 c 128,-1,14
 119 217 119 217 139 160 c 0,15,16
 179 45 179 45 293 0 c 0,17,18
 350 -23 350 -23 426 -23 c 0,19,20
 585 -23 585 -23 697 68 c 0,21,22
 731 96 731 96 763 130 c 2,23,-1
 779 147 l 1,24,-1
 786 -14 l 1,25,26
 744 -50 744 -50 721 -79 c 0,27,28
 677 -135 677 -135 666 -186 c 0,29,30
 661 -211 661 -211 661 -237 c 0,31,32
 661 -314 661 -314 709 -357 c 0,33,34
 734 -379 734 -379 776.5 -392.5 c 128,-1,35
 819 -406 819 -406 881 -406 c 0,36,37
 911 -406 911 -406 948 -400.5 c 128,-1,38
 985 -395 985 -395 1014 -387 c 1,39,-1
 1014 -260 l 1,40,41
 976 -266 976 -266 950 -266 c 0,42,43
 901 -266 901 -266 881.5 -247.5 c 128,-1,44
 862 -229 862 -229 862 -194 c 0,45,46
 862 -178 862 -178 866 -160 c 0,47,48
 877 -103 877 -103 975 -3 c 1,49,-1
 975 698 l 2,50,51
 975 784 975 784 951 847 c 0,52,53
 902 974 902 974 746 1016 c 0,54,55
 667 1038 667 1038 560 1038 c 128,-1,56
 453 1038 453 1038 360.5 1019 c 128,-1,57
 268 1000 268 1000 198 973 c 1,0,-1
592 459 m 2,58,-1
 751 459 l 1,59,-1
 751 309 l 1,60,61
 681 236 681 236 624.5 198 c 128,-1,62
 568 160 568 160 514 160 c 0,63,64
 441 160 441 160 398 195 c 128,-1,65
 355 230 355 230 355 297 c 0,66,67
 355 330 355 330 368.5 359.5 c 128,-1,68
 382 389 382 389 411 412 c 0,69,70
 471 459 471 459 592 459 c 2,58,-1
EndSplineSet
EndChar

StartChar: dcroat
Encoding: 273 273 209
Width: 1126
Flags: W
LayerCount: 2
Fore
SplineSet
475 1307 m 1,0,-1
 475 1148 l 1,1,-1
 747 1148 l 1,2,-1
 747 1013 l 1,3,4
 704 1024 704 1024 668.5 1029 c 128,-1,5
 633 1034 633 1034 596 1034 c 0,6,7
 485 1034 485 1034 391 1001.5 c 128,-1,8
 297 969 297 969 230 902 c 128,-1,9
 163 835 163 835 124.5 732.5 c 128,-1,10
 86 630 86 630 86 489 c 0,11,12
 86 371 86 371 109.5 275.5 c 128,-1,13
 133 180 133 180 179 114 c 128,-1,14
 225 48 225 48 291.5 12.5 c 128,-1,15
 358 -23 358 -23 446 -23 c 0,16,17
 544 -23 544 -23 622 24 c 0,18,19
 659 46 659 46 692 78 c 128,-1,20
 725 110 725 110 756 149 c 2,21,-1
 773 170 l 1,22,-1
 780 0 l 1,23,-1
 971 0 l 1,24,-1
 971 1148 l 1,25,-1
 1102 1148 l 1,26,-1
 1102 1307 l 1,27,-1
 971 1307 l 1,28,-1
 971 1413 l 1,29,-1
 747 1413 l 1,30,-1
 747 1307 l 1,31,-1
 475 1307 l 1,0,-1
367 254 m 0,32,33
 322 329 322 329 322 500 c 0,34,35
 322 580 322 580 340 645 c 128,-1,36
 358 710 358 710 391.5 756 c 128,-1,37
 425 802 425 802 474 827 c 128,-1,38
 523 852 523 852 584 852 c 0,39,40
 628 852 628 852 669.5 845 c 128,-1,41
 711 838 711 838 747 824 c 1,42,-1
 747 370 l 1,43,44
 713 324 713 324 684 289 c 0,45,46
 623 215 623 215 568 190 c 0,47,48
 537 176 537 176 504 176 c 0,49,50
 413 176 413 176 367 254 c 0,32,33
EndSplineSet
EndChar

StartChar: Eogonek
Encoding: 280 280 216
Width: 1126
Flags: W
LayerCount: 2
Fore
SplineSet
1000 -387 m 1,0,-1
 1000 -260 l 1,1,2
 962 -266 962 -266 936 -266 c 0,3,4
 887 -266 887 -266 867.5 -247.5 c 128,-1,5
 848 -229 848 -229 848 -194 c 0,6,7
 848 -178 848 -178 852 -160 c 0,8,9
 863 -104 863 -104 961 -6 c 1,10,-1
 961 188 l 1,11,-1
 424 188 l 1,12,-1
 424 571 l 1,13,-1
 936 571 l 1,14,-1
 936 754 l 1,15,-1
 424 754 l 1,16,-1
 424 1099 l 1,17,-1
 961 1099 l 1,18,-1
 961 1287 l 1,19,-1
 194 1287 l 1,20,-1
 194 0 l 1,21,-1
 786 0 l 1,22,-1
 767 -17 l 2,23,24
 669 -104 669 -104 652 -186 c 0,25,26
 647 -211 647 -211 647 -237 c 0,27,28
 647 -314 647 -314 695 -357 c 0,29,30
 720 -379 720 -379 762.5 -392.5 c 128,-1,31
 805 -406 805 -406 867 -406 c 0,32,33
 897 -406 897 -406 934 -400.5 c 128,-1,34
 971 -395 971 -395 1000 -387 c 1,0,-1
EndSplineSet
EndChar

StartChar: eogonek
Encoding: 281 281 217
Width: 1126
Flags: W
LayerCount: 2
Fore
SplineSet
340 455 m 1,0,-1
 1009 455 l 1,1,2
 1014 523 1014 523 1014 588 c 0,3,4
 1014 687 1014 687 985.5 769.5 c 128,-1,5
 957 852 957 852 902.5 911.5 c 128,-1,6
 848 971 848 971 767 1004.5 c 128,-1,7
 686 1038 686 1038 579.5 1038 c 128,-1,8
 473 1038 473 1038 386.5 998.5 c 128,-1,9
 300 959 300 959 239.5 887 c 128,-1,10
 179 815 179 815 145.5 713 c 128,-1,11
 112 611 112 611 112 486 c 128,-1,12
 112 361 112 361 145.5 266 c 128,-1,13
 179 171 179 171 241 107 c 128,-1,14
 303 43 303 43 393.5 10 c 128,-1,15
 484 -23 484 -23 598 -23 c 2,16,-1
 634 -23 l 1,17,-1
 617 -40 l 2,18,19
 563 -94 563 -94 541 -143 c 0,20,21
 522 -185 522 -185 522 -237 c 0,22,23
 522 -314 522 -314 570 -357 c 0,24,25
 595 -379 595 -379 637 -392.5 c 128,-1,26
 679 -406 679 -406 741 -406 c 0,27,28
 771 -406 771 -406 808.5 -400.5 c 128,-1,29
 846 -395 846 -395 875 -387 c 1,30,-1
 875 -260 l 1,31,32
 836 -266 836 -266 811 -266 c 0,33,34
 762 -266 762 -266 742.5 -247.5 c 128,-1,35
 723 -229 723 -229 723 -194 c 0,36,37
 723 -178 723 -178 727 -160 c 0,38,39
 734 -123 734 -123 777 -69 c 0,40,41
 800 -41 800 -41 840 1 c 1,42,43
 905 11 905 11 959 26 c 1,44,-1
 959 203 l 1,45,46
 793 156 793 156 635 156 c 0,47,48
 569 156 569 156 515 175 c 128,-1,49
 461 194 461 194 422 230.5 c 128,-1,50
 383 267 383 267 361.5 321 c 128,-1,51
 340 375 340 375 340 445 c 2,52,-1
 340 455 l 1,0,-1
786 611 m 1,53,-1
 343 611 l 1,54,-1
 344 622 l 2,55,56
 355 737 355 737 417 801.5 c 128,-1,57
 479 866 479 866 575 866 c 0,58,59
 619 866 619 866 657.5 851.5 c 128,-1,60
 696 837 696 837 725 806 c 128,-1,61
 754 775 754 775 770 730 c 128,-1,62
 786 685 786 685 786 628 c 0,63,64
 786 624 786 624 786 611 c 1,53,-1
EndSplineSet
EndChar

StartChar: Hbar
Encoding: 294 294 230
Width: 1126
Flags: W
LayerCount: 2
Fore
SplineSet
127 10 m 1,0,-1
 353 10 l 1,1,-1
 353 555 l 1,2,-1
 776 555 l 1,3,-1
 776 10 l 1,4,-1
 1002 10 l 1,5,-1
 1002 925 l 1,6,-1
 1096 925 l 1,7,-1
 1096 1108 l 1,8,-1
 1002 1108 l 1,9,-1
 1002 1297 l 1,10,-1
 776 1297 l 1,11,-1
 776 1108 l 1,12,-1
 353 1108 l 1,13,-1
 353 1297 l 1,14,-1
 127 1297 l 1,15,-1
 127 1108 l 1,16,-1
 30 1108 l 1,17,-1
 30 925 l 1,18,-1
 127 925 l 1,19,-1
 127 10 l 1,0,-1
776 925 m 1,20,-1
 776 738 l 1,21,-1
 353 738 l 1,22,-1
 353 925 l 1,23,-1
 776 925 l 1,20,-1
EndSplineSet
EndChar

StartChar: hbar
Encoding: 295 295 231
Width: 1126
Flags: W
LayerCount: 2
Fore
SplineSet
745 20 m 1,0,-1
 969 20 l 1,1,-1
 969 647 l 2,2,3
 969 812 969 812 898 900 c 0,4,5
 862 945 862 945 805.5 969 c 128,-1,6
 749 993 749 993 670 993 c 0,7,8
 575 993 575 993 508.5 953 c 128,-1,9
 442 913 442 913 389 839 c 2,10,-1
 369 810 l 1,11,-1
 383 1030 l 1,12,-1
 383 1138 l 1,13,-1
 649 1138 l 1,14,-1
 649 1300 l 1,15,-1
 383 1300 l 1,16,-1
 383 1413 l 1,17,-1
 160 1413 l 1,18,-1
 160 1300 l 1,19,-1
 10 1300 l 1,20,-1
 10 1138 l 1,21,-1
 160 1138 l 1,22,-1
 160 20 l 1,23,-1
 383 20 l 1,24,-1
 383 613 l 1,25,26
 422 667 422 667 452 703 c 0,27,28
 512 775 512 775 561 797 c 0,29,30
 587 808 587 808 616 808 c 0,31,32
 690 808 690 808 718 758 c 0,33,34
 745 712 745 712 745 626 c 2,35,-1
 745 20 l 1,0,-1
0 1038 m 1024,36,-1
EndSplineSet
EndChar

StartChar: Iogonek
Encoding: 302 302 238
Width: 1126
Flags: W
LayerCount: 2
Fore
SplineSet
1006 -387 m 1,0,-1
 1006 -260 l 1,1,2
 968 -266 968 -266 942 -266 c 0,3,4
 893 -266 893 -266 873.5 -247.5 c 128,-1,5
 854 -229 854 -229 854 -194 c 0,6,7
 854 -178 854 -178 858 -160 c 0,8,9
 869 -101 869 -101 967 3 c 1,10,-1
 967 203 l 1,11,-1
 678 203 l 1,12,-1
 678 1126 l 1,13,-1
 967 1126 l 1,14,-1
 967 1307 l 1,15,-1
 160 1307 l 1,16,-1
 160 1126 l 1,17,-1
 448 1126 l 1,18,-1
 448 203 l 1,19,-1
 160 203 l 1,20,-1
 160 2 l 1,21,-1
 792 2 l 1,22,-1
 773 -17 l 1,23,24
 675 -104 675 -104 658 -186 c 0,25,26
 653 -211 653 -211 653 -237 c 0,27,28
 653 -314 653 -314 701 -357 c 0,29,30
 726 -379 726 -379 768.5 -392.5 c 128,-1,31
 811 -406 811 -406 873 -406 c 0,32,33
 903 -406 903 -406 940 -400.5 c 128,-1,34
 977 -395 977 -395 1006 -387 c 1,0,-1
EndSplineSet
EndChar

StartChar: iogonek
Encoding: 303 303 239
Width: 1126
Flags: W
LayerCount: 2
Fore
SplineSet
1039 -387 m 1,0,-1
 1039 -260 l 1,1,2
 1001 -266 1001 -266 975 -266 c 0,3,4
 926 -266 926 -266 906.5 -247.5 c 128,-1,5
 887 -229 887 -229 887 -194 c 0,6,7
 887 -178 887 -178 891 -160 c 0,8,9
 902 -104 902 -104 1000 -6 c 1,10,-1
 1000 170 l 1,11,-1
 707 170 l 1,12,-1
 707 996 l 1,13,-1
 190 996 l 1,14,-1
 190 826 l 1,15,-1
 477 826 l 1,16,-1
 477 170 l 1,17,-1
 155 170 l 1,18,-1
 155 0 l 1,19,-1
 825 0 l 1,20,-1
 806 -17 l 2,21,22
 708 -104 708 -104 691 -186 c 0,23,24
 686 -211 686 -211 686 -237 c 0,25,26
 686 -314 686 -314 734 -357 c 0,27,28
 759 -379 759 -379 801.5 -392.5 c 128,-1,29
 844 -406 844 -406 906 -406 c 0,30,31
 936 -406 936 -406 973 -400.5 c 128,-1,32
 1010 -395 1010 -395 1039 -387 c 1,0,-1
716 1246 m 128,-1,34
 727 1273 727 1273 727 1304 c 128,-1,35
 727 1335 727 1335 715.5 1362 c 128,-1,36
 704 1389 704 1389 684 1410 c 128,-1,37
 664 1431 664 1431 637 1442.5 c 128,-1,38
 610 1454 610 1454 578 1454 c 128,-1,39
 546 1454 546 1454 518.5 1442.5 c 128,-1,40
 491 1431 491 1431 471 1410 c 128,-1,41
 451 1389 451 1389 439.5 1362 c 128,-1,42
 428 1335 428 1335 428 1304 c 128,-1,43
 428 1273 428 1273 439 1246 c 128,-1,44
 450 1219 450 1219 470.5 1198.5 c 128,-1,45
 491 1178 491 1178 518.5 1166.5 c 128,-1,46
 546 1155 546 1155 578 1155 c 128,-1,47
 610 1155 610 1155 637 1166.5 c 128,-1,48
 664 1178 664 1178 684.5 1198.5 c 128,-1,33
 705 1219 705 1219 716 1246 c 128,-1,34
EndSplineSet
EndChar

StartChar: dotlessi
Encoding: 305 305 241
Width: 1126
Flags: W
LayerCount: 2
Fore
SplineSet
190 836 m 1,0,-1
 477 836 l 1,1,-1
 477 180 l 1,2,-1
 155 180 l 1,3,-1
 155 10 l 1,4,-1
 1000 10 l 1,5,-1
 1000 180 l 1,6,-1
 707 180 l 1,7,-1
 707 1006 l 1,8,-1
 190 1006 l 1,9,-1
 190 836 l 1,0,-1
EndSplineSet
EndChar

StartChar: IJ
Encoding: 306 306 242
Width: 1126
Flags: W
LayerCount: 2
Fore
SplineSet
106 1297 m 1,0,-1
 106 10 l 1,1,-1
 332 10 l 1,2,-1
 332 1297 l 1,3,-1
 106 1297 l 1,0,-1
489 230 m 1,4,-1
 489 19 l 1,5,6
 578 -16 578 -16 680 -16 c 0,7,8
 762 -16 762 -16 825.5 12.5 c 128,-1,9
 889 41 889 41 932.5 90 c 128,-1,10
 976 139 976 139 999 205 c 0,11,12
 1022 265 1022 265 1022 334 c 2,13,-1
 1022 1307 l 1,14,-1
 796 1307 l 1,15,-1
 796 346 l 2,16,17
 796 302 796 302 783.5 272 c 128,-1,18
 771 242 771 242 751 224 c 128,-1,19
 731 206 731 206 707 199 c 0,20,21
 684 190 684 190 661 190 c 0,22,23
 611 190 611 190 566 203 c 0,24,25
 522 215 522 215 489 230 c 1,4,-1
EndSplineSet
EndChar

StartChar: ij
Encoding: 307 307 243
Width: 1126
Flags: W
LayerCount: 2
Fore
SplineSet
391 -213 m 1,0,-1
 391 -397 l 1,1,2
 476 -420 476 -420 588 -420 c 0,3,4
 678 -420 678 -420 751 -397 c 0,5,6
 898 -349 898 -349 952 -187 c 0,7,8
 979 -104 979 -104 979 15 c 2,9,-1
 979 996 l 1,10,-1
 755 996 l 1,11,-1
 755 2 l 2,12,13
 755 -121 755 -121 716 -183 c 0,14,15
 676 -247 676 -247 578 -247 c 0,16,17
 526 -247 526 -247 469 -235 c 0,18,19
 425 -226 425 -226 391 -213 c 1,0,-1
149 10 m 1,20,-1
 373 10 l 1,21,-1
 373 1006 l 1,22,-1
 149 1006 l 1,23,-1
 149 10 l 1,20,-1
366 1199.5 m 128,-1,25
 386 1220 386 1220 397 1246.5 c 128,-1,26
 408 1273 408 1273 408 1303.5 c 128,-1,27
 408 1334 408 1334 397 1360.5 c 128,-1,28
 386 1387 386 1387 366 1407 c 128,-1,29
 346 1427 346 1427 319.5 1438.5 c 128,-1,30
 293 1450 293 1450 261.5 1450 c 128,-1,31
 230 1450 230 1450 203 1438.5 c 128,-1,32
 176 1427 176 1427 156 1407 c 128,-1,33
 136 1387 136 1387 125 1360.5 c 128,-1,34
 114 1334 114 1334 114 1303.5 c 128,-1,35
 114 1273 114 1273 125 1246.5 c 128,-1,36
 136 1220 136 1220 156 1199.5 c 128,-1,37
 176 1179 176 1179 203 1168 c 128,-1,38
 230 1157 230 1157 261.5 1157 c 128,-1,39
 293 1157 293 1157 319.5 1168 c 128,-1,24
 346 1179 346 1179 366 1199.5 c 128,-1,25
972.5 1199.5 m 128,-1,41
 993 1220 993 1220 1004 1246.5 c 128,-1,42
 1015 1273 1015 1273 1015 1303.5 c 128,-1,43
 1015 1334 1015 1334 1004 1360.5 c 128,-1,44
 993 1387 993 1387 972.5 1407 c 128,-1,45
 952 1427 952 1427 925.5 1438.5 c 128,-1,46
 899 1450 899 1450 867.5 1450 c 128,-1,47
 836 1450 836 1450 809.5 1438.5 c 128,-1,48
 783 1427 783 1427 763 1407 c 128,-1,49
 743 1387 743 1387 732 1360.5 c 128,-1,50
 721 1334 721 1334 721 1303.5 c 128,-1,51
 721 1273 721 1273 732 1246.5 c 128,-1,52
 743 1220 743 1220 763 1199.5 c 128,-1,53
 783 1179 783 1179 809.5 1168 c 128,-1,54
 836 1157 836 1157 867.5 1157 c 128,-1,55
 899 1157 899 1157 925.5 1168 c 128,-1,40
 952 1179 952 1179 972.5 1199.5 c 128,-1,41
EndSplineSet
EndChar

StartChar: Lslash
Encoding: 321 321 257
Width: 1126
Flags: W
LayerCount: 2
Fore
SplineSet
1010 201 m 1,0,-1
 455 201 l 1,1,-1
 455 685 l 1,2,-1
 809 866 l 1,3,-1
 809 1057 l 1,4,-1
 455 876 l 1,5,-1
 455 1297 l 1,6,-1
 225 1297 l 1,7,-1
 225 758 l 1,8,-1
 45 666 l 1,9,-1
 45 475 l 1,10,-1
 225 567 l 1,11,-1
 225 10 l 1,12,-1
 1010 10 l 1,13,-1
 1010 201 l 1,0,-1
EndSplineSet
EndChar

StartChar: lslash
Encoding: 322 322 258
Width: 1126
Flags: W
LayerCount: 2
Fore
SplineSet
190 1413 m 1,0,-1
 190 1243 l 1,1,-1
 477 1243 l 1,2,-1
 477 819 l 1,3,-1
 213 686 l 1,4,-1
 213 489 l 1,5,-1
 477 622 l 1,6,-1
 477 190 l 1,7,-1
 155 190 l 1,8,-1
 155 20 l 1,9,-1
 1000 20 l 1,10,-1
 1000 190 l 1,11,-1
 707 190 l 1,12,-1
 707 737 l 1,13,-1
 971 870 l 1,14,-1
 971 1067 l 1,15,-1
 707 934 l 1,16,-1
 707 1413 l 1,17,-1
 190 1413 l 1,0,-1
EndSplineSet
EndChar

StartChar: Eng
Encoding: 330 330 266
Width: 1126
Flags: W
LayerCount: 2
Fore
SplineSet
997 -199 m 0,0,1
 1030 -120 1030 -120 1030 -8 c 2,2,-1
 1030 1287 l 1,3,-1
 826 1287 l 1,4,-1
 826 393 l 1,5,-1
 764 529 l 1,6,-1
 376 1287 l 1,7,-1
 104 1287 l 1,8,-1
 104 0 l 1,9,-1
 308 0 l 1,10,-1
 308 980 l 1,11,-1
 804 -8 l 1,12,-1
 804 -10 l 2,13,14
 804 -137 804 -137 743 -191 c 0,15,16
 685 -243 685 -243 578 -245 c 1,17,-1
 578 -420 l 1,18,19
 679 -419 679 -419 763 -397 c 0,20,21
 933 -352 933 -352 997 -199 c 0,0,1
EndSplineSet
EndChar

StartChar: eng
Encoding: 331 331 267
Width: 1126
Flags: W
LayerCount: 2
Fore
SplineSet
947 -176 m 0,0,1
 979 -92 979 -92 979 22 c 2,2,-1
 979 686 l 2,3,4
 979 767 979 767 960 832 c 0,5,6
 922 963 922 963 810 1013 c 0,7,8
 754 1038 754 1038 678 1038 c 0,9,10
 623 1038 623 1038 580 1026 c 0,11,12
 494 1003 494 1003 427 938 c 0,13,14
 394 906 394 906 364 867 c 2,15,-1
 347 846 l 1,16,-1
 340 1016 l 1,17,-1
 149 1016 l 1,18,-1
 149 3 l 1,19,-1
 373 3 l 1,20,-1
 373 650 l 1,21,22
 439 741 439 741 497 793.5 c 128,-1,23
 555 846 555 846 621 846 c 0,24,25
 696 846 696 846 729 789 c 0,26,27
 755 744 755 744 755 666 c 2,28,-1
 755 20 l 2,29,30
 755 -110 755 -110 696 -178 c 0,31,32
 639 -242 639 -242 530 -245 c 1,33,-1
 530 -420 l 1,34,35
 630 -419 630 -419 713.5 -392.5 c 128,-1,36
 797 -366 797 -366 856.5 -312 c 128,-1,37
 916 -258 916 -258 947 -176 c 0,0,1
EndSplineSet
EndChar

StartChar: OE
Encoding: 338 338 274
Width: 1126
Flags: W
LayerCount: 2
Fore
SplineSet
1090 1127 m 1,0,-1
 1090 1307 l 1,1,-1
 737 1307 l 2,2,3
 708 1307 708 1307 685 1310 c 0,4,5
 626 1318 626 1318 589 1321.5 c 128,-1,6
 552 1325 552 1325 512 1325 c 0,7,8
 409 1325 409 1325 322.5 1286.5 c 128,-1,9
 236 1248 236 1248 172.5 1166 c 128,-1,10
 109 1084 109 1084 73 956.5 c 128,-1,11
 37 829 37 829 37 657.5 c 128,-1,12
 37 486 37 486 64 361 c 0,13,14
 118 108 118 108 290 25 c 0,15,16
 378 -18 378 -18 502 -18 c 0,17,18
 536 -18 536 -18 564 -15 c 2,19,-1
 677 -3 l 2,20,21
 706 0 706 0 745 0 c 2,22,-1
 1090 0 l 1,23,-1
 1090 180 l 1,24,-1
 801 180 l 1,25,-1
 801 589 l 1,26,-1
 1067 589 l 1,27,-1
 1067 762 l 1,28,-1
 801 762 l 1,29,-1
 801 1127 l 1,30,-1
 1090 1127 l 1,0,-1
553.5 1124.5 m 128,-1,32
 570 1123 570 1123 592 1115 c 1,33,-1
 592 196 l 1,34,35
 574 187 574 187 557.5 184 c 128,-1,36
 541 181 541 181 514 181 c 0,37,38
 382 181 382 181 320 308 c 0,39,40
 291 368 291 368 278.5 455.5 c 128,-1,41
 266 543 266 543 266 651 c 0,42,43
 266 875 266 875 321 993 c 0,44,45
 351 1055 351 1055 397 1090.5 c 128,-1,46
 443 1126 443 1126 508 1126 c 0,47,31
 537 1126 537 1126 553.5 1124.5 c 128,-1,32
EndSplineSet
EndChar

StartChar: oe
Encoding: 339 339 275
Width: 1126
Flags: W
LayerCount: 2
Fore
SplineSet
669 15 m 0,0,1
 734 -23 734 -23 815 -23 c 0,2,3
 876 -23 876 -23 939 -12 c 0,4,5
 1001 0 1001 0 1051 20 c 1,6,-1
 1051 174 l 1,7,8
 1001 154 1001 154 948 143 c 128,-1,9
 895 132 895 132 850 132 c 128,-1,10
 805 132 805 132 770 155 c 0,11,12
 701 199 701 199 673 320 c 0,13,14
 660 378 660 378 660 452 c 2,15,-1
 660 462 l 1,16,-1
 1085 462 l 1,17,18
 1085 470 1085 470 1086.5 521.5 c 128,-1,19
 1088 573 1088 573 1088 585 c 0,20,21
 1088 799 1088 799 1019 916 c 0,22,23
 985 974 985 974 930.5 1006 c 128,-1,24
 876 1038 876 1038 802.5 1038 c 128,-1,25
 729 1038 729 1038 674.5 999 c 128,-1,26
 620 960 620 960 589 889 c 2,27,-1
 580 867 l 1,28,-1
 571 889 l 2,29,30
 540 966 540 966 482.5 1002 c 128,-1,31
 425 1038 425 1038 347.5 1038 c 128,-1,32
 270 1038 270 1038 212 1000 c 128,-1,33
 154 962 154 962 115.5 890.5 c 128,-1,34
 77 819 77 819 58 719 c 128,-1,35
 39 619 39 619 39 498 c 0,36,37
 39 355 39 355 57 255 c 128,-1,38
 75 155 75 155 111 94 c 128,-1,39
 147 33 147 33 202 5 c 128,-1,40
 257 -23 257 -23 334 -23 c 0,41,42
 372 -23 372 -23 406.5 -11.5 c 128,-1,43
 441 0 441 0 470 20 c 128,-1,44
 499 40 499 40 521 68.5 c 128,-1,45
 543 97 543 97 556 130 c 2,46,-1
 565 156 l 1,47,-1
 574 130 l 2,48,49
 589 91 589 91 613.5 62.5 c 128,-1,50
 638 34 638 34 669 15 c 0,0,1
406 855 m 128,-1,52
 431 834 431 834 446 789 c 0,53,54
 475 704 475 704 475 509 c 0,55,56
 475 225 475 225 403 161 c 0,57,58
 378 139 378 139 344 139 c 0,59,60
 274 139 274 139 244 226 c 0,61,62
 215 311 215 311 215 508 c 0,63,64
 215 699 215 699 248 786 c 0,65,66
 264 832 264 832 288.5 854 c 128,-1,67
 313 876 313 876 347 876 c 128,-1,51
 381 876 381 876 406 855 c 128,-1,52
913 608 m 2,68,-1
 913 598 l 1,69,-1
 660 598 l 1,70,-1
 660 608 l 1,71,72
 666 735 666 735 698 804 c 0,73,74
 732 876 732 876 797 876 c 0,75,76
 853 876 853 876 884 810 c 0,77,78
 913 747 913 747 913 608 c 2,68,-1
EndSplineSet
EndChar

StartChar: Scedilla
Encoding: 350 350 286
Width: 1126
Flags: W
LayerCount: 2
Fore
SplineSet
915 128 m 0,0,1
 960 176 960 176 985 242 c 128,-1,2
 1010 308 1010 308 1010 390 c 128,-1,3
 1010 472 1010 472 983.5 529.5 c 128,-1,4
 957 587 957 587 912.5 629.5 c 128,-1,5
 868 672 868 672 811.5 702 c 128,-1,6
 755 732 755 732 695 755.5 c 128,-1,7
 635 779 635 779 577 800 c 128,-1,8
 519 821 519 821 472.5 845 c 128,-1,9
 426 869 426 869 396.5 901 c 128,-1,10
 367 933 367 933 367 979 c 0,11,12
 367 1014 367 1014 381 1044 c 0,13,14
 409 1102 409 1102 504 1125 c 0,15,16
 550 1136 550 1136 616 1136 c 0,17,18
 730 1136 730 1136 857 1102 c 0,19,20
 887 1094 887 1094 914 1084 c 1,21,-1
 914 1290 l 1,22,23
 809 1316 809 1316 689 1326 c 0,24,25
 647 1329 647 1329 608 1329 c 0,26,27
 477 1329 477 1329 384.5 1298.5 c 128,-1,28
 292 1268 292 1268 233.5 1217.5 c 128,-1,29
 175 1167 175 1167 148 1099 c 128,-1,30
 121 1031 121 1031 121 951 c 128,-1,31
 121 871 121 871 147.5 812.5 c 128,-1,32
 174 754 174 754 218 712 c 128,-1,33
 262 670 262 670 318.5 641 c 128,-1,34
 375 612 375 612 434 588.5 c 128,-1,35
 493 565 493 565 551 544.5 c 128,-1,36
 609 524 609 524 655 498 c 128,-1,37
 701 472 701 472 730.5 437 c 128,-1,38
 760 402 760 402 760 349 c 0,39,40
 760 227 760 227 613 190 c 0,41,42
 563 178 563 178 492 178 c 0,43,44
 360 178 360 178 191 226 c 0,45,46
 148 238 148 238 108 252 c 1,47,-1
 108 27 l 1,48,49
 264 -18 264 -18 435 -22 c 1,50,-1
 447 -22 l 1,51,-1
 391 -295 l 1,52,-1
 550 -295 l 1,53,-1
 658 -4 l 1,54,55
 825 30 825 30 915 128 c 0,0,1
EndSplineSet
EndChar

StartChar: scedilla
Encoding: 351 351 287
Width: 1126
Flags: W
LayerCount: 2
Fore
SplineSet
886 97 m 0,0,1
 924 133 924 133 945.5 183 c 128,-1,2
 967 233 967 233 967 294.5 c 128,-1,3
 967 356 967 356 951.5 401 c 128,-1,4
 936 446 936 446 901 481 c 128,-1,5
 866 516 866 516 807 544.5 c 128,-1,6
 748 573 748 573 665.5 596.5 c 128,-1,7
 583 620 583 620 534.5 639 c 128,-1,8
 486 658 486 658 458 676.5 c 128,-1,9
 430 695 430 695 420 715.5 c 128,-1,10
 410 736 410 736 410 762 c 0,11,12
 410 816 410 816 460 847 c 0,13,14
 508 876 508 876 585 876 c 128,-1,15
 662 876 662 876 736.5 864.5 c 128,-1,16
 811 853 811 853 891 828 c 1,17,-1
 891 1008 l 1,18,19
 837 1019 837 1019 766 1028.5 c 128,-1,20
 695 1038 695 1038 600 1038 c 0,21,22
 490 1038 490 1038 409 1014 c 128,-1,23
 328 990 328 990 274 949 c 128,-1,24
 220 908 220 908 193 854 c 128,-1,25
 166 800 166 800 166 738 c 128,-1,26
 166 676 166 676 184 629.5 c 128,-1,27
 202 583 202 583 237.5 547.5 c 128,-1,28
 273 512 273 512 328 485.5 c 128,-1,29
 383 459 383 459 461 437 c 128,-1,30
 539 415 539 415 589.5 396 c 128,-1,31
 640 377 640 377 669.5 358 c 128,-1,32
 699 339 699 339 710 317 c 128,-1,33
 721 295 721 295 721 270 c 0,34,35
 721 214 721 214 670 180.5 c 128,-1,36
 619 147 619 147 520 147 c 0,37,38
 436 147 436 147 345 164.5 c 128,-1,39
 254 182 254 182 166 218 c 1,40,-1
 166 17 l 1,41,42
 297 -16 297 -16 460 -22 c 1,43,-1
 472 -22 l 1,44,-1
 415 -295 l 1,45,-1
 575 -295 l 1,46,-1
 682 -3 l 1,47,48
 814 26 814 26 886 97 c 0,0,1
EndSplineSet
EndChar

StartChar: Tbar
Encoding: 358 358 294
Width: 1126
Flags: W
LayerCount: 2
Fore
SplineSet
679 727 m 1,0,-1
 679 1112 l 1,1,-1
 1037 1112 l 1,2,-1
 1037 1297 l 1,3,-1
 89 1297 l 1,4,-1
 89 1112 l 1,5,-1
 447 1112 l 1,6,-1
 447 727 l 1,7,-1
 210 727 l 1,8,-1
 210 545 l 1,9,-1
 447 545 l 1,10,-1
 447 10 l 1,11,-1
 679 10 l 1,12,-1
 679 545 l 1,13,-1
 917 545 l 1,14,-1
 917 727 l 1,15,-1
 679 727 l 1,0,-1
EndSplineSet
EndChar

StartChar: tbar
Encoding: 359 359 295
Width: 1126
Flags: W
LayerCount: 2
Fore
SplineSet
342 438 m 1,0,-1
 342 325 l 2,1,2
 342 234 342 234 364 168.5 c 128,-1,3
 386 103 386 103 431.5 61 c 128,-1,4
 477 19 477 19 547.5 -2 c 128,-1,5
 618 -23 618 -23 722.5 -23 c 128,-1,6
 827 -23 827 -23 967 8 c 1,7,-1
 967 185 l 1,8,9
 925 174 925 174 871 164.5 c 128,-1,10
 817 155 817 155 756 155 c 0,11,12
 658 155 658 155 615 203 c 128,-1,13
 572 251 572 251 572 343 c 2,14,-1
 572 438 l 1,15,-1
 905 438 l 1,16,-1
 905 610 l 1,17,-1
 572 610 l 1,18,-1
 572 839 l 1,19,-1
 967 839 l 1,20,-1
 967 1011 l 1,21,-1
 572 1011 l 1,22,-1
 572 1338 l 1,23,-1
 342 1278 l 1,24,-1
 342 1012 l 1,25,-1
 69 1012 l 1,26,-1
 69 839 l 1,27,-1
 342 839 l 1,28,-1
 342 611 l 1,29,-1
 110 611 l 1,30,-1
 110 438 l 1,31,-1
 342 438 l 1,0,-1
0 1016 m 1024,32,-1
EndSplineSet
EndChar

StartChar: Uogonek
Encoding: 370 370 306
Width: 1126
Flags: W
LayerCount: 2
Fore
SplineSet
758 -387 m 1,0,-1
 758 -260 l 1,1,2
 721 -266 721 -266 694 -266 c 0,3,4
 645 -266 645 -266 625.5 -247.5 c 128,-1,5
 606 -229 606 -229 606 -194 c 0,6,7
 606 -178 606 -178 610 -160 c 0,8,9
 617 -124 617 -124 661 -69 c 0,10,11
 683 -41 683 -41 723 -1 c 1,12,-1
 725 0 l 1,13,14
 880 46 880 46 954.5 167.5 c 128,-1,15
 1029 289 1029 289 1029 471 c 2,16,-1
 1029 1287 l 1,17,-1
 803 1287 l 1,18,-1
 803 455 l 2,19,20
 803 301 803 301 745 229 c 0,21,22
 715 193 715 193 671 176.5 c 128,-1,23
 627 160 627 160 562 160 c 128,-1,24
 497 160 497 160 452 179 c 128,-1,25
 407 198 407 198 376.5 235.5 c 128,-1,26
 346 273 346 273 334.5 325.5 c 128,-1,27
 323 378 323 378 323 445 c 2,28,-1
 323 1287 l 1,29,-1
 97 1287 l 1,30,-1
 97 430 l 2,31,32
 97 329 97 329 119 249 c 0,33,34
 164 86 164 86 313 20 c 0,35,36
 389 -14 389 -14 496 -21 c 2,37,-1
 518 -22 l 1,38,-1
 502 -38 l 2,39,40
 449 -90 449 -90 425 -142 c 0,41,42
 405 -185 405 -185 405 -237 c 0,43,44
 405 -314 405 -314 453 -357 c 0,45,46
 478 -379 478 -379 520.5 -392.5 c 128,-1,47
 563 -406 563 -406 625 -406 c 0,48,49
 655 -406 655 -406 692 -400.5 c 128,-1,50
 729 -395 729 -395 758 -387 c 1,0,-1
EndSplineSet
EndChar

StartChar: uogonek
Encoding: 371 371 307
Width: 1126
Flags: W
LayerCount: 2
Fore
SplineSet
1016 -387 m 1,0,-1
 1016 -260 l 1,1,2
 978 -266 978 -266 952 -266 c 0,3,4
 903 -266 903 -266 883.5 -247.5 c 128,-1,5
 864 -229 864 -229 864 -194 c 0,6,7
 864 -178 864 -178 868 -160 c 0,8,9
 879 -104 879 -104 977 -6 c 1,10,-1
 977 996 l 1,11,-1
 753 996 l 1,12,-1
 753 360 l 1,13,14
 687 270 687 270 629 218 c 128,-1,15
 571 166 571 166 504.5 166 c 128,-1,16
 438 166 438 166 404.5 212 c 128,-1,17
 371 258 371 258 371 344 c 2,18,-1
 371 996 l 1,19,-1
 147 996 l 1,20,-1
 147 324 l 2,21,22
 147 163 147 163 223 71 c 0,23,24
 260 26 260 26 316.5 1.5 c 128,-1,25
 373 -23 373 -23 449 -23 c 0,26,27
 596 -23 596 -23 698 76 c 0,28,29
 731 108 731 108 762 146 c 2,30,-1
 779 167 l 1,31,-1
 786 -14 l 1,32,33
 746 -50 746 -50 723 -79 c 0,34,35
 679 -135 679 -135 668 -186 c 0,36,37
 663 -211 663 -211 663 -237 c 0,38,39
 663 -314 663 -314 711 -357 c 0,40,41
 736 -379 736 -379 778.5 -392.5 c 128,-1,42
 821 -406 821 -406 883 -406 c 0,43,44
 913 -406 913 -406 950 -400.5 c 128,-1,45
 987 -395 987 -395 1016 -387 c 1,0,-1
EndSplineSet
EndChar

StartChar: longs
Encoding: 383 383 319
Width: 1126
Flags: W
LayerCount: 2
Fore
SplineSet
914 1428 m 128,-1,1
 845 1436 845 1436 774 1436 c 0,2,3
 639 1436 639 1436 543.5 1398 c 128,-1,4
 448 1360 448 1360 388 1295.5 c 128,-1,5
 328 1231 328 1231 300 1145.5 c 128,-1,6
 272 1060 272 1060 272 966 c 2,7,-1
 272 20 l 1,8,-1
 504 20 l 1,9,-1
 504 993 l 2,10,11
 504 1050 504 1050 519 1098.5 c 128,-1,12
 534 1147 534 1147 567.5 1183 c 128,-1,13
 601 1219 601 1219 656.5 1239 c 128,-1,14
 712 1259 712 1259 793 1259 c 0,15,16
 849 1259 849 1259 924 1248 c 0,17,18
 991 1238 991 1238 1037 1224 c 1,19,-1
 1037 1407 l 1,20,0
 983 1420 983 1420 914 1428 c 128,-1,1
EndSplineSet
EndChar

StartChar: uni0180
Encoding: 384 384 320
Width: 1126
Flags: W
LayerCount: 2
Fore
SplineSet
1004 283.5 m 128,-1,1
 1043 386 1043 386 1043 526 c 0,2,3
 1043 635 1043 635 1018.5 730 c 128,-1,4
 994 825 994 825 947.5 891 c 128,-1,5
 901 957 901 957 833.5 992.5 c 128,-1,6
 766 1028 766 1028 678 1028 c 0,7,8
 578 1028 578 1028 506.5 986 c 128,-1,9
 435 944 435 944 381 875 c 2,10,-1
 361 850 l 1,11,-1
 373 1081 l 1,12,-1
 373 1128 l 1,13,-1
 613 1128 l 1,14,-1
 613 1282 l 1,15,-1
 373 1282 l 1,16,-1
 373 1413 l 1,17,-1
 149 1413 l 1,18,-1
 149 1282 l 1,19,-1
 10 1282 l 1,20,-1
 10 1128 l 1,21,-1
 149 1128 l 1,22,-1
 149 41 l 1,23,24
 232 15 232 15 325 -1.5 c 128,-1,25
 418 -18 418 -18 528.5 -18 c 128,-1,26
 639 -18 639 -18 733.5 14.5 c 128,-1,27
 828 47 828 47 896.5 114 c 128,-1,0
 965 181 965 181 1004 283.5 c 128,-1,1
621 829 m 0,28,29
 666 829 666 829 700 810 c 0,30,31
 770 773 770 773 795 651 c 0,32,33
 807 591 807 591 807 513.5 c 128,-1,34
 807 436 807 436 788.5 370.5 c 128,-1,35
 770 305 770 305 735.5 259.5 c 128,-1,36
 701 214 701 214 651 189 c 128,-1,37
 601 164 601 164 541 164 c 0,38,39
 496 164 496 164 452.5 171 c 128,-1,40
 409 178 409 178 373 192 c 1,41,-1
 373 636 l 1,42,43
 439 726 439 726 497 777.5 c 128,-1,44
 555 829 555 829 621 829 c 0,28,29
EndSplineSet
EndChar

StartChar: uni0181
Encoding: 385 385 321
Width: 1126
Flags: W
LayerCount: 2
Fore
SplineSet
164 861 m 1,0,1
 160 877 160 877 155 896 c 0,2,3
 146 935 146 935 146 981 c 0,4,5
 146 1008 146 1008 154.5 1035.5 c 128,-1,6
 163 1063 163 1063 181 1084 c 128,-1,7
 199 1105 199 1105 226 1117.5 c 128,-1,8
 253 1130 253 1130 289 1130 c 2,9,-1
 299 1130 l 1,10,-1
 299 10 l 1,11,-1
 543 10 l 2,12,13
 765 10 765 10 887 88 c 0,14,15
 1039 184 1039 184 1039 401 c 0,16,17
 1039 462 1039 462 1020 511.5 c 128,-1,18
 1001 561 1001 561 969 597 c 128,-1,19
 937 633 937 633 894 655.5 c 128,-1,20
 851 678 851 678 803 686 c 2,21,-1
 764 692 l 1,22,-1
 802 705 l 2,23,24
 849 722 849 722 884 751 c 0,25,26
 953 809 953 809 976 899 c 0,27,28
 987 944 987 944 987 993 c 0,29,30
 987 1146 987 1146 875.5 1221.5 c 128,-1,31
 764 1297 764 1297 554 1297 c 2,32,-1
 323 1297 l 2,33,34
 68 1297 68 1297 -4 1124 c 0,35,36
 -28 1065 -28 1065 -28 986 c 0,37,38
 -28 949 -28 949 -22 914.5 c 128,-1,39
 -16 880 -16 880 -11 861 c 1,40,-1
 164 861 l 1,0,1
663 206.5 m 128,-1,42
 619 191 619 191 559 191 c 2,43,-1
 522 191 l 1,44,-1
 522 588 l 1,45,-1
 551 588 l 2,46,47
 675 588 675 588 734.5 537.5 c 128,-1,48
 794 487 794 487 794 397 c 0,49,50
 794 354 794 354 780.5 316 c 128,-1,51
 767 278 767 278 737 250 c 128,-1,41
 707 222 707 222 663 206.5 c 128,-1,42
704.5 1075 m 128,-1,53
 751 1028 751 1028 751 950 c 0,54,55
 751 865 751 865 706 814 c 0,56,57
 655 756 655 756 547 756 c 2,58,-1
 522 756 l 1,59,-1
 522 1122 l 1,60,-1
 552 1122 l 2,61,52
 658 1122 658 1122 704.5 1075 c 128,-1,53
EndSplineSet
EndChar

StartChar: uni0183
Encoding: 387 387 323
Width: 1126
Flags: W
LayerCount: 2
Fore
SplineSet
1004 283.5 m 128,-1,1
 1043 386 1043 386 1043 526 c 0,2,3
 1043 638 1043 638 1018.5 733 c 128,-1,4
 994 828 994 828 947.5 894 c 128,-1,5
 901 960 901 960 833.5 995.5 c 128,-1,6
 766 1031 766 1031 678 1031 c 0,7,8
 578 1031 578 1031 506.5 989 c 128,-1,9
 435 947 435 947 381 878 c 2,10,-1
 361 853 l 1,11,-1
 373 1084 l 1,12,-1
 373 1238 l 1,13,-1
 938 1238 l 1,14,-1
 938 1413 l 1,15,-1
 149 1413 l 1,16,-1
 149 41 l 1,17,18
 232 15 232 15 325 -1.5 c 128,-1,19
 418 -18 418 -18 528.5 -18 c 128,-1,20
 639 -18 639 -18 733.5 14.5 c 128,-1,21
 828 47 828 47 896.5 114 c 128,-1,0
 965 181 965 181 1004 283.5 c 128,-1,1
621 832 m 0,22,23
 713 832 713 832 759 754 c 0,24,25
 807 673 807 673 807 515 c 0,26,27
 807 436 807 436 788.5 370.5 c 128,-1,28
 770 305 770 305 735.5 259.5 c 128,-1,29
 701 214 701 214 651 189 c 128,-1,30
 601 164 601 164 541 164 c 0,31,32
 496 164 496 164 452.5 171 c 128,-1,33
 409 178 409 178 373 192 c 1,34,-1
 373 639 l 1,35,36
 439 729 439 729 497 780.5 c 128,-1,37
 555 832 555 832 621 832 c 0,22,23
EndSplineSet
EndChar

StartChar: uni0184
Encoding: 388 388 324
Width: 1126
Flags: W
LayerCount: 2
Fore
SplineSet
651.5 204 m 128,-1,1
 605 187 605 187 545 187 c 2,2,-1
 363 187 l 1,3,-1
 363 600 l 1,4,-1
 526 600 l 2,5,6
 661 600 661 600 730 546 c 0,7,8
 763 519 763 519 778.5 482 c 128,-1,9
 794 445 794 445 794 401.5 c 128,-1,10
 794 358 794 358 777.5 319 c 128,-1,11
 761 280 761 280 729.5 250.5 c 128,-1,0
 698 221 698 221 651.5 204 c 128,-1,1
133 971 m 2,12,-1
 139 968 l 1,13,-1
 139 10 l 1,14,-1
 528 10 l 2,15,16
 782 10 782 10 910.5 109.5 c 128,-1,17
 1039 209 1039 209 1039 406 c 0,18,19
 1039 483 1039 483 1009.5 550 c 128,-1,20
 980 617 980 617 920 666 c 128,-1,21
 860 715 860 715 767 743.5 c 128,-1,22
 674 772 674 772 549 772 c 2,23,-1
 363 772 l 1,24,-1
 363 1269 l 2,25,26
 363 1284 363 1284 356.5 1290.5 c 128,-1,27
 350 1297 350 1297 331 1297 c 0,28,29
 248 1297 248 1297 187.5 1276.5 c 128,-1,30
 127 1256 127 1256 87.5 1226.5 c 128,-1,31
 48 1197 48 1197 29 1163.5 c 128,-1,32
 10 1130 10 1130 10 1104 c 0,33,34
 10 1061 10 1061 42.5 1029 c 128,-1,35
 75 997 75 997 133 971 c 2,12,-1
EndSplineSet
EndChar

StartChar: uni0185
Encoding: 389 389 325
Width: 1126
Flags: W
LayerCount: 2
Fore
SplineSet
621 839 m 0,0,1
 807 839 807 839 807 518 c 0,2,3
 807 436 807 436 788.5 370.5 c 128,-1,4
 770 305 770 305 735.5 259.5 c 128,-1,5
 701 214 701 214 651 189 c 128,-1,6
 601 164 601 164 541 164 c 0,7,8
 496 164 496 164 452.5 171 c 128,-1,9
 409 178 409 178 373 192 c 1,10,-1
 373 646 l 1,11,12
 439 736 439 736 497 787.5 c 128,-1,13
 555 839 555 839 621 839 c 0,0,1
143 1091 m 2,14,-1
 149 1088 l 1,15,-1
 149 41 l 1,16,17
 232 15 232 15 325 -1.5 c 128,-1,18
 418 -18 418 -18 528.5 -18 c 128,-1,19
 639 -18 639 -18 733.5 14.5 c 128,-1,20
 828 47 828 47 896.5 114 c 128,-1,21
 965 181 965 181 1004 283.5 c 128,-1,22
 1043 386 1043 386 1043 526 c 0,23,24
 1043 645 1043 645 1018.5 740 c 128,-1,25
 994 835 994 835 947.5 901 c 128,-1,26
 901 967 901 967 833.5 1002.5 c 128,-1,27
 766 1038 766 1038 678 1038 c 0,28,29
 578 1038 578 1038 506.5 996 c 128,-1,30
 435 954 435 954 381 885 c 2,31,-1
 361 860 l 1,32,-1
 373 1091 l 1,33,-1
 373 1389 l 2,34,35
 373 1404 373 1404 366.5 1410.5 c 128,-1,36
 360 1417 360 1417 341 1417 c 0,37,38
 258 1417 258 1417 197.5 1396.5 c 128,-1,39
 137 1376 137 1376 97.5 1346.5 c 128,-1,40
 58 1317 58 1317 39 1283.5 c 128,-1,41
 20 1250 20 1250 20 1224 c 0,42,43
 20 1181 20 1181 52.5 1149 c 128,-1,44
 85 1117 85 1117 143 1091 c 2,14,-1
EndSplineSet
EndChar

StartChar: uni0186
Encoding: 390 390 326
Width: 1126
Flags: W
LayerCount: 2
Fore
SplineSet
358 -16 m 0,0,1
 397 -18 397 -18 442 -18 c 0,2,3
 579 -18 579 -18 688.5 28.5 c 128,-1,4
 798 75 798 75 874.5 163 c 128,-1,5
 951 251 951 251 992.5 379.5 c 128,-1,6
 1034 508 1034 508 1034 672 c 128,-1,7
 1034 836 1034 836 996 957.5 c 128,-1,8
 958 1079 958 1079 885 1161 c 0,9,10
 738 1325 738 1325 460 1325 c 0,11,12
 373 1325 373 1325 294 1307 c 128,-1,13
 215 1289 215 1289 132 1253 c 1,14,-1
 132 1031 l 1,15,16
 205 1063 205 1063 269 1080 c 0,17,18
 359 1104 359 1104 421 1104 c 0,19,20
 515 1104 515 1104 584 1073 c 0,21,22
 784 982 784 982 784 644 c 0,23,24
 784 543 784 543 763.5 458 c 128,-1,25
 743 373 743 373 699.5 310.5 c 128,-1,26
 656 248 656 248 587.5 213.5 c 128,-1,27
 519 179 519 179 424 179 c 0,28,29
 360 179 360 179 285 195.5 c 128,-1,30
 210 212 210 212 132 247 c 1,31,-1
 132 26 l 1,32,33
 244 -10 244 -10 358 -16 c 0,0,1
EndSplineSet
EndChar

StartChar: uni0187
Encoding: 391 391 327
Width: 1126
Flags: W
LayerCount: 2
Fore
SplineSet
1139.5 1583.5 m 128,-1,1
 1111 1587 1111 1587 1071 1587 c 0,2,3
 1007 1587 1007 1587 960.5 1573 c 128,-1,4
 914 1559 914 1559 883 1529 c 128,-1,5
 852 1499 852 1499 833.5 1450.5 c 128,-1,6
 815 1402 815 1402 809 1330 c 2,7,-1
 808 1320 l 1,8,9
 745 1325 745 1325 684 1325 c 0,10,11
 547 1325 547 1325 437.5 1278.5 c 128,-1,12
 328 1232 328 1232 251.5 1144 c 128,-1,13
 175 1056 175 1056 133.5 927.5 c 128,-1,14
 92 799 92 799 92 635 c 128,-1,15
 92 471 92 471 130 349.5 c 128,-1,16
 168 228 168 228 241 146 c 0,17,18
 388 -18 388 -18 666 -18 c 0,19,20
 753 -18 753 -18 831.5 0 c 128,-1,21
 910 18 910 18 994 54 c 1,22,-1
 994 276 l 1,23,24
 928 247 928 247 857 227 c 0,25,26
 770 203 770 203 705 203 c 0,27,28
 611 203 611 203 542 234 c 0,29,30
 342 325 342 325 342 663 c 0,31,32
 342 764 342 764 362.5 849 c 128,-1,33
 383 934 383 934 426.5 996.5 c 128,-1,34
 470 1059 470 1059 538.5 1093.5 c 128,-1,35
 607 1128 607 1128 702 1128 c 0,36,37
 766 1128 766 1128 841 1111.5 c 128,-1,38
 916 1095 916 1095 994 1060 c 1,39,-1
 994 1281 l 2,40,41
 995 1322 995 1322 1001 1350 c 0,42,43
 1013 1406 1013 1406 1054 1422 c 0,44,45
 1073 1429 1073 1429 1098 1429 c 128,-1,46
 1123 1429 1123 1429 1138 1427 c 0,47,48
 1164 1425 1164 1425 1191 1416 c 1,49,-1
 1191 1576 l 1,50,0
 1168 1580 1168 1580 1139.5 1583.5 c 128,-1,1
EndSplineSet
EndChar

StartChar: uni0188
Encoding: 392 392 328
Width: 1126
Flags: W
LayerCount: 2
Fore
SplineSet
1006 1103 m 0,0,1
 1025 1110 1025 1110 1052 1110 c 0,2,3
 1093 1110 1093 1110 1126 1101 c 1,4,-1
 1126 1260 l 1,5,6
 1113 1262 1113 1262 1093 1265 c 0,7,8
 1064 1268 1064 1268 1023 1268 c 0,9,10
 962 1268 962 1268 917 1255.5 c 128,-1,11
 872 1243 872 1243 840.5 1216 c 128,-1,12
 809 1189 809 1189 790.5 1145 c 128,-1,13
 772 1101 772 1101 764 1038 c 2,14,-1
 763 1028 l 1,15,16
 713 1032 713 1032 668 1032 c 0,17,18
 549 1032 549 1032 452.5 994 c 128,-1,19
 356 956 356 956 287.5 886 c 128,-1,20
 219 816 219 816 181 717 c 128,-1,21
 143 618 143 618 143 493.5 c 128,-1,22
 143 369 143 369 178 273 c 128,-1,23
 213 177 213 177 278 112.5 c 128,-1,24
 343 48 343 48 437.5 15 c 128,-1,25
 532 -18 532 -18 651 -18 c 0,26,27
 814 -18 814 -18 951 37 c 1,28,-1
 951 236 l 1,29,30
 897 213 897 213 829 197 c 0,31,32
 755 179 755 179 687.5 179 c 128,-1,33
 620 179 620 179 564 201.5 c 128,-1,34
 508 224 508 224 468 267 c 128,-1,35
 428 310 428 310 406.5 371 c 128,-1,36
 385 432 385 432 385 506.5 c 128,-1,37
 385 581 385 581 405 642.5 c 128,-1,38
 425 704 425 704 463.5 747.5 c 128,-1,39
 502 791 502 791 558 815 c 128,-1,40
 614 839 614 839 682.5 839 c 128,-1,41
 751 839 751 839 819.5 822.5 c 128,-1,42
 888 806 888 806 946 779 c 1,43,-1
 946 961 l 2,44,45
 946 1002 946 1002 952 1031 c 0,46,47
 964 1088 964 1088 1006 1103 c 0,0,1
EndSplineSet
EndChar

StartChar: uni018A
Encoding: 394 394 330
Width: 1126
Flags: W
LayerCount: 2
Fore
SplineSet
504 10 m 2,0,1
 788 10 788 10 927 179 c 0,2,3
 1063 344 1063 344 1063 672 c 0,4,5
 1063 835 1063 835 1028.5 953 c 128,-1,6
 994 1071 994 1071 923 1147 c 128,-1,7
 852 1223 852 1223 744 1260 c 128,-1,8
 636 1297 636 1297 488 1297 c 2,9,-1
 333 1297 l 2,10,11
 256 1297 256 1297 190 1280 c 128,-1,12
 124 1263 124 1263 76 1226.5 c 128,-1,13
 28 1190 28 1190 0 1130.5 c 128,-1,14
 -28 1071 -28 1071 -28 986 c 0,15,16
 -28 949 -28 949 -22 914.5 c 128,-1,17
 -16 880 -16 880 -11 861 c 1,18,-1
 164 861 l 1,19,20
 153 901 153 901 149.5 928 c 128,-1,21
 146 955 146 955 146 981 c 128,-1,22
 146 1007 146 1007 154 1034.5 c 128,-1,23
 162 1062 162 1062 179.5 1083 c 128,-1,24
 197 1104 197 1104 224.5 1116.5 c 128,-1,25
 252 1129 252 1129 289 1130 c 2,26,-1
 299 1130 l 1,27,-1
 299 10 l 1,28,-1
 504 10 l 2,0,1
797 875 m 128,-1,30
 819 787 819 787 819 654 c 0,31,32
 819 419 819 419 751 309 c 0,33,34
 681 196 681 196 534 196 c 2,35,-1
 524 196 l 1,36,-1
 524 1111 l 1,37,-1
 534 1111 l 2,38,39
 593 1111 593 1111 645 1090 c 128,-1,40
 697 1069 697 1069 736 1016 c 128,-1,29
 775 963 775 963 797 875 c 128,-1,30
EndSplineSet
EndChar

StartChar: uni018B
Encoding: 395 395 331
Width: 1126
Flags: W
LayerCount: 2
Fore
SplineSet
763 1122 m 1,0,-1
 763 772 l 1,1,-1
 577 772 l 2,2,3
 452 772 452 772 359 743.5 c 128,-1,4
 266 715 266 715 206 666 c 128,-1,5
 146 617 146 617 116.5 550 c 128,-1,6
 87 483 87 483 87 406 c 0,7,8
 87 210 87 210 216.5 110 c 128,-1,9
 346 10 346 10 598 10 c 2,10,-1
 987 10 l 1,11,-1
 987 1297 l 1,12,-1
 178 1297 l 1,13,-1
 178 1122 l 1,14,-1
 763 1122 l 1,0,-1
763 600 m 1,15,-1
 763 187 l 1,16,-1
 581 187 l 2,17,18
 520 187 520 187 474 204 c 128,-1,19
 428 221 428 221 396.5 250.5 c 128,-1,20
 365 280 365 280 348.5 319 c 128,-1,21
 332 358 332 358 332 401.5 c 128,-1,22
 332 445 332 445 347.5 482 c 128,-1,23
 363 519 363 519 396 546 c 0,24,25
 465 600 465 600 600 600 c 2,26,-1
 763 600 l 1,15,-1
EndSplineSet
EndChar

StartChar: uni018C
Encoding: 396 396 332
Width: 1126
Flags: W
LayerCount: 2
Fore
SplineSet
188 1413 m 1,0,-1
 188 1238 l 1,1,-1
 753 1238 l 1,2,-1
 753 1013 l 1,3,-1
 740 1016 l 2,4,5
 711 1024 711 1024 673 1029 c 128,-1,6
 635 1034 635 1034 598 1034 c 0,7,8
 487 1034 487 1034 392.5 1001.5 c 128,-1,9
 298 969 298 969 230 902 c 128,-1,10
 162 835 162 835 123 732 c 128,-1,11
 84 629 84 629 84 489 c 0,12,13
 84 371 84 371 108.5 275.5 c 128,-1,14
 133 180 133 180 179.5 114 c 128,-1,15
 226 48 226 48 293.5 12.5 c 128,-1,16
 361 -23 361 -23 449 -23 c 0,17,18
 502 -23 502 -23 545 -11 c 0,19,20
 630 13 630 13 697 78 c 0,21,22
 731 110 731 110 762 149 c 2,23,-1
 779 169 l 1,24,-1
 786 0 l 1,25,-1
 977 0 l 1,26,-1
 977 1413 l 1,27,-1
 188 1413 l 1,0,-1
506 176 m 0,28,29
 462 176 462 176 426 195 c 0,30,31
 320 251 320 251 320 498 c 0,32,33
 320 580 320 580 338.5 645.5 c 128,-1,34
 357 711 357 711 391.5 756.5 c 128,-1,35
 426 802 426 802 475.5 827 c 128,-1,36
 525 852 525 852 586 852 c 0,37,38
 630 852 630 852 673.5 845 c 128,-1,39
 717 838 717 838 753 824 c 1,40,-1
 753 370 l 1,41,42
 687 279 687 279 629.5 227.5 c 128,-1,43
 572 176 572 176 506 176 c 0,28,29
EndSplineSet
EndChar

StartChar: uni018D
Encoding: 397 397 333
Width: 1126
Flags: W
LayerCount: 2
Fore
SplineSet
1011 779.5 m 128,-1,1
 1032 858 1032 858 1032 948 c 0,2,3
 1032 1069 1032 1069 1001 1160 c 0,4,5
 969 1250 969 1250 909 1310.5 c 128,-1,6
 849 1371 849 1371 762.5 1402.5 c 128,-1,7
 676 1434 676 1434 564.5 1434 c 128,-1,8
 453 1434 453 1434 363.5 1397.5 c 128,-1,9
 274 1361 274 1361 211.5 1295 c 128,-1,10
 149 1229 149 1229 115 1135 c 0,11,12
 82 1041 82 1041 82 925 c 0,13,14
 82 800 82 800 136 690 c 0,15,16
 165 630 165 630 215.5 570.5 c 128,-1,17
 266 511 266 511 342 453 c 2,18,-1
 502 332 l 2,19,20
 537 305 537 305 561.5 282 c 128,-1,21
 586 259 586 259 586 228 c 0,22,23
 586 192 586 192 558 172.5 c 128,-1,24
 530 153 530 153 463 153 c 0,25,26
 380 153 380 153 259 176 c 0,27,28
 225 183 225 183 191 191 c 1,29,-1
 191 4 l 1,30,31
 239 -7 239 -7 321 -16 c 0,32,33
 361 -21 361 -21 399 -22 c 0,34,35
 455 -23 455 -23 467 -23 c 0,36,37
 560 -23 560 -23 627 -4 c 0,38,39
 757 32 757 32 799 128 c 0,40,41
 820 175 820 175 820 230 c 0,42,43
 820 306 820 306 758 380 c 0,44,45
 740 401 740 401 711 431 c 1,46,-1
 724 437 l 2,47,48
 796 471 796 471 853 521.5 c 128,-1,49
 910 572 910 572 950 636.5 c 128,-1,0
 990 701 990 701 1011 779.5 c 128,-1,1
355.5 780 m 128,-1,51
 316 857 316 857 316 944 c 0,52,53
 316 1004 316 1004 331 1058 c 128,-1,54
 346 1112 346 1112 376 1153.5 c 128,-1,55
 406 1195 406 1195 451 1219 c 128,-1,56
 496 1243 496 1243 555 1243 c 0,57,58
 669 1243 669 1243 734 1158 c 0,59,60
 798 1075 798 1075 798 936 c 0,61,62
 798 787 798 787 741 699 c 0,63,64
 712 655 712 655 669 624.5 c 128,-1,65
 626 594 626 594 563 573 c 1,66,-1
 475 642 l 2,67,50
 395 703 395 703 355.5 780 c 128,-1,51
EndSplineSet
EndChar

StartChar: uni018E
Encoding: 398 398 334
Width: 1126
Flags: W
LayerCount: 2
Fore
SplineSet
702 198 m 1,0,-1
 165 198 l 1,1,-1
 165 10 l 1,2,-1
 932 10 l 1,3,-1
 932 1297 l 1,4,-1
 165 1297 l 1,5,-1
 165 1109 l 1,6,-1
 702 1109 l 1,7,-1
 702 764 l 1,8,-1
 190 764 l 1,9,-1
 190 581 l 1,10,-1
 702 581 l 1,11,-1
 702 198 l 1,0,-1
EndSplineSet
EndChar

StartChar: uni018F
Encoding: 399 399 335
Width: 1126
Flags: W
LayerCount: 2
Fore
SplineSet
435 -8 m 0,0,1
 496 -18 496 -18 555 -18 c 0,2,3
 672 -18 672 -18 767.5 28 c 128,-1,4
 863 74 863 74 931 162.5 c 128,-1,5
 999 251 999 251 1036.5 379.5 c 128,-1,6
 1074 508 1074 508 1074 674 c 0,7,8
 1074 996 1074 996 928.5 1160.5 c 128,-1,9
 783 1325 783 1325 506 1325 c 0,10,11
 384 1325 384 1325 287.5 1304 c 128,-1,12
 191 1283 191 1283 107 1247 c 1,13,-1
 107 1026 l 1,14,15
 134 1038 134 1038 169.5 1052 c 128,-1,16
 205 1066 205 1066 252 1077 c 0,17,18
 359 1104 359 1104 467 1104 c 0,19,20
 636 1104 636 1104 725.5 1013 c 128,-1,21
 815 922 815 922 820 736 c 1,22,-1
 820 726 l 1,23,-1
 55 726 l 1,24,25
 52 651 52 651 52 626 c 0,26,27
 52 489 52 489 73.5 388 c 128,-1,28
 95 287 95 287 131 216 c 128,-1,29
 167 145 167 145 215 100 c 0,30,31
 308 12 308 12 435 -8 c 0,0,1
659.5 214.5 m 128,-1,33
 614 189 614 189 555 189 c 0,34,35
 503 189 503 189 456.5 204 c 128,-1,36
 410 219 410 219 375.5 259 c 128,-1,37
 341 299 341 299 321 368 c 128,-1,38
 301 437 301 437 301 543 c 2,39,-1
 301 553 l 1,40,-1
 819 553 l 1,41,-1
 818 542 l 2,42,43
 801 378 801 378 738 287 c 0,44,32
 705 240 705 240 659.5 214.5 c 128,-1,33
EndSplineSet
EndChar

StartChar: uni0190
Encoding: 400 400 336
Width: 1126
Flags: W
LayerCount: 2
Fore
SplineSet
989 1091 m 1,0,-1
 989 1278 l 1,1,2
 820 1329 820 1329 619 1329 c 0,3,4
 167 1329 167 1329 167 992 c 0,5,6
 167 882 167 882 211 812.5 c 128,-1,7
 255 743 255 743 353 706 c 2,8,-1
 390 693 l 1,9,-1
 352 687 l 2,10,11
 303 679 303 679 260.5 654.5 c 128,-1,12
 218 630 218 630 186 591 c 128,-1,13
 154 552 154 552 135 500.5 c 128,-1,14
 116 449 116 449 116 387 c 0,15,16
 116 187 116 187 244.5 82 c 128,-1,17
 373 -23 373 -23 626 -23 c 0,18,19
 740 -23 740 -23 835 -8.5 c 128,-1,20
 930 6 930 6 1024 35 c 1,21,-1
 1024 230 l 1,22,23
 981 216 981 216 937 203.5 c 128,-1,24
 893 191 893 191 846 182 c 0,25,26
 746 163 746 163 643 163 c 0,27,28
 570 163 570 163 517 180 c 128,-1,29
 464 197 464 197 429 227.5 c 128,-1,30
 394 258 394 258 377 298 c 128,-1,31
 360 338 360 338 360 383 c 128,-1,32
 360 428 360 428 377 466 c 0,33,34
 411 543 411 543 512 572 c 0,35,36
 562 587 562 587 628 587 c 2,37,-1
 930 587 l 1,38,-1
 930 758 l 1,39,-1
 709 758 l 2,40,41
 614 758 614 758 554 774 c 128,-1,42
 494 790 494 790 460 819 c 128,-1,43
 426 848 426 848 414.5 886 c 128,-1,44
 403 924 403 924 403 965 c 0,45,46
 403 1050 403 1050 459 1098 c 0,47,48
 519 1150 519 1150 641 1150 c 0,49,50
 729 1150 729 1150 814 1134 c 0,51,52
 879 1121 879 1121 989 1091 c 1,0,-1
EndSplineSet
EndChar

StartChar: uni0191
Encoding: 401 401 337
Width: 1126
Flags: W
LayerCount: 2
Fore
SplineSet
115.5 -222 m 128,-1,1
 89 -231 89 -231 54 -231 c 0,2,3
 -3 -231 -3 -231 -85 -207 c 1,4,-1
 -85 -394 l 1,5,6
 -49 -405 -49 -405 -6 -412.5 c 128,-1,7
 37 -420 37 -420 93 -420 c 0,8,9
 181 -420 181 -420 243.5 -398 c 128,-1,10
 306 -376 306 -376 346 -327 c 128,-1,11
 386 -278 386 -278 405 -201 c 128,-1,12
 424 -124 424 -124 424 -12 c 2,13,-1
 424 535 l 1,14,-1
 918 535 l 1,15,-1
 918 717 l 1,16,-1
 424 717 l 1,17,-1
 424 1099 l 1,18,-1
 946 1099 l 1,19,-1
 946 1287 l 1,20,-1
 194 1287 l 1,21,-1
 194 0 l 2,22,23
 194 -72 194 -72 185.5 -117 c 128,-1,24
 177 -162 177 -162 159.5 -187.5 c 128,-1,0
 142 -213 142 -213 115.5 -222 c 128,-1,1
EndSplineSet
EndChar

StartChar: florin
Encoding: 402 402 338
Width: 1126
Flags: W
LayerCount: 2
Fore
SplineSet
742.5 1205.5 m 128,-1,1
 790 1255 790 1255 881 1255 c 0,2,3
 949 1255 949 1255 1028 1239 c 1,4,-1
 1028 1417 l 1,5,6
 990 1424 990 1424 946 1428 c 128,-1,7
 902 1432 902 1432 864 1432 c 0,8,9
 681 1432 681 1432 582 1342 c 0,10,11
 479 1247 479 1247 456 1049 c 2,12,-1
 429 803 l 1,13,-1
 139 803 l 1,14,-1
 139 628 l 1,15,-1
 408 628 l 1,16,-1
 352 149 l 2,17,18
 340 43 340 43 292 -8 c 128,-1,19
 244 -59 244 -59 154 -59 c 0,20,21
 121 -59 121 -59 84 -55.5 c 128,-1,22
 47 -52 47 -52 18 -45 c 1,23,-1
 18 -219 l 1,24,25
 51 -226 51 -226 92.5 -231 c 128,-1,26
 134 -236 134 -236 170 -236 c 0,27,28
 349 -236 349 -236 451 -146 c 0,29,30
 554 -53 554 -53 578 152 c 2,31,-1
 634 629 l 1,32,-1
 977 629 l 1,33,-1
 977 803 l 1,34,-1
 653 803 l 1,35,-1
 682 1051 l 2,36,0
 695 1156 695 1156 742.5 1205.5 c 128,-1,1
EndSplineSet
EndChar

StartChar: uni0193
Encoding: 403 403 339
Width: 1126
Flags: W
LayerCount: 2
Fore
SplineSet
1024 756 m 1,0,-1
 579 756 l 1,1,-1
 579 573 l 1,2,-1
 801 573 l 1,3,-1
 801 222 l 1,4,5
 764 209 764 209 736 203 c 128,-1,6
 708 197 708 197 662 197 c 0,7,8
 564 197 564 197 494.5 229 c 128,-1,9
 425 261 425 261 381.5 321.5 c 128,-1,10
 338 382 338 382 318.5 467 c 128,-1,11
 299 552 299 552 299 659 c 128,-1,12
 299 766 299 766 324 853.5 c 128,-1,13
 349 941 349 941 398 1002.5 c 128,-1,14
 447 1064 447 1064 519.5 1096.5 c 128,-1,15
 592 1129 592 1129 685 1129 c 128,-1,16
 778 1129 778 1129 864 1107.5 c 128,-1,17
 950 1086 950 1086 1020 1054 c 1,18,-1
 1020 1264 l 2,19,20
 1020 1310 1020 1310 1026 1341 c 0,21,22
 1038 1405 1038 1405 1078 1421 c 0,23,24
 1098 1429 1098 1429 1123.5 1429 c 128,-1,25
 1149 1429 1149 1429 1164 1427 c 0,26,27
 1190 1425 1190 1425 1217 1416 c 1,28,-1
 1217 1576 l 1,29,30
 1194 1580 1194 1580 1165.5 1583.5 c 128,-1,31
 1137 1587 1137 1587 1097 1587 c 0,32,33
 1033 1587 1033 1587 986.5 1573 c 128,-1,34
 940 1559 940 1559 908.5 1528.5 c 128,-1,35
 877 1498 877 1498 859 1449 c 128,-1,36
 841 1400 841 1400 835 1328 c 2,37,-1
 834 1318 l 1,38,39
 754 1329 754 1329 684 1329 c 0,40,41
 534 1329 534 1329 417.5 1282 c 128,-1,42
 301 1235 301 1235 221 1146 c 128,-1,43
 141 1057 141 1057 99 928 c 128,-1,44
 57 799 57 799 57 635.5 c 128,-1,45
 57 472 57 472 97 349 c 128,-1,46
 137 226 137 226 211.5 143.5 c 128,-1,47
 286 61 286 61 392.5 19 c 128,-1,48
 499 -23 499 -23 633 -23 c 0,49,50
 747 -23 747 -23 842 -1.5 c 128,-1,51
 937 20 937 20 1024 63 c 1,52,-1
 1024 756 l 1,0,-1
EndSplineSet
EndChar

StartChar: uni0194
Encoding: 404 404 340
Width: 1126
Flags: W
LayerCount: 2
Fore
SplineSet
416 527 m 1,0,-1
 130 10 l 1,1,-1
 991 10 l 1,2,-1
 709 525 l 1,3,-1
 1110 1297 l 1,4,-1
 870 1297 l 1,5,-1
 571 696 l 1,6,-1
 273 1297 l 1,7,-1
 16 1297 l 1,8,-1
 416 527 l 1,0,-1
561 384 m 1,9,-1
 662 176 l 1,10,-1
 457 176 l 1,11,-1
 561 384 l 1,9,-1
EndSplineSet
EndChar

StartChar: uni0195
Encoding: 405 405 341
Width: 1126
Flags: W
LayerCount: 2
Fore
SplineSet
486 763 m 0,0,1
 491 734 491 734 491 688 c 2,2,-1
 491 289 l 2,3,4
 491 214 491 214 504.5 156 c 128,-1,5
 518 98 518 98 548.5 59.5 c 128,-1,6
 579 21 579 21 630.5 0.5 c 128,-1,7
 682 -20 682 -20 760.5 -20 c 128,-1,8
 839 -20 839 -20 891.5 -1 c 128,-1,9
 944 18 944 18 975.5 55.5 c 128,-1,10
 1007 93 1007 93 1020.5 150 c 128,-1,11
 1034 207 1034 207 1034 283 c 2,12,-1
 1034 1016 l 1,13,-1
 843 1016 l 1,14,-1
 843 292 l 2,15,16
 843 225 843 225 825 192 c 0,17,18
 806 155 806 155 761 155 c 128,-1,19
 716 155 716 155 698 192 c 0,20,21
 682 225 682 225 682 292 c 2,22,-1
 682 762 l 2,23,24
 682 837 682 837 663 888 c 128,-1,25
 644 939 644 939 613.5 969.5 c 128,-1,26
 583 1000 583 1000 543 1013.5 c 128,-1,27
 503 1027 503 1027 457 1027 c 128,-1,28
 411 1027 411 1027 369 1005.5 c 128,-1,29
 327 984 327 984 303 940 c 2,30,-1
 282 903 l 1,31,-1
 290 1081 l 1,32,-1
 290 1413 l 1,33,-1
 97 1413 l 1,34,-1
 97 -1 l 1,35,-1
 290 -1 l 1,36,-1
 290 745 l 1,37,38
 304 783 304 783 337 813 c 0,39,40
 352 827 352 827 371 836.5 c 128,-1,41
 390 846 390 846 410 846 c 128,-1,42
 430 846 430 846 446 838 c 0,43,44
 477 823 477 823 486 763 c 0,0,1
EndSplineSet
EndChar

StartChar: uni0196
Encoding: 406 406 342
Width: 1126
Flags: W
LayerCount: 2
Fore
SplineSet
628 408 m 2,0,-1
 628 1413 l 1,1,-1
 398 1413 l 1,2,-1
 398 325 l 2,3,4
 398 237 398 237 417 174 c 128,-1,5
 436 111 436 111 476 70 c 0,6,7
 556 -11 556 -11 731 -11 c 0,8,9
 796 -11 796 -11 845.5 -4 c 128,-1,10
 895 3 895 3 928 10 c 1,11,-1
 928 203 l 1,12,13
 905 198 905 198 870 192.5 c 128,-1,14
 835 187 835 187 782 187 c 128,-1,15
 729 187 729 187 699 204 c 0,16,17
 642 238 642 238 633 322 c 0,18,19
 628 362 628 362 628 408 c 2,0,-1
EndSplineSet
EndChar

StartChar: uni0198
Encoding: 408 408 344
Width: 1126
Flags: W
LayerCount: 2
Fore
SplineSet
1063 1097 m 1,0,-1
 1063 1309 l 1,1,2
 989 1320 989 1320 946 1320 c 0,3,4
 892 1320 892 1320 850 1302.5 c 128,-1,5
 808 1285 808 1285 771.5 1251 c 128,-1,6
 735 1217 735 1217 700 1165 c 0,7,8
 665 1116 665 1116 624 1051 c 2,9,-1
 369 669 l 1,10,-1
 369 1306 l 1,11,-1
 139 1306 l 1,12,-1
 139 0 l 1,13,-1
 369 0 l 1,14,-1
 369 657 l 1,15,-1
 778 0 l 1,16,-1
 1071 0 l 1,17,-1
 611 674 l 1,18,-1
 844 1001 l 2,19,20
 863 1028 863 1028 880.5 1047.5 c 128,-1,21
 898 1067 898 1067 917 1079 c 0,22,23
 953 1104 953 1104 1001 1104 c 0,24,25
 1028 1104 1028 1104 1063 1097 c 1,0,-1
EndSplineSet
EndChar

StartChar: uni0199
Encoding: 409 409 345
Width: 1126
Flags: W
LayerCount: 2
Fore
SplineSet
159 20 m 1,0,-1
 383 20 l 1,1,-1
 383 548 l 1,2,-1
 773 20 l 1,3,-1
 1066 20 l 1,4,-1
 628 563 l 1,5,-1
 1031 1016 l 1,6,-1
 753 1016 l 1,7,-1
 383 568 l 1,8,-1
 383 1023 l 2,9,10
 383 1088 383 1088 393 1132 c 0,11,12
 413 1219 413 1219 476 1240 c 0,13,14
 507 1251 507 1251 545 1251 c 0,15,16
 617 1251 617 1251 689 1230 c 1,17,-1
 689 1410 l 1,18,19
 612 1432 612 1432 506 1432 c 0,20,21
 417 1432 417 1432 352 1411.5 c 128,-1,22
 287 1391 287 1391 244 1343.5 c 128,-1,23
 201 1296 201 1296 180 1215 c 128,-1,24
 159 1134 159 1134 159 1012 c 2,25,-1
 159 20 l 1,0,-1
EndSplineSet
EndChar

StartChar: uni019B
Encoding: 411 411 347
Width: 1126
Flags: W
LayerCount: 2
Fore
SplineSet
1090 -1 m 1,0,-1
 1090 173 l 1,1,2
 1075 171 1075 171 1058 171 c 0,3,4
 1024 171 1024 171 1002 197 c 0,5,6
 991 210 991 210 981 232 c 128,-1,7
 971 254 971 254 961 285 c 2,8,-1
 646 1201 l 1,9,-1
 814 1302 l 1,10,-1
 726 1446 l 1,11,-1
 560 1335 l 1,12,13
 526 1368 526 1368 502 1386 c 0,14,15
 456 1420 456 1420 393 1428 c 0,16,17
 360 1432 360 1432 330 1432 c 0,18,19
 276 1432 276 1432 231 1426 c 0,20,21
 173 1417 173 1417 143 1409 c 1,22,-1
 143 1226 l 1,23,24
 165 1231 165 1231 199 1235 c 0,25,26
 254 1243 254 1243 289 1243 c 0,27,28
 311 1243 311 1243 329.5 1235 c 128,-1,29
 348 1227 348 1227 358 1217 c 2,30,-1
 367 1208 l 1,31,-1
 201 1109 l 1,32,-1
 287 970 l 1,33,-1
 456 1083 l 1,34,-1
 466 1057 l 1,35,-1
 29 0 l 1,36,-1
 274 0 l 1,37,-1
 501 595 l 1,38,-1
 566 777 l 1,39,-1
 622 594 l 1,40,-1
 753 196 l 2,41,42
 774 134 774 134 794 92 c 128,-1,43
 814 50 814 50 838.5 26 c 128,-1,44
 863 2 863 2 895 -8 c 128,-1,45
 927 -18 927 -18 972 -18 c 0,46,47
 1001 -18 1001 -18 1027 -14 c 128,-1,48
 1053 -10 1053 -10 1090 -1 c 1,0,-1
EndSplineSet
EndChar

StartChar: uni019C
Encoding: 412 412 348
Width: 1126
Flags: W
LayerCount: 2
Fore
SplineSet
657 1287 m 1,0,-1
 468 1287 l 1,1,-1
 468 345 l 1,2,3
 429 241 429 241 397 196.5 c 128,-1,4
 365 152 365 152 329 152 c 0,5,6
 305 152 305 152 291 163.5 c 128,-1,7
 277 175 277 175 270.5 196 c 128,-1,8
 264 217 264 217 262 246.5 c 128,-1,9
 260 276 260 276 260 314 c 2,10,-1
 260 1287 l 1,11,-1
 69 1287 l 1,12,-1
 69 277 l 2,13,14
 69 128 69 128 119.5 54 c 128,-1,15
 170 -20 170 -20 276 -20 c 0,16,17
 311 -20 311 -20 338.5 -11.5 c 128,-1,18
 366 -3 366 -3 390 16 c 0,19,20
 437 54 437 54 484 143 c 2,21,-1
 500 173 l 1,22,-1
 503 139 l 2,23,24
 509 63 509 63 550.5 21.5 c 128,-1,25
 592 -20 592 -20 673 -20 c 0,26,27
 707 -20 707 -20 734 -12 c 0,28,29
 788 5 788 5 830 67 c 0,30,31
 851 98 851 98 873 142 c 2,32,-1
 891 179 l 1,33,-1
 896 0 l 1,34,-1
 1057 0 l 1,35,-1
 1057 1287 l 1,36,-1
 866 1287 l 1,37,-1
 866 345 l 1,38,39
 826 241 826 241 792 196.5 c 128,-1,40
 758 152 758 152 727 152 c 0,41,42
 682 152 682 152 667 197 c 0,43,44
 661 217 661 217 659 246.5 c 128,-1,45
 657 276 657 276 657 314 c 2,46,-1
 657 1287 l 1,0,-1
EndSplineSet
EndChar

StartChar: uni019D
Encoding: 413 413 349
Width: 1126
Flags: W
LayerCount: 2
Fore
SplineSet
-98 -224 m 1,0,-1
 -98 -410 l 1,1,2
 -45 -421 -45 -421 3 -421 c 0,3,4
 91 -421 91 -421 149 -399 c 128,-1,5
 207 -377 207 -377 242.5 -328.5 c 128,-1,6
 278 -280 278 -280 293 -202.5 c 128,-1,7
 308 -125 308 -125 308 -13 c 2,8,-1
 308 987 l 1,9,-1
 399 774 l 1,10,-1
 746 0 l 1,11,-1
 1030 0 l 1,12,-1
 1030 1287 l 1,13,-1
 826 1287 l 1,14,-1
 826 308 l 1,15,-1
 744 508 l 1,16,-1
 390 1287 l 1,17,-1
 104 1287 l 1,18,-1
 104 -1 l 2,19,20
 104 -73 104 -73 95.5 -118 c 128,-1,21
 87 -163 87 -163 69.5 -188.5 c 128,-1,22
 52 -214 52 -214 25.5 -223 c 128,-1,23
 -1 -232 -1 -232 -32 -232 c 128,-1,24
 -63 -232 -63 -232 -98 -224 c 1,0,-1
EndSplineSet
EndChar

StartChar: Ohorn
Encoding: 416 416 352
Width: 1126
Flags: W
LayerCount: 2
Fore
SplineSet
1038 351 m 128,-1,1
 1079 480 1079 480 1079 659 c 0,2,3
 1079 898 1079 898 1010 1056 c 2,4,-1
 1005 1067 l 1,5,-1
 1016 1070 l 2,6,7
 1099 1093 1099 1093 1141 1150 c 0,8,9
 1190 1215 1190 1215 1190 1327 c 0,10,11
 1190 1386 1190 1386 1168 1415.5 c 128,-1,12
 1146 1445 1146 1445 1091 1445 c 0,13,14
 1046 1445 1046 1445 1023 1422.5 c 128,-1,15
 1000 1400 1000 1400 1000 1365 c 0,16,17
 1000 1355 1000 1355 1003 1341.5 c 128,-1,18
 1006 1328 1006 1328 1009.5 1313.5 c 128,-1,19
 1013 1299 1013 1299 1016 1283.5 c 128,-1,20
 1019 1268 1019 1268 1019 1254 c 0,21,22
 1019 1212 1019 1212 1003.5 1192 c 128,-1,23
 988 1172 988 1172 956 1164 c 2,24,-1
 950 1163 l 1,25,-1
 946 1168 l 2,26,27
 817 1329 817 1329 571 1329 c 0,28,29
 462 1329 462 1329 366.5 1289 c 128,-1,30
 271 1249 271 1249 200 1166.5 c 128,-1,31
 129 1084 129 1084 88 955 c 128,-1,32
 47 826 47 826 47 647 c 0,33,34
 47 318 47 318 174.5 147.5 c 128,-1,35
 302 -23 302 -23 555 -23 c 0,36,37
 664 -23 664 -23 759.5 17 c 128,-1,38
 855 57 855 57 926 139.5 c 128,-1,0
 997 222 997 222 1038 351 c 128,-1,1
776 998 m 0,39,40
 839 882 839 882 839 647 c 0,41,42
 839 423 839 423 776 310 c 0,43,44
 708 189 708 189 562 189 c 128,-1,45
 416 189 416 189 351 308 c 0,46,47
 287 424 287 424 287 659 c 0,48,49
 287 768 287 768 302 852.5 c 128,-1,50
 317 937 317 937 351 996 c 0,51,52
 420 1117 420 1117 563 1117 c 0,53,54
 711 1117 711 1117 776 998 c 0,39,40
EndSplineSet
EndChar

StartChar: ohorn
Encoding: 417 417 353
Width: 1126
Flags: W
LayerCount: 2
Fore
SplineSet
742 734 m 0,0,1
 790 654 790 654 790 510 c 0,2,3
 790 441 790 441 776 380.5 c 128,-1,4
 762 320 762 320 732 274.5 c 128,-1,5
 702 229 702 229 655.5 203.5 c 128,-1,6
 609 178 609 178 545 178 c 0,7,8
 429 178 429 178 362.5 262 c 128,-1,9
 296 346 296 346 296 508 c 0,10,11
 296 575 296 575 310 634.5 c 128,-1,12
 324 694 324 694 354 739.5 c 128,-1,13
 384 785 384 785 431 811 c 128,-1,14
 478 837 478 837 545 837 c 0,15,16
 681 837 681 837 742 734 c 0,0,1
920 886 m 1,17,-1
 916 890 l 1,18,19
 845 970 845 970 756 1004 c 128,-1,20
 667 1038 667 1038 552.5 1038 c 128,-1,21
 438 1038 438 1038 347 999.5 c 128,-1,22
 256 961 256 961 193 891.5 c 128,-1,23
 130 822 130 822 96 722.5 c 128,-1,24
 62 623 62 623 62 496.5 c 128,-1,25
 62 370 62 370 94 272 c 0,26,27
 158 77 158 77 334 10 c 0,28,29
 422 -23 422 -23 535.5 -23 c 128,-1,30
 649 -23 649 -23 740.5 16 c 128,-1,31
 832 55 832 55 894.5 125.5 c 128,-1,32
 957 196 957 196 990.5 295.5 c 128,-1,33
 1024 395 1024 395 1024 516 c 0,34,35
 1024 668 1024 668 979 778 c 1,36,-1
 974 789 l 1,37,-1
 985 792 l 2,38,39
 1068 815 1068 815 1110 872 c 0,40,41
 1159 938 1159 938 1159 1050 c 0,42,43
 1159 1109 1159 1109 1137 1138.5 c 128,-1,44
 1115 1168 1115 1168 1060 1168 c 0,45,46
 1015 1168 1015 1168 992 1145.5 c 128,-1,47
 969 1123 969 1123 969 1088 c 0,48,49
 969 1078 969 1078 972 1064.5 c 128,-1,50
 975 1051 975 1051 978.5 1036.5 c 128,-1,51
 982 1022 982 1022 985 1006.5 c 128,-1,52
 988 991 988 991 988 977 c 0,53,54
 988 935 988 935 972.5 915 c 128,-1,55
 957 895 957 895 925 887 c 2,56,-1
 920 886 l 1,17,-1
EndSplineSet
EndChar

StartChar: uni01A2
Encoding: 418 418 354
Width: 1126
Flags: W
LayerCount: 2
Fore
SplineSet
552.5 1302.5 m 128,-1,1
 500 1320 500 1320 422 1320 c 0,2,3
 326 1320 326 1320 262.5 1280.5 c 128,-1,4
 199 1241 199 1241 161 1158 c 128,-1,5
 123 1075 123 1075 107 945.5 c 128,-1,6
 91 816 91 816 91 640 c 128,-1,7
 91 464 91 464 108.5 339 c 128,-1,8
 126 214 126 214 163.5 135.5 c 128,-1,9
 201 57 201 57 260.5 20.5 c 128,-1,10
 320 -16 320 -16 406 -16 c 0,11,12
 468 -16 468 -16 518.5 -0.5 c 128,-1,13
 569 15 569 15 605 51.5 c 128,-1,14
 641 88 641 88 661.5 149 c 128,-1,15
 682 210 682 210 682 301 c 2,16,-1
 682 1079 l 1,17,-1
 843 1102 l 1,18,-1
 843 0 l 1,19,-1
 1034 0 l 1,20,-1
 1034 1306 l 1,21,-1
 639 1263 l 1,22,0
 605 1285 605 1285 552.5 1302.5 c 128,-1,1
339 1103.5 m 128,-1,24
 363 1134 363 1134 408 1134 c 0,25,26
 458 1134 458 1134 475 1099 c 0,27,28
 491 1067 491 1067 491 991 c 2,29,-1
 491 335 l 2,30,31
 491 290 491 290 488 260 c 0,32,33
 482 198 482 198 446 180 c 0,34,35
 428 172 428 172 402 172 c 0,36,37
 359 172 359 172 336 201 c 128,-1,38
 313 230 313 230 303 288.5 c 128,-1,39
 293 347 293 347 291.5 437.5 c 128,-1,40
 290 528 290 528 290 652.5 c 128,-1,41
 290 777 290 777 292 866 c 128,-1,42
 294 955 294 955 304.5 1014 c 128,-1,23
 315 1073 315 1073 339 1103.5 c 128,-1,24
EndSplineSet
EndChar

StartChar: uni01A3
Encoding: 419 419 355
Width: 1126
Flags: W
LayerCount: 2
Fore
SplineSet
485 808 m 0,0,1
 503 778 503 778 503 720 c 2,2,-1
 503 285 l 2,3,4
 503 260 503 260 500.5 238.5 c 128,-1,5
 498 217 498 217 488.5 200 c 128,-1,6
 479 183 479 183 460 173 c 128,-1,7
 441 163 441 163 412 163 c 0,8,9
 368 163 368 163 343 187.5 c 128,-1,10
 318 212 318 212 306.5 256.5 c 128,-1,11
 295 301 295 301 292.5 363.5 c 128,-1,12
 290 426 290 426 290 508.5 c 128,-1,13
 290 591 290 591 293 654 c 128,-1,14
 296 717 296 717 307.5 758.5 c 128,-1,15
 319 800 319 800 343.5 821 c 128,-1,16
 368 842 368 842 411 842 c 0,17,18
 466 842 466 842 485 808 c 0,0,1
845 0 m 1,19,-1
 1034 0 l 1,20,-1
 1034 1022 l 1,21,-1
 619 967 l 1,22,23
 578 998 578 998 531 1012.5 c 128,-1,24
 484 1027 484 1027 413 1027 c 0,25,26
 246 1027 246 1027 167 900 c 0,27,28
 88 770 88 770 88 500 c 0,29,30
 88 358 88 358 108.5 260 c 128,-1,31
 129 162 129 162 170 101.5 c 128,-1,32
 211 41 211 41 272 13.5 c 128,-1,33
 333 -14 333 -14 417 -14 c 0,34,35
 475 -14 475 -14 524 2.5 c 128,-1,36
 573 19 573 19 608 48.5 c 128,-1,37
 643 78 643 78 662 122 c 256,38,39
 681 166 681 166 681 222 c 2,40,-1
 681 803 l 1,41,-1
 845 828 l 1,42,-1
 845 0 l 1,19,-1
EndSplineSet
EndChar

StartChar: uni01A4
Encoding: 420 420 356
Width: 1126
Flags: W
LayerCount: 2
Fore
SplineSet
909.5 1191.5 m 128,-1,1
 787 1297 787 1297 538 1297 c 2,2,-1
 333 1297 l 2,3,4
 255 1297 255 1297 189 1281 c 0,5,6
 53 1248 53 1248 0 1133 c 0,7,8
 -28 1074 -28 1074 -28 986 c 0,9,10
 -28 949 -28 949 -22 914.5 c 128,-1,11
 -16 880 -16 880 -11 861 c 1,12,-1
 164 861 l 1,13,14
 153 901 153 901 149.5 928 c 128,-1,15
 146 955 146 955 146 981.5 c 128,-1,16
 146 1008 146 1008 154.5 1035.5 c 128,-1,17
 163 1063 163 1063 181 1084 c 128,-1,18
 199 1105 199 1105 226 1117.5 c 128,-1,19
 253 1130 253 1130 289 1130 c 2,20,-1
 299 1130 l 1,21,-1
 299 10 l 1,22,-1
 525 10 l 1,23,-1
 525 430 l 1,24,-1
 568 430 l 2,25,26
 683 430 683 430 769.5 464 c 128,-1,27
 856 498 856 498 914 559.5 c 128,-1,28
 972 621 972 621 1002 706 c 128,-1,29
 1032 791 1032 791 1032 891 c 0,30,0
 1032 1086 1032 1086 909.5 1191.5 c 128,-1,1
794 872 m 128,-1,32
 794 756 794 756 735.5 685 c 128,-1,33
 677 614 677 614 559 614 c 2,34,-1
 525 614 l 1,35,-1
 525 1113 l 1,36,-1
 551 1113 l 2,37,38
 679 1113 679 1113 739 1048 c 0,39,31
 794 988 794 988 794 872 c 128,-1,32
EndSplineSet
EndChar

StartChar: uni01A5
Encoding: 421 421 357
Width: 1126
Flags: W
LayerCount: 2
Fore
SplineSet
1004 283.5 m 128,-1,1
 1043 386 1043 386 1043 526 c 0,2,3
 1043 645 1043 645 1018.5 740 c 128,-1,4
 994 835 994 835 947.5 901 c 128,-1,5
 901 967 901 967 833.5 1002.5 c 128,-1,6
 766 1038 766 1038 678 1038 c 0,7,8
 545 1038 545 1038 449 958 c 0,9,10
 418 933 418 933 391 901 c 2,11,-1
 373 881 l 1,12,-1
 373 1046 l 2,13,14
 373 1164 373 1164 413 1214 c 0,15,16
 434 1240 434 1240 465.5 1250.5 c 128,-1,17
 497 1261 497 1261 535 1261 c 0,18,19
 607 1261 607 1261 679 1240 c 1,20,-1
 679 1410 l 1,21,22
 602 1432 602 1432 496 1432 c 0,23,24
 410 1432 410 1432 344.5 1412 c 128,-1,25
 279 1392 279 1392 236 1346 c 128,-1,26
 193 1300 193 1300 171 1222 c 128,-1,27
 149 1144 149 1144 149 1026 c 2,28,-1
 149 -397 l 1,29,-1
 373 -397 l 1,30,-1
 373 3 l 1,31,32
 454 -18 454 -18 528 -18 c 0,33,34
 639 -18 639 -18 733.5 14.5 c 128,-1,35
 828 47 828 47 896.5 114 c 128,-1,0
 965 181 965 181 1004 283.5 c 128,-1,1
621 839 m 0,36,37
 807 839 807 839 807 518 c 0,38,39
 807 436 807 436 788.5 370.5 c 128,-1,40
 770 305 770 305 735.5 259.5 c 128,-1,41
 701 214 701 214 651 189 c 128,-1,42
 601 164 601 164 541 164 c 0,43,44
 495 164 495 164 452 171 c 128,-1,45
 409 178 409 178 373 192 c 1,46,-1
 373 646 l 1,47,48
 439 736 439 736 497 787.5 c 128,-1,49
 555 839 555 839 621 839 c 0,36,37
EndSplineSet
EndChar

StartChar: uni01A6
Encoding: 422 422 358
Width: 1126
Flags: W
LayerCount: 2
Fore
SplineSet
365 1122 m 1,0,-1
 365 1286 l 1,1,-1
 139 1286 l 1,2,-1
 139 0 l 1,3,-1
 365 0 l 1,4,-1
 365 377 l 1,5,-1
 422 377 l 2,6,7
 488 377 488 377 537 344.5 c 128,-1,8
 586 312 586 312 613 250 c 2,9,-1
 795 -164 l 1,10,-1
 1061 -164 l 1,11,-1
 859 259 l 2,12,13
 820 343 820 343 781.5 385.5 c 128,-1,14
 743 428 743 428 698 437 c 2,15,-1
 645 448 l 1,16,-1
 698 457 l 2,17,18
 759 466 759 466 810 490.5 c 128,-1,19
 861 515 861 515 897.5 554 c 128,-1,20
 934 593 934 593 954.5 647 c 128,-1,21
 975 701 975 701 975 771 c 0,22,23
 975 869 975 869 943 936 c 0,24,25
 879 1067 879 1067 704 1104 c 0,26,27
 617 1122 617 1122 510 1122 c 2,28,-1
 365 1122 l 1,0,-1
672.5 903.5 m 128,-1,30
 737 859 737 859 737 758 c 0,31,32
 737 709 737 709 718 671.5 c 128,-1,33
 699 634 699 634 664 609 c 0,34,35
 595 559 595 559 475 559 c 2,36,-1
 365 559 l 1,37,-1
 365 948 l 1,38,-1
 483 948 l 2,39,29
 608 948 608 948 672.5 903.5 c 128,-1,30
EndSplineSet
EndChar

StartChar: uni01A7
Encoding: 423 423 359
Width: 1126
Flags: W
LayerCount: 2
Fore
SplineSet
134.5 496.5 m 128,-1,1
 108 437 108 437 108 358 c 0,2,3
 108 254 108 254 143 183 c 0,4,5
 212 40 212 40 398 -2 c 0,6,7
 491 -23 491 -23 599.5 -23 c 128,-1,8
 708 -23 708 -23 814 -11 c 128,-1,9
 920 1 920 1 1010 27 c 1,10,-1
 1010 252 l 1,11,12
 860 201 860 201 724 184 c 0,13,14
 674 178 674 178 626 178 c 0,15,16
 487 178 487 178 426 217 c 0,17,18
 394 238 394 238 380 267 c 128,-1,19
 366 296 366 296 366 334 c 0,20,21
 366 383 366 383 394.5 419.5 c 128,-1,22
 423 456 423 456 468.5 484 c 128,-1,23
 514 512 514 512 571 537 c 128,-1,24
 628 562 628 562 687 589.5 c 128,-1,25
 746 617 746 617 802 650.5 c 128,-1,26
 858 684 858 684 901.5 729 c 128,-1,27
 945 774 945 774 971 834 c 128,-1,28
 997 894 997 894 997 972 c 128,-1,29
 997 1050 997 1050 972 1115 c 0,30,31
 922 1248 922 1248 749 1302 c 0,32,33
 660 1329 660 1329 531 1329 c 0,34,35
 437 1329 437 1329 351 1317 c 128,-1,36
 265 1305 265 1305 204 1290 c 1,37,-1
 204 1084 l 1,38,39
 264 1105 264 1105 341 1119 c 0,40,41
 425 1135 425 1135 502 1135 c 0,42,43
 634 1135 634 1135 691 1100 c 0,44,45
 751 1064 751 1064 751 991 c 0,46,47
 751 946 751 946 721.5 912 c 128,-1,48
 692 878 692 878 645.5 850.5 c 128,-1,49
 599 823 599 823 541.5 798 c 128,-1,50
 484 773 484 773 424 744.5 c 128,-1,51
 364 716 364 716 307 681.5 c 128,-1,52
 250 647 250 647 205.5 601.5 c 128,-1,0
 161 556 161 556 134.5 496.5 c 128,-1,1
EndSplineSet
EndChar

StartChar: uni01A8
Encoding: 424 424 360
Width: 1126
Flags: W
LayerCount: 2
Fore
SplineSet
187.5 401 m 128,-1,1
 165 352 165 352 165 284 c 0,2,3
 165 198 165 198 199.5 139.5 c 128,-1,4
 234 81 234 81 293 45 c 128,-1,5
 352 9 352 9 428.5 -7 c 128,-1,6
 505 -23 505 -23 588 -23 c 0,7,8
 807 -23 807 -23 966 17 c 1,9,-1
 966 218 l 1,10,11
 878 182 878 182 787.5 164.5 c 128,-1,12
 697 147 697 147 612 147 c 0,13,14
 411 147 411 147 411 258 c 0,15,16
 411 298 411 298 436.5 325 c 128,-1,17
 462 352 462 352 501 372.5 c 128,-1,18
 540 393 540 393 589 410 c 128,-1,19
 638 427 638 427 688.5 446.5 c 128,-1,20
 739 466 739 466 786.5 491 c 128,-1,21
 834 516 834 516 871 551.5 c 128,-1,22
 908 587 908 587 930.5 636.5 c 128,-1,23
 953 686 953 686 953 750 c 0,24,25
 953 881 953 881 853 956 c 0,26,27
 802 994 802 994 724 1016 c 128,-1,28
 646 1038 646 1038 545.5 1038 c 128,-1,29
 445 1038 445 1038 363.5 1028.5 c 128,-1,30
 282 1019 282 1019 228 1007 c 1,31,-1
 228 827 l 1,32,33
 309 852 309 852 383 863.5 c 128,-1,34
 457 875 457 875 533.5 875 c 128,-1,35
 610 875 610 875 658 854 c 0,36,37
 709 831 709 831 709 775 c 0,38,39
 709 734 709 734 683.5 707 c 128,-1,40
 658 680 658 680 619 660 c 128,-1,41
 580 640 580 640 530.5 624 c 128,-1,42
 481 608 481 608 430.5 588.5 c 128,-1,43
 380 569 380 569 332 544.5 c 128,-1,44
 284 520 284 520 247 485 c 128,-1,0
 210 450 210 450 187.5 401 c 128,-1,1
EndSplineSet
EndChar

StartChar: uni01AA
Encoding: 426 426 362
Width: 1126
Flags: W
LayerCount: 2
Fore
SplineSet
123.5 1446 m 128,-1,1
 83 1409 83 1409 60.5 1357 c 128,-1,2
 38 1305 38 1305 38 1235.5 c 128,-1,3
 38 1166 38 1166 60 1112 c 0,4,5
 81 1058 81 1058 118 1022.5 c 128,-1,6
 155 987 155 987 204.5 969.5 c 128,-1,7
 254 952 254 952 309 952 c 0,8,9
 372 952 372 952 434 976 c 2,10,-1
 448 981 l 1,11,-1
 448 -83 l 2,12,13
 448 -170 448 -170 467 -232 c 128,-1,14
 486 -294 486 -294 526 -334 c 0,15,16
 606 -414 606 -414 781 -414 c 0,17,18
 846 -414 846 -414 895.5 -407 c 128,-1,19
 945 -400 945 -400 978 -393 c 1,20,-1
 978 -203 l 1,21,22
 955 -208 955 -208 920 -213.5 c 128,-1,23
 885 -219 885 -219 832 -219 c 128,-1,24
 779 -219 779 -219 749 -202 c 0,25,26
 692 -168 692 -168 683 -85 c 0,27,28
 678 -46 678 -46 678 0 c 2,29,-1
 678 1189 l 2,30,31
 678 1362 678 1362 591 1445 c 0,32,33
 507 1524 507 1524 340 1524 c 0,34,35
 275 1524 275 1524 219.5 1503.5 c 128,-1,0
 164 1483 164 1483 123.5 1446 c 128,-1,1
257 1156 m 128,-1,37
 229 1189 229 1189 229 1243.5 c 128,-1,38
 229 1298 229 1298 257 1331.5 c 128,-1,39
 285 1365 285 1365 340.5 1365 c 128,-1,40
 396 1365 396 1365 424.5 1331.5 c 128,-1,41
 453 1298 453 1298 453 1243.5 c 128,-1,42
 453 1189 453 1189 424.5 1156 c 128,-1,43
 396 1123 396 1123 340.5 1123 c 128,-1,36
 285 1123 285 1123 257 1156 c 128,-1,37
EndSplineSet
EndChar

StartChar: uni01AB
Encoding: 427 427 363
Width: 1126
Flags: W
LayerCount: 2
Fore
SplineSet
495 -231 m 1,0,-1
 495 -408 l 1,1,2
 562 -426 562 -426 651.5 -426 c 128,-1,3
 741 -426 741 -426 800.5 -404 c 128,-1,4
 860 -382 860 -382 897 -333.5 c 128,-1,5
 934 -285 934 -285 950.5 -207.5 c 128,-1,6
 967 -130 967 -130 967 -18 c 2,7,-1
 967 185 l 1,8,9
 924 174 924 174 870.5 164.5 c 128,-1,10
 817 155 817 155 756 155 c 0,11,12
 658 155 658 155 615 202.5 c 128,-1,13
 572 250 572 250 572 343 c 2,14,-1
 572 839 l 1,15,-1
 967 839 l 1,16,-1
 967 1011 l 1,17,-1
 572 1011 l 1,18,-1
 572 1338 l 1,19,-1
 342 1278 l 1,20,-1
 342 1012 l 1,21,-1
 69 1012 l 1,22,-1
 69 839 l 1,23,-1
 342 839 l 1,24,-1
 342 325 l 2,25,26
 342 144 342 144 431.5 60.5 c 128,-1,27
 521 -23 521 -23 717 -23 c 2,28,-1
 751 -23 l 1,29,-1
 751 -33 l 2,30,31
 751 -103 751 -103 743 -145 c 128,-1,32
 735 -187 735 -187 718 -210.5 c 128,-1,33
 701 -234 701 -234 674.5 -240.5 c 128,-1,34
 648 -247 648 -247 613 -247 c 128,-1,35
 578 -247 578 -247 552 -243 c 128,-1,36
 526 -239 526 -239 495 -231 c 1,0,-1
EndSplineSet
EndChar

StartChar: uni01AC
Encoding: 428 428 364
Width: 1126
Flags: W
LayerCount: 2
Fore
SplineSet
679 1112 m 1,0,-1
 1037 1112 l 1,1,-1
 1037 1297 l 1,2,-1
 326 1297 l 2,3,4
 167 1297 167 1297 84 1226 c 0,5,6
 41 1190 41 1190 18 1130.5 c 128,-1,7
 -5 1071 -5 1071 -5 986 c 0,8,9
 -5 949 -5 949 1 914.5 c 128,-1,10
 7 880 7 880 12 861 c 1,11,-1
 187 861 l 1,12,13
 176 901 176 901 172.5 928 c 128,-1,14
 169 955 169 955 169 978 c 0,15,16
 169 1039 169 1039 203 1075.5 c 128,-1,17
 237 1112 237 1112 312 1112 c 2,18,-1
 447 1112 l 1,19,-1
 447 10 l 1,20,-1
 679 10 l 1,21,-1
 679 1112 l 1,0,-1
EndSplineSet
EndChar

StartChar: uni01AD
Encoding: 429 429 365
Width: 1126
Flags: W
LayerCount: 2
Fore
SplineSet
431.5 60.5 m 128,-1,1
 521 -23 521 -23 717 -23 c 0,2,3
 827 -23 827 -23 967 9 c 1,4,-1
 967 186 l 1,5,6
 924 174 924 174 870.5 164.5 c 128,-1,7
 817 155 817 155 756 155 c 0,8,9
 658 155 658 155 615 203 c 128,-1,10
 572 251 572 251 572 345 c 2,11,-1
 572 841 l 1,12,-1
 967 841 l 1,13,-1
 967 1015 l 1,14,-1
 572 1015 l 1,15,-1
 572 1093 l 2,16,17
 572 1182 572 1182 609.5 1221.5 c 128,-1,18
 647 1261 647 1261 732 1261 c 0,19,20
 765 1261 765 1261 802 1255.5 c 128,-1,21
 839 1250 839 1250 872 1240 c 1,22,-1
 872 1410 l 1,23,24
 795 1432 795 1432 679 1432 c 0,25,26
 420 1432 420 1432 362 1226 c 0,27,28
 342 1158 342 1158 342 1068 c 2,29,-1
 342 1015 l 1,30,-1
 69 1015 l 1,31,-1
 69 842 l 1,32,-1
 342 842 l 1,33,-1
 342 326 l 2,34,0
 342 144 342 144 431.5 60.5 c 128,-1,1
EndSplineSet
EndChar

StartChar: uni01AE
Encoding: 430 430 366
Width: 1126
Flags: W
LayerCount: 2
Fore
SplineSet
965 -401 m 1,0,-1
 965 -214 l 1,1,2
 882 -238 882 -238 826 -238 c 0,3,4
 791 -238 791 -238 763 -229.5 c 128,-1,5
 735 -221 735 -221 716.5 -195 c 128,-1,6
 698 -169 698 -169 688.5 -124 c 128,-1,7
 679 -79 679 -79 679 -7 c 2,8,-1
 679 1102 l 1,9,-1
 1037 1102 l 1,10,-1
 1037 1287 l 1,11,-1
 89 1287 l 1,12,-1
 89 1102 l 1,13,-1
 447 1102 l 1,14,-1
 447 -38 l 2,15,16
 447 -150 447 -150 466.5 -224 c 128,-1,17
 486 -298 486 -298 526.5 -343 c 128,-1,18
 567 -388 567 -388 629.5 -407.5 c 128,-1,19
 692 -427 692 -427 786 -427 c 128,-1,20
 880 -427 880 -427 965 -401 c 1,0,-1
EndSplineSet
EndChar

StartChar: Uhorn
Encoding: 431 431 367
Width: 1126
Flags: W
LayerCount: 2
Fore
SplineSet
863 259 m 0,0,1
 891 353 891 353 891 478 c 2,2,-1
 891 1054 l 1,3,-1
 901 1054 l 2,4,5
 960 1055 960 1055 1012 1070 c 0,6,7
 1123 1101 1123 1101 1167 1199 c 0,8,9
 1190 1250 1190 1250 1190 1327 c 0,10,11
 1190 1386 1190 1386 1168 1415.5 c 128,-1,12
 1146 1445 1146 1445 1091 1445 c 0,13,14
 1046 1445 1046 1445 1023 1422.5 c 128,-1,15
 1000 1400 1000 1400 1000 1365 c 0,16,17
 1000 1355 1000 1355 1003 1341.5 c 128,-1,18
 1006 1328 1006 1328 1009.5 1313.5 c 128,-1,19
 1013 1299 1013 1299 1016 1283 c 128,-1,20
 1019 1267 1019 1267 1019 1253 c 0,21,22
 1019 1201 1019 1201 989 1179 c 128,-1,23
 959 1157 959 1157 901 1155 c 2,24,-1
 891 1155 l 1,25,-1
 891 1306 l 1,26,-1
 665 1306 l 1,27,-1
 665 462 l 2,28,29
 665 383 665 383 656 327 c 0,30,31
 637 213 637 213 568 179 c 0,32,33
 533 163 533 163 482 163 c 0,34,35
 382 163 382 163 340 241 c 0,36,37
 319 278 319 278 311 331 c 128,-1,38
 303 384 303 384 303 452 c 2,39,-1
 303 1306 l 1,40,-1
 77 1306 l 1,41,-1
 77 437 l 2,42,43
 77 329 77 329 97.5 243.5 c 128,-1,44
 118 158 118 158 165 99 c 128,-1,45
 212 40 212 40 288.5 8.5 c 128,-1,46
 365 -23 365 -23 477 -23 c 0,47,48
 576 -23 576 -23 653 9 c 0,49,50
 808 72 808 72 863 259 c 0,0,1
EndSplineSet
EndChar

StartChar: uhorn
Encoding: 432 432 368
Width: 1126
Flags: W
LayerCount: 2
Fore
SplineSet
890 1015 m 1,0,-1
 667 1015 l 1,1,-1
 667 347 l 1,2,3
 612 256 612 256 562 213 c 128,-1,4
 512 170 512 170 457 170 c 0,5,6
 392 170 392 170 363 228 c 0,7,8
 341 272 341 272 341 351 c 2,9,-1
 341 1015 l 1,10,-1
 117 1015 l 1,11,-1
 117 331 l 2,12,13
 117 167 117 167 186 73 c 0,14,15
 221 27 221 27 271.5 2 c 128,-1,16
 322 -23 322 -23 391 -23 c 0,17,18
 441 -23 441 -23 480 -11 c 0,19,20
 557 13 557 13 617 78 c 0,21,22
 647 110 647 110 676 149 c 2,23,-1
 693 172 l 1,24,-1
 700 0 l 1,25,-1
 890 0 l 1,26,-1
 890 774 l 1,27,-1
 900 774 l 2,28,29
 959 775 959 775 1011 790 c 0,30,31
 1123 821 1123 821 1167 919 c 0,32,33
 1190 971 1190 971 1190 1048 c 0,34,35
 1190 1106 1190 1106 1165.5 1136 c 128,-1,36
 1141 1166 1141 1166 1086 1166 c 0,37,38
 1041 1166 1041 1166 1015.5 1143.5 c 128,-1,39
 990 1121 990 1121 990 1086 c 0,40,41
 990 1064 990 1064 994 1044 c 0,42,43
 999 1023 999 1023 999 996.5 c 128,-1,44
 999 970 999 970 995 951 c 0,45,46
 987 914 987 914 947 903 c 0,47,48
 929 897 929 897 900 896 c 2,49,-1
 890 896 l 1,50,-1
 890 1015 l 1,0,-1
EndSplineSet
EndChar

StartChar: uni01B1
Encoding: 433 433 369
Width: 1126
Flags: W
LayerCount: 2
Fore
SplineSet
477 1132 m 1,0,-1
 477 1287 l 1,1,-1
 45 1287 l 1,2,-1
 45 1127 l 1,3,-1
 287 1127 l 1,4,-1
 259 1109 l 2,5,6
 214 1079 214 1079 175 1025 c 128,-1,7
 136 971 136 971 107 902.5 c 128,-1,8
 78 834 78 834 61.5 755.5 c 128,-1,9
 45 677 45 677 45 597 c 0,10,11
 45 442 45 442 80 326 c 0,12,13
 151 96 151 96 341 17 c 0,14,15
 436 -22 436 -22 555 -22 c 0,16,17
 665 -22 665 -22 760.5 19.5 c 128,-1,18
 856 61 856 61 926.5 141.5 c 128,-1,19
 997 222 997 222 1038 341 c 128,-1,20
 1079 460 1079 460 1079 615 c 0,21,22
 1079 693 1079 693 1065 768 c 0,23,24
 1037 921 1037 921 961 1024 c 0,25,26
 923 1076 923 1076 874 1109 c 2,27,-1
 848 1127 l 1,28,-1
 1081 1127 l 1,29,-1
 1081 1287 l 1,30,-1
 644 1287 l 1,31,-1
 644 1130 l 1,32,33
 703 1086 703 1086 742 1033 c 0,34,35
 816 931 816 931 831 777 c 0,36,37
 839 702 839 702 839 609.5 c 128,-1,38
 839 517 839 517 823.5 437.5 c 128,-1,39
 808 358 808 358 774 301 c 128,-1,40
 740 244 740 244 687 212.5 c 128,-1,41
 634 181 634 181 557.5 181 c 128,-1,42
 481 181 481 181 429 215 c 0,43,44
 328 281 328 281 300 447 c 0,45,46
 287 526 287 526 287 616 c 128,-1,47
 287 706 287 706 297 783 c 0,48,49
 316 940 316 940 389 1044 c 0,50,51
 424 1095 424 1095 477 1132 c 1,0,-1
EndSplineSet
EndChar

